SplineFontDB: 3.0
FontName: Noon-Regular
FullName: Noon Regular
FamilyName: Noon
Weight: Regular
Copyright: Copyright (c) 2016, Mohammad Saleh Souzanchi (<soozanchi.ir>),\nwith Reserved Font Name Noon.\n\nThis Font Software is licensed under the SIL Open Font License, Version 1.1.\nThis license is copied below, and is also available with a FAQ at:\nhttp://scripts.sil.org/OFL\n
FontLog: "+BjQGNAY0"
Version: 0.9.2
ItalicAngle: 0
UnderlinePosition: -852
UnderlineWidth: 102
Ascent: 1638
Descent: 410
InvalidEm: 0
sfntRevision: 0x00010000
LayerCount: 2
Layer: 0 0 "Back" 1
Layer: 1 0 "Fore" 0
XUID: [1021 425 1075855985 13353]
StyleMap: 0x0040
FSType: 0
OS2Version: 3
OS2_WeightWidthSlopeOnly: 0
OS2_UseTypoMetrics: 0
CreationTime: 1307168063
ModificationTime: 1476026436
PfmFamily: 17
TTFWeight: 400
TTFWidth: 5
LineGap: 0
VLineGap: 0
Panose: 0 0 0 0 0 0 0 0 0 0
OS2TypoAscent: 2400
OS2TypoAOffset: 0
OS2TypoDescent: -1300
OS2TypoDOffset: 0
OS2TypoLinegap: 0
OS2WinAscent: 2400
OS2WinAOffset: 0
OS2WinDescent: 1300
OS2WinDOffset: 0
HheadAscent: 2400
HheadAOffset: 0
HheadDescent: -1300
HheadDOffset: 0
OS2SubXSize: 1331
OS2SubYSize: 1433
OS2SubXOff: -219
OS2SubYOff: 286
OS2SupXSize: 1331
OS2SupYSize: 1433
OS2SupXOff: 753
OS2SupYOff: 983
OS2StrikeYSize: 102
OS2StrikeYPos: 530
OS2Vendor: 'RITA'
OS2CodePages: 00000040.00000000
OS2UnicodeRanges: 00002000.00000000.00000000.00000000
Lookup: 1 0 0 "ChangeTajob" { "ChangeTajob-1"  } []
Lookup: 1 1 0 "Single Substitution lookup 36" { "Single Substitution lookup 36 subtable"  } []
Lookup: 1 1 0 "Single Substitution lookup 37" { "Single Substitution lookup 37 subtable"  } []
Lookup: 1 1 0 "Single Substitution lookup 38" { "Single Substitution lookup 38 subtable"  } []
Lookup: 1 1 0 "Single Substitution lookup 39" { "Single Substitution lookup 39 subtable"  } []
Lookup: 4 1 0 "Ligature Substitution lookup 40" { "Ligature Substitution lookup 40 subtable"  } []

StartChar: uni0600
Encoding: 2 1536 1
Width: 996
GlyphClass: 2
Flags: HMW
LayerCount: 2
Fore
SplineSet
507 398 m 1
 702 250 l 1
 727 272 l 1
 638 495 l 1
 846 629 l 1
 837 662 l 1
 590 650 l 1
 517 890 l 1
 486 890 l 1
 426 650 l 1
 168 658 l 1
 157 629 l 1
 377 494 l 1
 292 259 l 1
 316 240 l 1
 507 398 l 1
498 134 m 0
 328 134 199 229 131 341 c 0
 93 404 74 472 74 547 c 0
 74 715 172 841 285 907 c 0
 350 945 421 963 498 963 c 0
 668 963 799 868 866 755 c 0
 904 691 923 622 923 547 c 0
 923 380 824 255 711 190 c 0
 646 153 575 134 498 134 c 0
EndSplineSet
Validated: 1
EndChar

StartChar: s.virgul
Encoding: 14 1548 13
Width: 411
GlyphClass: 2
Flags: HMW
LayerCount: 2
Fore
SplineSet
80 208 m 4
 86 309 199 426 276 462 c 5
 294 462 297 453 285 435 c 5
 252 405 227 377 210 350 c 4
 200 332 195 313 195 295 c 4
 195 257 213 239 240 223 c 5
 300 182 l 5
 321 169 331 153 331 132 c 4
 331 79 269 2 219 2 c 6
 212 2 l 5
 141 12 80 103 80 193 c 4
 80 198 80 203 80 208 c 4
EndSplineSet
Validated: 1
EndChar

StartChar: c.hamze
Encoding: 35 1569 34
Width: 752
GlyphClass: 2
Flags: HMW
AnchorPoint: "Cursive-84" 621 0 entry 0
AnchorPoint: "Cursive-83" 621 0 entry 0
AnchorPoint: "Anchor-11" 151 1200 basechar 0
AnchorPoint: "Anchor-10" 151 1550 basechar 0
AnchorPoint: "Anchor-9" 351 -100 basechar 0
AnchorPoint: "Anchor-8" 301 800 basechar 0
AnchorPoint: "Anchor-7" 301 795 basechar 0
AnchorPoint: "Anchor-6" 301 700 basechar 0
AnchorPoint: "Anchor-5" 370 778 basechar 0
LayerCount: 2
Fore
SplineSet
222 346 m 5
 225 294 278 270 349 270 c 4
 369 270 403 274 450 283 c 5
 606 323 l 6
 641 333 661 337 667 336 c 4
 671 334 672 329 672 322 c 4
 672 298 654 250 649 236 c 4
 641 208 628 193 611 191 c 4
 430 152 344 113 205 34 c 4
 160 9 133 -4 124 -5 c 4
 119 -5 116 0 116 9 c 4
 116 50 141 89 158 115 c 5
 122 139 80 170 80 222 c 4
 80 225 80 229 80 232 c 4
 81 242 82 247 82 248 c 4
 104 350 165 441 266 520 c 4
 299 547 329 563 379 563 c 4
 418 563 480 511 482 479 c 4
 482 472 481 468 479 465 c 4
 474 454 459 434 433 403 c 4
 407 372 393 362 392 371 c 5
 376 396 347 426 312 426 c 4
 305 426 297 425 289 422 c 5
 257 415 224 382 222 346 c 5
EndSplineSet
Validated: 1
EndChar

StartChar: c.alef_hamzeUp
Encoding: 37 1571 36
Width: 481
GlyphClass: 2
Flags: HMWO
AnchorPoint: "Cursive-83" 500 0 entry 0
AnchorPoint: "Anchor-11" 205 1985 basechar 0
AnchorPoint: "Anchor-10" 120 0 basechar 0
AnchorPoint: "Anchor-9" 303 -150 basechar 0
AnchorPoint: "Anchor-8" 225 2150 basechar 0
AnchorPoint: "Anchor-7" 184 2048 basechar 0
AnchorPoint: "Anchor-6" 120 0 basechar 0
AnchorPoint: "Anchor-5" 240 2020 basechar 0
LayerCount: 2
Fore
SplineSet
401 306 m 1
 401 280 l 2
 401 209 390 139 368 70 c 0
 351 22 336 -3 321 -3 c 2
 320 -3 l 2
 312 -3 308 21 308 70 c 2
 307 162 l 1
 307 167 l 2
 307 218 293 346 266 554 c 1
 163 1267 l 2
 162 1273 162 1280 162 1286 c 0
 162 1325 175 1369 200 1416 c 0
 231 1473 252 1501 264 1501 c 2
 266 1501 l 1
 273 1500 281 1460 290 1379 c 0
 295 1341 305 1245 322 1090 c 2
 395 388 l 1
 401 306 l 1
EndSplineSet
Refer: 86 1621 S 1 0 0 1 16 1964 2
Validated: 1
Substitution2: "Single Substitution lookup 41 subtable" c.alef_hamzeUp.zz12
Substitution2: "Single Substitution lookup 38 subtable" c.alef_hamzeUp.calt
Substitution2: "'fina' Terminal Forms in Arabic lookup 3 subtable" g.alef_hamzeUp.fina
EndChar

StartChar: c.alef
Encoding: 41 1575 40
Width: 387
GlyphClass: 2
Flags: HMW
AnchorPoint: "Cursive-83" 400 0 entry 0
AnchorPoint: "Anchor-11" 174 1710 basechar 0
AnchorPoint: "Anchor-10" 749 1775 basechar 0
AnchorPoint: "Anchor-9" 252 -200 basechar 0
AnchorPoint: "Anchor-8" 174 1560 basechar 0
AnchorPoint: "Anchor-7" 174 1630 basechar 0
AnchorPoint: "Anchor-6" 204 1540 basechar 0
AnchorPoint: "Anchor-5" 153 1586 basechar 0
LayerCount: 2
Fore
SplineSet
313 316 m 5
 313 290 l 6
 313 219 302 149 280 80 c 4
 263 32 248 7 233 7 c 6
 232 7 l 6
 224 7 220 31 220 80 c 6
 219 172 l 5
 219 177 l 6
 219 228 205 356 178 564 c 5
 75 1277 l 6
 74 1283 74 1290 74 1296 c 4
 74 1335 87 1379 112 1426 c 4
 143 1483 164 1511 176 1511 c 6
 178 1511 l 5
 185 1510 193 1470 202 1389 c 4
 207 1351 217 1255 234 1100 c 6
 307 398 l 5
 313 316 l 5
EndSplineSet
Validated: 1
Substitution2: "Single Substitution lookup 55 subtable" c.alef.zz29
Substitution2: "Single Substitution lookup 42 subtable" c.alef.zz04_calt
Substitution2: "'fina' Terminal Forms in Arabic lookup 3 subtable" g.alef.fina
EndChar

StartChar: c.heh
Encoding: 47 1581 46
Width: 1279
GlyphClass: 2
Flags: HMW
AnchorPoint: "Anchor-11" 400 1200 basechar 0
AnchorPoint: "Anchor-10" 100 1600 basechar 0
AnchorPoint: "Anchor-9" 775 50 basechar 0
AnchorPoint: "Anchor-8" 575 1000 basechar 0
AnchorPoint: "Anchor-7" 525 1035 basechar 0
AnchorPoint: "Anchor-6" 495 930 basechar 0
AnchorPoint: "Anchor-5" 550 1000 basechar 0
LayerCount: 2
Fore
SplineSet
844 -886 m 1
 358 -886 64 -703 64 -218 c 0
 64 -163 69 -133 78 -75 c 0
 94 20 154 174 217 260 c 0
 238 290 262 322 291 357 c 0
 342 418 387 462 428 490 c 0
 430 491 431 493 431 494 c 0
 431 501 401 505 379 508 c 1
 361 508 l 2
 299 508 259 502 222 477 c 0
 204 469 171 440 123 389 c 0
 120 386 117 384 114 384 c 0
 109 384 108 387 108 392 c 2
 108 399 l 1
 122 467 208 608 257 641 c 0
 290 663 321 672 371 679 c 1
 414 679 443 678 460 678 c 0
 476 676 506 674 549 669 c 1
 781 658 l 1
 876 658 l 1
 956 662 l 1
 1059 672 l 1
 1061 672 l 2
 1067 672 1071 670 1071 665 c 0
 1071 662 1069 659 1067 654 c 2
 993 520 l 2
 986 508 977 501 965 501 c 2
 963 501 l 2
 869 501 809 493 731 473 c 0
 581 441 455 371 353 264 c 0
 255 159 162 3 162 -200 c 1
 177 -614 499 -730 936 -730 c 2
 1474 -729 l 2
 1482 -729 1487 -733 1489 -741 c 0
 1489 -750 1484 -756 1474 -759 c 0
 1445 -767 1199 -824 1153 -835 c 0
 1040 -860 937 -877 844 -886 c 1
EndSplineSet
Validated: 1
Substitution2: "'init' Initial Forms in Arabic lookup 1 subtable" g.heh.init
Substitution2: "'fina' Terminal Forms in Arabic lookup 3 subtable" g.heh.fina
Substitution2: "'medi' Medial Forms in Arabic lookup 2 subtable" g.heh.medi
EndChar

StartChar: c.dal
Encoding: 49 1583 48
Width: 836
GlyphClass: 2
Flags: HMW
AnchorPoint: "Cursive-85" 56 0 exit 0
AnchorPoint: "Cursive-84" 731 0 entry 0
AnchorPoint: "Cursive-83" 800 0 entry 0
AnchorPoint: "Anchor-11" 256 1200 basechar 0
AnchorPoint: "Anchor-10" 206 1600 basechar 0
AnchorPoint: "Anchor-9" 406 -200 basechar 0
AnchorPoint: "Anchor-8" 381 1050 basechar 0
AnchorPoint: "Anchor-7" 356 930 basechar 0
AnchorPoint: "Anchor-6" 341 900 basechar 0
AnchorPoint: "Anchor-5" 366 1088 basechar 0
LayerCount: 2
Fore
SplineSet
289 -1 m 2
 274 -1 l 2
 189 -1 80 1 80 82 c 0
 80 92 81 104 84 117 c 0
 97 171 109 211 121 236 c 0
 123 240 126 242 129 242 c 0
 132 242 135 240 139 238 c 0
 174 215 251 210 309 210 c 0
 398 210 492 226 552 255 c 0
 593 274 615 298 619 325 c 0
 619 336 614 350 604 367 c 0
 595 384 578 406 556 432 c 0
 532 459 498 492 451 531 c 1
 336 620 l 1
 323 633 316 648 316 666 c 0
 316 706 347 756 364 785 c 0
 376 804 385 814 390 815 c 0
 391 815 392 816 393 816 c 0
 409 816 453 783 525 721 c 0
 603 651 678 557 728 452 c 0
 746 408 755 368 756 332 c 1
 754 310 l 1
 743 212 732 137 666 94 c 1
 597 43 423 -1 289 -1 c 2
EndSplineSet
Validated: 1
Substitution2: "Single Substitution lookup 54 subtable" c.dal.zz28
Substitution2: "Single Substitution lookup 38 subtable" c.dal.zz09
Substitution2: "Single Substitution lookup 37 subtable" c.dal.calt
Substitution2: "'fina' Terminal Forms in Arabic lookup 3 subtable" g.dal.fina
EndChar

StartChar: c.ree
Encoding: 51 1585 50
Width: 790
GlyphClass: 2
Flags: HMW
AnchorPoint: "Cursive-84" 800 0 entry 0
AnchorPoint: "Cursive-83" 0 0 exit 0
AnchorPoint: "Cursive-83" 900 0 entry 0
AnchorPoint: "Anchor-11" 200 1100 basechar 0
AnchorPoint: "Anchor-10" 75 1575 basechar 0
AnchorPoint: "Anchor-9" 325 -650 basechar 0
AnchorPoint: "Anchor-8" 350 850 basechar 0
AnchorPoint: "Anchor-7" 405 810 basechar 0
AnchorPoint: "Anchor-6" 345 675 basechar 0
AnchorPoint: "Anchor-5" 375 850 basechar 0
LayerCount: 2
Fore
SplineSet
699 80 m 6
 699 -14 660 -118 628 -187 c 4
 592 -271 533 -369 469 -430 c 4
 426 -469 372 -506 300 -518 c 4
 262 -525 220 -528 173 -528 c 4
 63 -528 24 -518 -80 -494 c 4
 -137 -482 -177 -472 -202 -464 c 4
 -224 -457 -235 -450 -235 -444 c 6
 -235 -442 l 6
 -235 -437 -226 -434 -209 -434 c 4
 -197 -434 -180 -435 -159 -438 c 5
 -75 -441 l 5
 26 -438 l 5
 229 -419 343 -339 442 -217 c 5
 556 -85 613 15 613 82 c 4
 613 107 594 138 556 173 c 5
 464 254 l 6
 452 264 446 277 446 292 c 4
 446 313 455 340 461 364 c 4
 466 381 475 448 500 448 c 4
 509 448 521 441 536 427 c 4
 604 359 663 282 691 176 c 4
 696 161 698 131 699 88 c 5
 699 80 l 6
EndSplineSet
Validated: 1
Substitution2: "Single Substitution lookup 38 subtable" c.ree.zz09
Substitution2: "Single Substitution lookup 37 subtable" c.ree.calt
Substitution2: "'fina' Terminal Forms in Arabic lookup 3 subtable" g.ree.fina
EndChar

StartChar: c.sin
Encoding: 53 1587 52
Width: 1922
GlyphClass: 2
Flags: HMW
AnchorPoint: "Cursive-83" 1800 0 entry 0
AnchorPoint: "Anchor-11" 450 1100 basechar 0
AnchorPoint: "Anchor-10" 400 1200 basechar 0
AnchorPoint: "Anchor-9" 1495 -287 basechar 0
AnchorPoint: "Anchor-8" 1175 950 basechar 0
AnchorPoint: "Anchor-7" 1170 870 basechar 0
AnchorPoint: "Anchor-6" 1080 750 basechar 0
AnchorPoint: "Anchor-5" 1300 1000 basechar 0
LayerCount: 2
Fore
SplineSet
1517 314 m 5
 1547 304 1634 285 1686 277 c 5
 1722 280 1740 298 1740 329 c 6
 1740 336 l 5
 1737 353 1725 381 1704 422 c 4
 1687 456 1678 478 1678 487 c 4
 1678 513 1741 651 1767 651 c 5
 1794 624 l 5
 1823 566 1842 485 1842 396 c 4
 1842 313 1825 250 1801 195 c 4
 1768 127 1728 100 1634 91 c 5
 1556 91 1491 105 1438 136 c 5
 1370 83 1312 40 1214 25 c 4
 1192 22 1155 20 1101 19 c 5
 1101 -62 l 5
 1098 -123 l 5
 1087 -238 1043 -328 965 -392 c 4
 854 -479 695 -533 497 -533 c 4
 243 -533 67 -394 67 -157 c 5
 72 -45 98 24 135 95 c 4
 178 174 206 221 220 235 c 4
 224 237 227 238 229 238 c 4
 234 238 236 233 236 224 c 5
 223 192 l 5
 200 145 180 89 161 23 c 4
 155 -1 152 -24 152 -47 c 6
 152 -57 l 5
 153 -89 l 5
 170 -227 286 -301 416 -322 c 4
 455 -328 499 -331 549 -331 c 4
 730 -331 864 -276 971 -204 c 4
 994 -187 1005 -158 1005 -118 c 4
 1005 -67 993 -15 968 39 c 4
 943 96 908 155 863 216 c 4
 844 240 826 259 826 298 c 4
 826 359 850 399 878 441 c 4
 888 456 896 464 903 464 c 4
 905 464 906 464 907 463 c 4
 916 454 931 435 950 408 c 4
 970 381 1003 330 1050 255 c 4
 1064 229 1077 226 1108 226 c 4
 1204 226 1311 271 1361 314 c 4
 1405 351 1440 389 1466 430 c 4
 1495 477 1515 501 1524 501 c 4
 1537 501 1544 486 1544 455 c 4
 1539 394 1530 347 1517 314 c 5
EndSplineSet
Validated: 1
Substitution2: "'init' Initial Forms in Arabic lookup 1 subtable" g.sin.init
Substitution2: "'fina' Terminal Forms in Arabic lookup 3 subtable" g.sin.fina
Substitution2: "'medi' Medial Forms in Arabic lookup 2 subtable" g.sin.medi
EndChar

StartChar: c.sad
Encoding: 55 1589 54
Width: 2164
GlyphClass: 2
Flags: HMW
AnchorPoint: "Cursive-83" 1950 0 entry 0
AnchorPoint: "Anchor-11" 450 1100 basechar 0
AnchorPoint: "Anchor-10" 400 1200 basechar 0
AnchorPoint: "Anchor-9" 1679 -143 basechar 0
AnchorPoint: "Anchor-8" 1300 1000 basechar 0
AnchorPoint: "Anchor-7" 1215 960 basechar 0
AnchorPoint: "Anchor-6" 1200 885 basechar 0
AnchorPoint: "Anchor-5" 1300 1000 basechar 0
LayerCount: 2
Fore
SplineSet
1905 441 m 1
 1905 477 1800 515 1774 515 c 1
 1756 516 l 2
 1739 516 1719 512 1695 503 c 0
 1673 494 1644 479 1610 456 c 0
 1546 409 1439 319 1341 231 c 1
 1464 251 1617 289 1734 333 c 0
 1784 351 1824 370 1853 389 c 0
 1883 408 1900 426 1905 441 c 1
167 -66 m 0
 167 -274 359 -328 564 -328 c 0
 738 -328 877 -278 977 -206 c 0
 1005 -184 1019 -154 1019 -115 c 0
 1019 15 945 135 877 220 c 0
 855 245 843 271 843 295 c 2
 843 303 l 1
 850 351 866 397 893 442 c 0
 902 458 909 466 916 466 c 0
 929 466 951 430 990 375 c 0
 1045 293 1075 245 1082 232 c 0
 1085 225 1095 221 1111 220 c 0
 1126 220 1147 220 1175 222 c 0
 1201 222 1218 226 1224 231 c 0
 1325 343 1475 492 1591 599 c 0
 1646 651 1708 702 1801 702 c 0
 1886 702 1946 673 2021 623 c 0
 2063 594 2084 563 2084 530 c 0
 2084 508 2064 463 2024 395 c 0
 1960 289 1881 201 1767 147 c 1
 1606 78 1397 37 1170 28 c 1
 1150 28 l 2
 1135 28 1123 28 1112 29 c 1
 1115 0 1116 -27 1116 -54 c 0
 1116 -208 1078 -310 981 -388 c 0
 875 -476 712 -530 511 -530 c 1
 275 -522 78 -394 78 -174 c 2
 78 -164 l 1
 82 -86 99 -27 120 32 c 0
 132 67 213 231 235 231 c 0
 242 231 244 226 244 218 c 0
 244 213 243 207 241 201 c 0
 212 127 167 21 167 -66 c 0
EndSplineSet
Validated: 1
Substitution2: "'init' Initial Forms in Arabic lookup 1 subtable" g.sad.init
Substitution2: "'fina' Terminal Forms in Arabic lookup 3 subtable" g.sad.fina
Substitution2: "'medi' Medial Forms in Arabic lookup 2 subtable" g.sad.medi
EndChar

StartChar: c.taa
Encoding: 57 1591 56
Width: 1591
GlyphClass: 2
Flags: HMW
AnchorPoint: "Cursive-83" 1466 0 entry 0
AnchorPoint: "Anchor-11" 541 1450 basechar 0
AnchorPoint: "Anchor-10" 341 1450 basechar 0
AnchorPoint: "Anchor-9" 1147 -266 basechar 0
AnchorPoint: "Anchor-8" 1266 950 basechar 0
AnchorPoint: "Anchor-7" 1041 1260 basechar 0
AnchorPoint: "Anchor-6" 951 1080 basechar 0
AnchorPoint: "Anchor-5" 1200 950 basechar 0
LayerCount: 2
Fore
SplineSet
1340 297 m 0
 1340 324 1259 373 1238 380 c 0
 1217 387 1199 391 1185 391 c 0
 1127 391 1097 375 1046 346 c 0
 919 271 824 208 762 157 c 1
 880 157 1051 185 1160 206 c 0
 1208 215 1247 229 1278 246 c 0
 1313 264 1340 283 1340 297 c 0
645 1296 m 0
 644 1299 643 1303 643 1308 c 0
 643 1331 658 1372 686 1429 c 0
 719 1489 740 1519 750 1519 c 2
 751 1519 l 1
 756 1517 763 1490 769 1437 c 0
 777 1384 785 1346 796 1321 c 0
 806 1308 822 1294 845 1280 c 0
 861 1270 869 1261 869 1253 c 0
 869 1249 867 1245 864 1242 c 0
 828 1176 809 1133 809 1115 c 0
 809 1113 810 1111 810 1110 c 2
 822 983 l 1
 853 705 868 523 868 435 c 2
 868 420 l 1
 867 364 l 1
 1016 471 l 1
 1077 513 1125 540 1162 553 c 0
 1189 563 1215 568 1238 568 c 0
 1256 568 1276 565 1297 560 c 0
 1341 550 1397 515 1464 456 c 0
 1497 427 1511 398 1511 368 c 0
 1511 327 1485 283 1445 234 c 0
 1423 204 1394 175 1357 147 c 0
 1280 83 1184 40 1057 12 c 0
 935 -12 817 -32 673 -32 c 0
 521 -32 495 -25 378 25 c 0
 325 50 268 88 205 140 c 0
 135 201 94 239 83 256 c 0
 81 261 80 264 80 267 c 0
 80 273 84 275 90 275 c 0
 99 275 113 269 125 264 c 0
 231 219 355 172 498 162 c 2
 574 157 l 1
 611 160 631 163 636 168 c 0
 691 215 730 250 753 274 c 0
 776 296 787 321 787 350 c 0
 787 555 748 768 715 968 c 0
 699 1072 676 1181 645 1296 c 0
EndSplineSet
Validated: 1
Substitution2: "'init' Initial Forms in Arabic lookup 1 subtable" g.taa.init
Substitution2: "'fina' Terminal Forms in Arabic lookup 3 subtable" g.taa.fina
Substitution2: "'medi' Medial Forms in Arabic lookup 2 subtable" g.taa.medi
EndChar

StartChar: c.ein
Encoding: 59 1593 58
Width: 1226
GlyphClass: 2
Flags: HMW
AnchorPoint: "Cursive-85" 1225 0 entry 0
AnchorPoint: "Cursive-83" 1225 0 entry 0
AnchorPoint: "Anchor-11" 300 1250 basechar 0
AnchorPoint: "Anchor-10" 150 1775 basechar 0
AnchorPoint: "Anchor-9" 725 50 basechar 0
AnchorPoint: "Anchor-8" 450 1175 basechar 0
AnchorPoint: "Anchor-7" 375 1275 basechar 0
AnchorPoint: "Anchor-6" 345 1200 basechar 0
AnchorPoint: "Anchor-5" 400 1200 basechar 0
LayerCount: 2
Fore
SplineSet
926 -742 m 0
 1032 -742 1389 -723 1498 -723 c 0
 1508 -723 1513 -729 1513 -740 c 0
 1513 -747 1508 -753 1498 -758 c 0
 1415 -775 1202 -842 1072 -872 c 0
 1019 -883 954 -897 875 -912 c 0
 860 -913 844 -913 829 -913 c 0
 701 -913 577 -891 471 -859 c 0
 252 -801 91 -652 58 -420 c 0
 51 -380 48 -339 46 -299 c 0
 46 -113 81 -6 150 133 c 0
 185 208 269 336 318 385 c 1
 261 426 220 461 195 490 c 0
 171 519 158 549 158 581 c 2
 158 591 l 2
 158 618 166 655 183 700 c 0
 226 821 306 948 412 1000 c 0
 445 1015 476 1023 507 1024 c 1
 523 1024 l 1
 571 1015 611 1003 649 984 c 0
 696 957 731 932 752 910 c 0
 777 887 790 870 791 861 c 0
 791 853 785 848 774 846 c 1
 718 875 l 1
 679 891 645 903 601 903 c 0
 594 903 586 903 578 902 c 0
 540 902 496 891 445 868 c 0
 378 836 335 797 315 752 c 0
 305 731 300 712 300 697 c 0
 300 687 302 678 306 671 c 0
 324 626 373 584 415 554 c 0
 439 537 457 528 469 528 c 0
 471 528 472 529 474 529 c 0
 683 661 833 744 924 777 c 0
 929 779 933 780 936 780 c 0
 942 780 946 776 946 767 c 0
 946 765 945 762 945 759 c 2
 927 656 l 2
 922 631 911 613 894 603 c 2
 726 512 l 1
 537 398 396 306 279 140 c 0
 212 41 139 -72 139 -231 c 0
 139 -345 163 -423 220 -493 c 0
 267 -556 337 -609 430 -654 c 0
 547 -712 712 -741 926 -742 c 0
EndSplineSet
Validated: 1
Substitution2: "'init' Initial Forms in Arabic lookup 1 subtable" g.ein.init
Substitution2: "'fina' Terminal Forms in Arabic lookup 3 subtable" g.ein.fina
Substitution2: "'medi' Medial Forms in Arabic lookup 2 subtable" g.ein.medi
EndChar

StartChar: c.keshideh
Encoding: 66 1600 65
Width: 650
GlyphClass: 2
Flags: HMW
AnchorPoint: "Anchor-11" 0 0 basechar 0
AnchorPoint: "Anchor-10" 0 0 basechar 0
AnchorPoint: "Anchor-9" 350 -300 basechar 0
AnchorPoint: "Anchor-8" 300 500 basechar 0
AnchorPoint: "Anchor-7" 300 700 basechar 0
AnchorPoint: "Anchor-6" 210 540 basechar 0
AnchorPoint: "Anchor-5" 300 500 basechar 0
LayerCount: 2
Fore
SplineSet
-59 158 m 6
 -59 181 -41 183 -18 183 c 6
 650 183 l 6
 684 183 707 182 709 150 c 5
 709 35 l 6
 709 6 686 0 650 0 c 6
 -2 0 l 6
 -35 0 -59 3 -59 37 c 6
 -59 158 l 6
EndSplineSet
Validated: 1
EndChar

StartChar: c.feh
Encoding: 67 1601 66
Width: 1830
GlyphClass: 2
Flags: HMW
AnchorPoint: "Cursive-83" 1800 0 entry 0
AnchorPoint: "Anchor-11" 450 1200 basechar 0
AnchorPoint: "Anchor-10" 200 1500 basechar 0
AnchorPoint: "Anchor-9" 1050 -200 basechar 0
AnchorPoint: "Anchor-8" 1175 1325 basechar 0
AnchorPoint: "Anchor-7" 1185 1395 basechar 0
AnchorPoint: "Anchor-6" 1170 1320 basechar 0
AnchorPoint: "Anchor-5" 1225 1375 basechar 0
LayerCount: 2
Fore
SplineSet
222 649 m 1
 225 647 226 646 226 642 c 0
 226 636 223 627 216 614 c 0
 181 548 161 505 161 441 c 0
 161 402 176 364 207 328 c 0
 303 213 526 190 743 190 c 0
 1025 190 1422 287 1590 375 c 0
 1647 405 1676 431 1676 454 c 0
 1676 475 1656 495 1642 509 c 1
 1589 466 l 2
 1553 437 1512 412 1461 412 c 2
 1447 412 l 2
 1341 412 1286 496 1286 598 c 2
 1286 618 l 1
 1296 719 1330 803 1382 876 c 0
 1410 917 1441 934 1471 934 c 0
 1530 934 1590 870 1638 800 c 0
 1698 714 1741 622 1754 506 c 0
 1756 492 1756 479 1756 466 c 0
 1756 388 1735 325 1701 277 c 0
 1666 229 1592 183 1479 139 c 0
 1369 99 1251 63 1125 40 c 0
 966 11 820 -4 689 -4 c 0
 561 -4 447 9 345 35 c 0
 209 66 71 159 71 328 c 0
 71 443 119 530 176 606 c 0
 197 635 212 649 221 649 c 2
 222 649 l 1
1461 586 m 0
 1478 586 1551 621 1551 640 c 0
 1551 658 1487 726 1461 728 c 1
 1445 725 1418 678 1418 631 c 0
 1418 601 1432 586 1461 586 c 0
EndSplineSet
Refer: 270 -1 N 1 0 0 1 1127 1027 0
Validated: 1
Substitution2: "'init' Initial Forms in Arabic lookup 1 subtable" g.feh.init
Substitution2: "'fina' Terminal Forms in Arabic lookup 3 subtable" g.feh.fina
Substitution2: "'medi' Medial Forms in Arabic lookup 2 subtable" g.feh.medi
EndChar

StartChar: c.qaf
Encoding: 68 1602 67
Width: 1247
GlyphClass: 2
Flags: HMW
AnchorPoint: "Anchor-11" 400 1200 basechar 0
AnchorPoint: "Anchor-10" 200 1600 basechar 0
AnchorPoint: "Anchor-9" 600 -400 basechar 0
AnchorPoint: "Anchor-8" 675 1150 basechar 0
AnchorPoint: "Anchor-7" 690 1200 basechar 0
AnchorPoint: "Anchor-6" 630 1230 basechar 0
AnchorPoint: "Anchor-5" 705 1250 basechar 0
LayerCount: 2
Fore
SplineSet
815 413 m 0
 815 384 837 365 867 365 c 2
 870 365 l 2
 899 365 955 401 968 422 c 1
 950 451 903 520 870 520 c 2
 867 520 l 1
 847 513 815 457 815 413 c 0
866 205 m 0
 760 205 690 275 690 388 c 0
 690 461 705 502 728 559 c 0
 750 621 804 718 875 724 c 0
 883 724 889 723 893 722 c 0
 932 715 982 669 1042 586 c 0
 1106 493 1147 397 1166 274 c 0
 1171 244 1173 215 1173 190 c 0
 1173 117 1145 20 1110 -36 c 0
 1046 -135 947 -193 811 -237 c 0
 733 -263 644 -277 549 -277 c 0
 294 -277 122 -193 77 13 c 0
 74 24 72 38 72 56 c 0
 70 75 70 85 70 88 c 0
 70 133 78 183 94 238 c 0
 110 293 139 355 182 426 c 0
 202 458 218 474 231 474 c 2
 234 474 l 1
 238 473 240 471 240 466 c 2
 240 463 l 2
 240 456 238 447 234 438 c 0
 210 387 172 291 160 232 c 0
 158 217 157 201 157 186 c 0
 157 157 162 130 171 107 c 0
 218 -18 357 -86 539 -86 c 0
 743 -86 873 -47 997 48 c 0
 1032 76 1057 101 1074 124 c 0
 1091 146 1099 165 1099 182 c 0
 1099 228 1069 262 1042 295 c 1
 986 251 l 1
 951 228 914 205 866 205 c 0
EndSplineSet
Refer: 271 -1 N 1 0 0 1 494 807 0
Validated: 1
Substitution2: "'init' Initial Forms in Arabic lookup 1 subtable" g.qaf.init
Substitution2: "'fina' Terminal Forms in Arabic lookup 3 subtable" g.qaf.fina
Substitution2: "'medi' Medial Forms in Arabic lookup 2 subtable" g.qaf.medi
EndChar

StartChar: c.kaf.ar
Encoding: 69 1603 68
Width: 1226
GlyphClass: 2
Flags: HMW
AnchorPoint: "Cursive-83" 1200 0 entry 0
AnchorPoint: "Anchor-11" 392 1200 basechar 0
AnchorPoint: "Anchor-10" 242 1600 basechar 0
AnchorPoint: "Anchor-9" 642 -175 basechar 0
AnchorPoint: "Anchor-8" 467 1000 basechar 0
AnchorPoint: "Anchor-7" 672 1230 basechar 0
AnchorPoint: "Anchor-6" 537 1155 basechar 0
AnchorPoint: "Anchor-5" 542 1100 basechar 0
LayerCount: 2
Fore
SplineSet
589 766 m 4
 570 766 558 754 558 740 c 4
 558 730 574 719 606 706 c 4
 664 682 742 664 742 583 c 4
 740 538 717 495 672 456 c 4
 634 428 594 414 554 414 c 4
 461 414 383 498 341 561 c 4
 330 578 324 592 324 599 c 4
 324 603 326 605 329 605 c 4
 333 605 339 602 348 595 c 4
 393 560 471 497 548 497 c 4
 566 497 585 506 585 519 c 4
 585 522 584 525 582 528 c 5
 491 571 l 5
 463 586 439 609 439 651 c 4
 439 702 450 725 472 765 c 4
 507 829 556 899 633 920 c 4
 645 924 657 925 668 925 c 4
 705 925 734 907 734 875 c 4
 734 826 699 780 677 762 c 4
 674 759 668 758 657 758 c 4
 645 758 613 766 589 766 c 4
1146 362 m 5
 1146 358 l 6
 1146 320 1132 271 1105 208 c 4
 1077 144 1052 105 1030 90 c 4
 980 53 837 25 746 12 c 4
 706 8 648 2 574 -4 c 5
 449 -8 l 5
 252 -5 129 9 80 35 c 4
 73 42 70 51 70 64 c 4
 78 118 90 168 104 205 c 4
 108 213 111 216 116 216 c 4
 119 216 124 214 129 212 c 4
 191 183 380 179 468 179 c 4
 629 179 757 196 891 223 c 4
 946 234 991 250 1026 270 c 4
 1029 272 1030 290 1030 325 c 4
 1005 550 979 774 952 998 c 4
 947 1029 943 1060 940 1092 c 5
 928 1155 l 5
 895 1242 l 5
 892 1246 891 1251 891 1258 c 4
 891 1284 911 1331 950 1398 c 4
 989 1458 1014 1489 1026 1489 c 4
 1027 1489 1028 1488 1029 1488 c 6
 1030 1488 l 6
 1040 1488 1045 1467 1045 1425 c 6
 1045 1401 l 5
 1047 1332 1063 1288 1096 1260 c 4
 1106 1249 1116 1242 1123 1238 c 5
 1087 1178 1068 1134 1068 1105 c 6
 1068 1099 l 5
 1089 848 1120 608 1146 362 c 5
EndSplineSet
Validated: 1
Substitution2: "'init' Initial Forms in Arabic lookup 1 subtable" g.kaf.init.ar
Substitution2: "'fina' Terminal Forms in Arabic lookup 3 subtable" g.kaf.fina.ar
Substitution2: "'medi' Medial Forms in Arabic lookup 2 subtable" g.kaf.medi.ar
EndChar

StartChar: c.lam
Encoding: 70 1604 69
Width: 1001
GlyphClass: 2
Flags: HMW
AnchorPoint: "Anchor-11" 200 1200 basechar 0
AnchorPoint: "Anchor-10" 0 1650 basechar 0
AnchorPoint: "Anchor-9" 550 -400 basechar 0
AnchorPoint: "Anchor-8" 594 1597 basechar 0
AnchorPoint: "Anchor-7" 480 1230 basechar 0
AnchorPoint: "Anchor-6" 450 1230 basechar 0
AnchorPoint: "Anchor-5" 725 1600 basechar 0
LayerCount: 2
Fore
SplineSet
825 1095 m 1
 845 913 899 299 899 154 c 0
 899 132 898 114 897 101 c 0
 897 -24 820 -124 743 -182 c 0
 662 -241 549 -284 421 -284 c 0
 219 -284 81 -178 81 19 c 0
 81 46 84 74 90 104 c 0
 97 140 180 369 214 369 c 0
 215 369 216 368 217 368 c 0
 221 366 224 361 224 354 c 0
 224 347 221 336 217 324 c 0
 194 271 160 200 160 119 c 0
 160 92 164 68 173 47 c 0
 209 -36 301 -104 423 -106 c 0
 431 -106 438 -107 446 -107 c 0
 575 -107 666 -62 746 7 c 0
 796 49 821 80 821 100 c 0
 821 211 772 550 696 1113 c 0
 689 1157 680 1197 669 1233 c 0
 665 1243 663 1254 663 1265 c 0
 663 1275 665 1285 668 1296 c 0
 673 1318 687 1348 709 1386 c 0
 744 1442 766 1470 776 1470 c 0
 777 1470 777 1469 778 1469 c 2
 779 1469 l 2
 788 1469 797 1418 807 1315 c 0
 807 1306 812 1294 822 1280 c 0
 835 1265 857 1240 888 1204 c 1
 885 1197 864 1161 825 1095 c 1
EndSplineSet
Validated: 1
Substitution2: "'init' Initial Forms in Arabic lookup 1 subtable" g.lam.init
Substitution2: "'fina' Terminal Forms in Arabic lookup 3 subtable" g.lam.fina
Substitution2: "'medi' Medial Forms in Arabic lookup 2 subtable" g.lam.medi
EndChar

StartChar: c.mim
Encoding: 71 1605 70
Width: 793
GlyphClass: 2
Flags: HMW
AnchorPoint: "Cursive-83" 800 0 entry 0
AnchorPoint: "Anchor-11" 250 1100 basechar 0
AnchorPoint: "Anchor-10" 100 1600 basechar 0
AnchorPoint: "Anchor-9" 494 -205 basechar 0
AnchorPoint: "Anchor-8" 350 900 basechar 0
AnchorPoint: "Anchor-7" 330 960 basechar 0
AnchorPoint: "Anchor-6" 240 810 basechar 0
AnchorPoint: "Anchor-5" 350 975 basechar 0
LayerCount: 2
Fore
SplineSet
715 435 m 1
 715 433 l 2
 715 428 712 419 706 407 c 0
 700 393 677 347 637 269 c 0
 634 264 631 262 626 261 c 0
 555 252 464 234 376 217 c 0
 236 189 165 155 165 113 c 2
 165 112 l 1
 228 -357 259 -639 259 -735 c 2
 259 -746 l 2
 259 -795 259 -823 244 -860 c 0
 230 -897 218 -916 206 -916 c 2
 204 -916 l 1
 196 -915 189 -899 184 -866 c 0
 163 -719 90 -129 75 9 c 1
 75 180 122 267 224 351 c 0
 251 374 306 402 387 435 c 1
 367 457 326 490 287 490 c 0
 246 490 225 459 207 425 c 0
 194 400 186 388 184 388 c 0
 177 388 173 396 173 412 c 0
 173 447 188 502 219 577 c 0
 240 629 266 669 299 696 c 0
 322 713 344 722 366 722 c 2
 371 722 l 2
 384 722 397 718 409 712 c 0
 448 693 504 651 576 588 c 0
 665 511 712 460 715 435 c 1
EndSplineSet
Validated: 1
Substitution2: "'init' Initial Forms in Arabic lookup 1 subtable" g.mim.init
Substitution2: "Single Substitution lookup 53 subtable" c.alef.calt
Substitution2: "'fina' Terminal Forms in Arabic lookup 3 subtable" g.mim.fina
Substitution2: "'medi' Medial Forms in Arabic lookup 2 subtable" g.mim.medi
EndChar

StartChar: c.nun
Encoding: 72 1606 71
Width: 1089
GlyphClass: 2
Flags: HMW
AnchorPoint: "Anchor-11" 350 1200 basechar 0
AnchorPoint: "Anchor-10" 300 1650 basechar 0
AnchorPoint: "Anchor-9" 575 -425 basechar 0
AnchorPoint: "Anchor-8" 500 1100 basechar 0
AnchorPoint: "Anchor-7" 495 1215 basechar 0
AnchorPoint: "Anchor-6" 405 1065 basechar 0
AnchorPoint: "Anchor-5" 400 1125 basechar 0
LayerCount: 2
Fore
SplineSet
760 540 m 0
 760 565 780 617 821 697 c 0
 824 704 830 708 837 708 c 0
 844 708 852 701 860 687 c 0
 900 622 931 555 954 487 c 0
 993 369 1013 271 1013 194 c 2
 1013 184 l 2
 1013 24 961 -80 867 -148 c 0
 799 -196 726 -230 647 -249 c 0
 603 -260 556 -266 505 -266 c 0
 306 -266 186 -195 132 -51 c 0
 121 -20 116 14 116 52 c 2
 116 84 l 1
 125 159 140 212 177 284 c 0
 219 366 247 407 264 407 c 2
 266 407 l 1
 271 405 273 401 273 394 c 0
 273 383 268 369 258 352 c 0
 228 298 198 234 198 154 c 0
 198 7 317 -82 465 -82 c 0
 631 -82 750 -42 850 30 c 0
 886 57 931 97 931 156 c 0
 931 184 918 226 890 282 c 0
 858 351 828 405 800 444 c 0
 774 484 760 516 760 540 c 0
EndSplineSet
Refer: 270 -1 S 1 0 0 1 331 732 0
Validated: 1
Substitution2: "'init' Initial Forms in Arabic lookup 1 subtable" g.nun.init
Substitution2: "'fina' Terminal Forms in Arabic lookup 3 subtable" g.nun.fina
Substitution2: "'medi' Medial Forms in Arabic lookup 2 subtable" g.nun.medi
EndChar

StartChar: c.he8
Encoding: 73 1607 72
Width: 662
GlyphClass: 2
Flags: HMW
AnchorPoint: "Cursive-83" 700 0 entry 0
AnchorPoint: "Anchor-11" 100 1100 basechar 0
AnchorPoint: "Anchor-10" 200 1550 basechar 0
AnchorPoint: "Anchor-9" 225 -150 basechar 0
AnchorPoint: "Anchor-8" 200 875 basechar 0
AnchorPoint: "Anchor-7" 195 855 basechar 0
AnchorPoint: "Anchor-6" 195 705 basechar 0
AnchorPoint: "Anchor-5" 300 1000 basechar 0
LayerCount: 2
Fore
SplineSet
255 -1 m 0
 164 -1 92 50 89 143 c 0
 89 148 88 154 88 159 c 0
 88 193 97 229 113 268 c 0
 148 342 182 415 219 487 c 1
 209 492 205 499 208 507 c 0
 226 548 250 593 279 644 c 0
 286 654 293 659 302 658 c 0
 309 658 322 653 339 642 c 0
 454 566 582 498 582 329 c 0
 582 249 525 146 473 90 c 1
 421 41 348 -1 255 -1 c 0
213 274 m 0
 217 232 252 208 298 203 c 1
 365 203 426 235 447 279 c 0
 448 281 448 284 448 287 c 0
 448 303 436 321 411 342 c 0
 383 367 340 401 282 442 c 1
 246 371 l 1
 224 317 213 285 213 274 c 0
EndSplineSet
Validated: 1
Substitution2: "'init' Initial Forms in Arabic lookup 1 subtable" g.he8.init
Substitution2: "Single Substitution lookup 54 subtable" c.he8.zz28
Substitution2: "'fina' Terminal Forms in Arabic lookup 3 subtable" g.he8.fina
Substitution2: "'medi' Medial Forms in Arabic lookup 2 subtable" g.he8.medi
EndChar

StartChar: c.vav
Encoding: 74 1608 73
Width: 790
GlyphClass: 2
Flags: HMW
AnchorPoint: "Cursive-84" 800 0 entry 0
AnchorPoint: "Cursive-83" -100 0 exit 0
AnchorPoint: "Cursive-83" 950 0 entry 0
AnchorPoint: "Anchor-11" 200 1100 basechar 0
AnchorPoint: "Anchor-10" -50 1650 basechar 0
AnchorPoint: "Anchor-9" 325 -650 basechar 0
AnchorPoint: "Anchor-8" 350 850 basechar 0
AnchorPoint: "Anchor-7" 405 800 basechar 0
AnchorPoint: "Anchor-6" 345 750 basechar 0
AnchorPoint: "Anchor-5" 400 850 basechar 0
LayerCount: 2
Fore
SplineSet
447 19 m 5
 345 19 273 84 273 199 c 6
 273 211 l 6
 273 302 324 408 368 459 c 4
 403 503 438 525 472 525 c 4
 476 525 480 525 484 524 c 4
 535 514 583 467 630 382 c 4
 663 317 686 247 699 172 c 5
 703 112 l 5
 703 -10 663 -90 616 -188 c 4
 556 -309 476 -416 368 -490 c 5
 304 -526 245 -531 142 -531 c 4
 43 -531 -37 -515 -123 -498 c 4
 -161 -490 -266 -469 -266 -449 c 4
 -266 -441 -245 -438 -214 -438 c 6
 -199 -438 l 5
 -157 -440 -116 -441 -75 -441 c 5
 11 -437 l 5
 202 -418 335 -326 429 -213 c 4
 478 -154 526 -84 572 -5 c 4
 586 21 605 57 608 87 c 5
 596 75 581 69 560 56 c 4
 533 38 484 23 447 19 c 5
399 237 m 4
 399 217 414 197 444 197 c 4
 469 197 500 211 538 240 c 5
 535 250 524 268 507 295 c 4
 487 320 469 333 455 333 c 6
 451 333 l 5
 424 325 399 274 399 237 c 4
EndSplineSet
Validated: 1
Substitution2: "Single Substitution lookup 38 subtable" c.vav.zz09
Substitution2: "Single Substitution lookup 37 subtable" c.vav.calt
Substitution2: "'fina' Terminal Forms in Arabic lookup 3 subtable" g.vav.fina
EndChar

StartChar: c.yeh_maksure
Encoding: 75 1609 74
Width: 1443
GlyphClass: 2
Flags: HMW
AnchorPoint: "Anchor-11" 430 1120 basechar 0
AnchorPoint: "Anchor-10" 330 1370 basechar 0
AnchorPoint: "Anchor-9" 755 -555 basechar 0
AnchorPoint: "Anchor-8" 580 620 basechar 0
AnchorPoint: "Anchor-7" 555 420 basechar 0
AnchorPoint: "Anchor-6" 480 420 basechar 0
AnchorPoint: "Anchor-5" 605 695 basechar 0
LayerCount: 2
Fore
SplineSet
271 326 m 4
 281 326 286 313 286 306 c 4
 286 297 280 284 269 268 c 4
 237 225 212 183 194 141 c 4
 181 110 174 79 174 47 c 4
 174 -38 214 -102 263 -144 c 4
 336 -211 470 -244 612 -244 c 4
 722 -244 822 -211 908 -180 c 4
 968 -157 1048 -118 1098 -88 c 4
 1121 -75 1138 -62 1149 -50 c 5
 1020 -50 932 -37 830 -10 c 4
 781 3 745 21 724 43 c 4
 709 58 701 80 701 107 c 4
 701 330 1048 714 1205 751 c 4
 1215 753 1225 754 1234 754 c 4
 1300 754 1360 705 1363 642 c 5
 1346 579 1332 535 1321 508 c 4
 1318 500 1314 496 1309 496 c 4
 1307 496 1303 498 1298 501 c 4
 1249 544 1217 566 1201 566 c 4
 1166 566 1111 528 1027 459 c 4
 977 417 927 367 878 310 c 4
 840 261 821 225 821 204 c 4
 824 179 859 158 926 141 c 4
 980 128 1062 116 1172 104 c 5
 1228 104 1258 90 1258 36 c 4
 1258 -30 1245 -96 1212 -144 c 4
 1181 -192 1122 -238 1034 -284 c 4
 901 -351 836 -376 706 -402 c 4
 670 -408 635 -411 600 -411 c 4
 497 -411 463 -410 383 -390 c 4
 226 -349 107 -259 82 -98 c 5
 80 -48 l 5
 80 68 114 133 173 215 c 4
 223 289 255 326 271 326 c 4
EndSplineSet
Validated: 1
Substitution2: "'init' Initial Forms in Arabic lookup 1 subtable" uniFBE8
Substitution2: "'medi' Medial Forms in Arabic lookup 2 subtable" uniFBE9
Substitution2: "'fina' Terminal Forms in Arabic lookup 3 subtable" g.yeh_maksure.fina
EndChar

StartChar: m.tanvin_nasb
Encoding: 77 1611 76
Width: 0
GlyphClass: 4
Flags: HMW
AnchorPoint: "Anchor-86" 225 0 mark 0
AnchorPoint: "Anchor-79" 225 0 mark 0
AnchorPoint: "Anchor-73" 225 0 mark 0
AnchorPoint: "Anchor-69" 225 0 mark 0
AnchorPoint: "Anchor-65" 225 0 mark 0
AnchorPoint: "Anchor-58" 225 0 mark 0
AnchorPoint: "Anchor-51" 225 0 mark 0
AnchorPoint: "Anchor-45" 225 0 mark 0
AnchorPoint: "Anchor-38" 225 0 mark 0
AnchorPoint: "Anchor-31" 225 0 mark 0
AnchorPoint: "Anchor-24" 225 0 mark 0
AnchorPoint: "Anchor-17" 225 0 mark 0
AnchorPoint: "Anchor-12" 225 0 mark 0
AnchorPoint: "Anchor-5" 225 0 mark 0
AnchorPoint: "Anchor-2" 225 0 mark 0
LayerCount: 2
Fore
SplineSet
23 190 m 0
 21 189 18 189 17 189 c 0
 14 189 12 191 12 194 c 0
 12 208 34 242 38 248 c 128
 49 266 60 283 71 298 c 128
 74 302 78 304 82 305 c 2
 453 473 l 2
 454 473 455 474 456 474 c 0
 459 474 460 472 460 468 c 0
 460 439 417 375 406 368 c 0
 277 312 145 255 23 190 c 0
13 3 m 1
 11 3 l 2
 9 3 8 4 8 7 c 0
 8 28 57 114 72 118 c 1
 443 286 l 2
 444 286 445 287 446 287 c 0
 449 287 450 285 450 281 c 0
 450 261 411 193 406 188 c 128
 404 186 401 184 396 181 c 0
 267 125 135 68 13 3 c 1
EndSplineSet
Validated: 1
EndChar

StartChar: m.tanvin_jar
Encoding: 78 1612 77
Width: 0
GlyphClass: 4
Flags: HMW
AnchorPoint: "Anchor-86" 225 25 mark 0
AnchorPoint: "Anchor-79" 225 25 mark 0
AnchorPoint: "Anchor-73" 225 25 mark 0
AnchorPoint: "Anchor-69" 225 25 mark 0
AnchorPoint: "Anchor-65" 225 25 mark 0
AnchorPoint: "Anchor-58" 225 25 mark 0
AnchorPoint: "Anchor-51" 225 25 mark 0
AnchorPoint: "Anchor-45" 225 25 mark 0
AnchorPoint: "Anchor-38" 225 25 mark 0
AnchorPoint: "Anchor-31" 225 25 mark 0
AnchorPoint: "Anchor-24" 225 25 mark 0
AnchorPoint: "Anchor-17" 225 25 mark 0
AnchorPoint: "Anchor-12" 225 25 mark 0
AnchorPoint: "Anchor-5" 225 25 mark 0
AnchorPoint: "Anchor-2" 225 0 mark 0
LayerCount: 2
Fore
SplineSet
489 554 m 0
 489 531 479 462 456 462 c 128
 451 462 457 488 456 496 c 128
 450 552 420 590 358 590 c 128
 227 590 153 506 103 424 c 132
 85 394 75 363 75 331 c 4
 75 326 76 322 76 317 c 4
 81 290 103 276 119 260 c 0
 122 256 124 252 124 248 c 128
 124 244 123 239 122 235 c 2
 116 215 l 130
 110 195 106 181 86 194 c 0
 57 216 21 254 21 306 c 2
 21 311 l 1
 26 406 81 490 132 548 c 128
 184 606 259 664 363 664 c 0
 437 664 489 625 489 554 c 0
421 235 m 0
 421 217 413 181 395 181 c 128
 385 181 377 196 370 201 c 128
 366 204 363 207 361 209 c 1
 282 116 178 49 50 6 c 128
 40 3 23 0 11 0 c 128
 0 0 -15 5 -6 14 c 128
 17 37 58 56 89 74 c 128
 161 116 235 165 293 223 c 1
 256 233 215 259 191 285 c 0
 182 295 179 307 179 318 c 0
 179 345 197 372 208 391 c 128
 233 433 270 485 334 485 c 0
 385 485 396 427 396 375 c 0
 396 349 392 303 387 287 c 0
 387 282 410 270 412 267 c 128
 418 259 421 247 421 235 c 0
345 338 m 128
 345 366 340 397 312 397 c 2
 308 397 l 129
 282 394 247 380 238 362 c 1
 260 332 301 309 338 299 c 1
 340 299 l 1
 344 303 345 327 345 338 c 128
EndSplineSet
Validated: 1
EndChar

StartChar: m.tanvin_rafe
Encoding: 79 1613 78
Width: 0
GlyphClass: 4
Flags: HMW
AnchorPoint: "Anchor-81" 225 0 mark 0
AnchorPoint: "Anchor-76" 225 0 mark 0
AnchorPoint: "Anchor-72" 225 0 mark 0
AnchorPoint: "Anchor-68" 225 0 mark 0
AnchorPoint: "Anchor-62" 225 0 mark 0
AnchorPoint: "Anchor-55" 225 0 mark 0
AnchorPoint: "Anchor-48" 225 0 mark 0
AnchorPoint: "Anchor-42" 225 0 mark 0
AnchorPoint: "Anchor-35" 225 0 mark 0
AnchorPoint: "Anchor-28" 225 0 mark 0
AnchorPoint: "Anchor-21" 225 0 mark 0
AnchorPoint: "Anchor-16" 225 0 mark 0
AnchorPoint: "Anchor-9" 225 0 mark 0
AnchorPoint: "Anchor-4" 225 0 mark 0
LayerCount: 2
Fore
SplineSet
7 -227 m 0
 -3 -230 -6 -226 -1 -217 c 2
 40 -141 l 1
 55 -119 87 -115 122 -104 c 128
 219 -73 330 -38 429 -6 c 0
 441 -2 441 -6 437 -14 c 2
 393 -94 l 1
 389 -99 387 -102 380 -104 c 0
 255 -144 133 -187 7 -227 c 0
-13 -412 m 0
 -23 -415 -26 -411 -21 -402 c 2
 20 -326 l 1
 35 -304 67 -299 102 -288 c 128
 199 -257 311 -223 409 -191 c 0
 420 -187 422 -190 417 -199 c 2
 373 -279 l 2
 369 -285 368 -286 360 -289 c 0
 234 -327 112 -372 -13 -412 c 0
EndSplineSet
Validated: 1
EndChar

StartChar: m.fatheh
Encoding: 80 1614 79
Width: 0
GlyphClass: 4
Flags: HW
AnchorPoint: "Anchor-89" 0 0 basemark 0
AnchorPoint: "Anchor-88" 0 0 basemark 0
AnchorPoint: "Anchor-87" 0 0 basemark 0
AnchorPoint: "Anchor-86" 135 250 basemark 0
AnchorPoint: "Anchor-86" 225 0 mark 0
AnchorPoint: "Anchor-79" 225 0 mark 0
AnchorPoint: "Anchor-73" 225 0 mark 0
AnchorPoint: "Anchor-69" 225 0 mark 0
AnchorPoint: "Anchor-65" 225 0 mark 0
AnchorPoint: "Anchor-58" 225 0 mark 0
AnchorPoint: "Anchor-51" 225 0 mark 0
AnchorPoint: "Anchor-45" 225 0 mark 0
AnchorPoint: "Anchor-38" 225 0 mark 0
AnchorPoint: "Anchor-31" 225 0 mark 0
AnchorPoint: "Anchor-24" 225 0 mark 0
AnchorPoint: "Anchor-17" 225 0 mark 0
AnchorPoint: "Anchor-12" 225 0 mark 0
AnchorPoint: "Anchor-5" 225 0 mark 0
AnchorPoint: "Anchor-2" 225 0 mark 0
AnchorPoint: "Anchor-0" 225 0 mark 0
LayerCount: 2
Fore
SplineSet
391 174 m 0
 267 118 135 55 11 2 c 0
 2 -2 -3 2 1 11 c 2
 50 109 l 1
 56 118 63 122 71 127 c 1
 436 289 l 2
 447 294 450 291 446 281 c 2
 405 188 l 2
 403 182 398 177 391 174 c 0
EndSplineSet
Validated: 1
EndChar

StartChar: m.zameh
Encoding: 81 1615 80
Width: 0
GlyphClass: 4
Flags: HMW
AnchorPoint: "Anchor-89" 0 0 basemark 0
AnchorPoint: "Anchor-88" 0 0 basemark 0
AnchorPoint: "Anchor-87" 0 0 basemark 0
AnchorPoint: "Anchor-86" 50 250 basemark 0
AnchorPoint: "Anchor-86" 225 10 mark 0
AnchorPoint: "Anchor-79" 225 10 mark 0
AnchorPoint: "Anchor-73" 225 10 mark 0
AnchorPoint: "Anchor-69" 225 10 mark 0
AnchorPoint: "Anchor-65" 225 10 mark 0
AnchorPoint: "Anchor-58" 225 10 mark 0
AnchorPoint: "Anchor-51" 225 10 mark 0
AnchorPoint: "Anchor-45" 225 10 mark 0
AnchorPoint: "Anchor-38" 225 10 mark 0
AnchorPoint: "Anchor-31" 225 10 mark 0
AnchorPoint: "Anchor-24" 225 10 mark 0
AnchorPoint: "Anchor-17" 225 10 mark 0
AnchorPoint: "Anchor-12" 225 10 mark 0
AnchorPoint: "Anchor-5" 292 -10 mark 0
AnchorPoint: "Anchor-2" 225 0 mark 0
LayerCount: 2
Fore
SplineSet
313 504 m 4
 370 504 381 432 381 372 c 4
 381 345 375 305 374 289 c 4
 374 279 391 272 394 268 c 132
 401 259 404 244 404 230 c 4
 404 210 395 176 377 176 c 132
 370 176 360 192 356 198 c 132
 353 202 348 204 342 207 c 5
 269 118 182 45 59 7 c 4
 52 5 30 0 16 -0 c 4
 8 0 3 2 3 6 c 4
 3 9 6 13 11 18 c 132
 34 41 71 56 98 73 c 132
 166 115 227 161 279 221 c 5
 242 231 195 262 174 289 c 4
 165 299 162 311 162 324 c 4
 162 352 178 382 188 402 c 132
 208 439 234 469 268 490 c 132
 282 499 298 504 313 504 c 4
328 352 m 132
 328 381 318 408 288 408 c 132
 264 408 224 392 221 371 c 5
 244 339 284 313 324 303 c 5
 326 303 l 5
 326 316 328 337 328 352 c 132
EndSplineSet
Validated: 1
EndChar

StartChar: m.kasreh
Encoding: 82 1616 81
Width: 0
GlyphClass: 4
Flags: HMW
AnchorPoint: "Anchor-81" 350 -140 mark 0
AnchorPoint: "Anchor-76" 350 -140 mark 0
AnchorPoint: "Anchor-72" 350 -140 mark 0
AnchorPoint: "Anchor-68" 350 -140 mark 0
AnchorPoint: "Anchor-62" 350 -140 mark 0
AnchorPoint: "Anchor-55" 350 -140 mark 0
AnchorPoint: "Anchor-48" 350 -140 mark 0
AnchorPoint: "Anchor-42" 350 -140 mark 0
AnchorPoint: "Anchor-35" 350 -140 mark 0
AnchorPoint: "Anchor-28" 350 -140 mark 0
AnchorPoint: "Anchor-21" 350 -140 mark 0
AnchorPoint: "Anchor-16" 350 -140 mark 0
AnchorPoint: "Anchor-9" 329 -140 mark 0
AnchorPoint: "Anchor-4" 350 -140 mark 0
LayerCount: 2
Fore
SplineSet
508 -254 m 0
 383 -294 254 -337 133 -377 c 0
 122 -380 120 -377 125 -367 c 2
 166 -291 l 2
 169 -284 172 -279 180 -277 c 0
 294 -232 434 -193 555 -156 c 0
 565 -152 570 -153 563 -164 c 2
 520 -242 l 2
 517 -247 514 -252 508 -254 c 0
EndSplineSet
Validated: 1
EndChar

StartChar: m.tashdid
Encoding: 83 1617 82
Width: 0
GlyphClass: 4
Flags: HMW
AnchorPoint: "Anchor-89" 0 0 basemark 0
AnchorPoint: "Anchor-88" 0 275 basemark 0
AnchorPoint: "Anchor-87" 250 320 basemark 0
AnchorPoint: "Anchor-86" 200 300 basemark 0
AnchorPoint: "Anchor-79" 215 -25 mark 0
AnchorPoint: "Anchor-73" 215 -25 mark 0
AnchorPoint: "Anchor-69" 215 -25 mark 0
AnchorPoint: "Anchor-65" 215 -25 mark 0
AnchorPoint: "Anchor-58" 215 -25 mark 0
AnchorPoint: "Anchor-51" 215 -25 mark 0
AnchorPoint: "Anchor-45" 215 -25 mark 0
AnchorPoint: "Anchor-38" 215 -25 mark 0
AnchorPoint: "Anchor-31" 215 -25 mark 0
AnchorPoint: "Anchor-24" 215 -25 mark 0
AnchorPoint: "Anchor-17" 215 -25 mark 0
AnchorPoint: "Anchor-12" 215 -25 mark 0
AnchorPoint: "Anchor-5" 215 -25 mark 0
AnchorPoint: "Anchor-2" 210 -50 mark 0
AnchorPoint: "Anchor-0" 210 -50 mark 0
LayerCount: 2
Fore
SplineSet
415 220 m 0
 415 125 381 43 288 43 c 0
 252 43 227 62 211 85 c 1
 185 36 155 -3 90 -5 c 1
 85 -5 l 2
 35 -5 2 31 2 84 c 0
 2 132 24 194 59 206 c 1
 60 206 l 2
 63 206 64 204 64 201 c 0
 64 191 53 169 52 162 c 0
 50 152 48 142 48 132 c 0
 48 99 64 78 95 78 c 0
 164 78 207 140 213 204 c 0
 215 221 221 243 240 243 c 0
 246 243 248 219 248 212 c 2
 248 202 l 2
 248 159 265 133 302 133 c 0
 324 133 370 143 370 165 c 0
 370 180 363 213 354 222 c 1
 391 292 l 1
 409 284 415 253 415 220 c 0
EndSplineSet
Validated: 1
EndChar

StartChar: m.sokon
Encoding: 84 1618 83
Width: 0
GlyphClass: 4
Flags: HMW
AnchorPoint: "Anchor-79" 275 -75 mark 0
AnchorPoint: "Anchor-73" 275 -75 mark 0
AnchorPoint: "Anchor-69" 275 -75 mark 0
AnchorPoint: "Anchor-65" 275 -75 mark 0
AnchorPoint: "Anchor-58" 275 -75 mark 0
AnchorPoint: "Anchor-51" 275 -75 mark 0
AnchorPoint: "Anchor-45" 275 -75 mark 0
AnchorPoint: "Anchor-38" 275 -75 mark 0
AnchorPoint: "Anchor-31" 275 -75 mark 0
AnchorPoint: "Anchor-24" 275 -75 mark 0
AnchorPoint: "Anchor-17" 275 -75 mark 0
AnchorPoint: "Anchor-12" 275 -75 mark 0
AnchorPoint: "Anchor-5" 275 -75 mark 0
AnchorPoint: "Anchor-2" 225 0 mark 0
LayerCount: 2
Fore
SplineSet
188 0 m 0
 135 0 98 30 94 83 c 1
 94 93 l 2
 94 112 99 133 108 154 c 0
 128 196 148 239 168 281 c 1
 163 284 161 287 163 292 c 0
 174 315 187 342 203 372 c 0
 206 377 211 380 216 380 c 0
 221 380 228 377 238 370 c 0
 305 327 377 287 377 190 c 0
 377 102 297 6 208 2 c 0
 205 1 198 1 188 0 c 0
165 160 m 0
 165 134 186 121 214 118 c 0
 252 118 288 135 299 161 c 0
 302 170 296 182 280 198 c 0
 263 212 238 232 205 255 c 1
 184 215 l 1
 171 184 165 166 165 160 c 0
EndSplineSet
Validated: 1
EndChar

StartChar: m.mad
Encoding: 85 1619 84
Width: 0
GlyphClass: 4
Flags: HMW
AnchorPoint: "Anchor-79" 275 0 mark 0
AnchorPoint: "Anchor-73" 275 0 mark 0
AnchorPoint: "Anchor-69" 275 0 mark 0
AnchorPoint: "Anchor-65" 275 0 mark 0
AnchorPoint: "Anchor-58" 275 0 mark 0
AnchorPoint: "Anchor-51" 275 0 mark 0
AnchorPoint: "Anchor-45" 275 0 mark 0
AnchorPoint: "Anchor-38" 275 0 mark 0
AnchorPoint: "Anchor-31" 275 0 mark 0
AnchorPoint: "Anchor-24" 275 0 mark 0
AnchorPoint: "Anchor-17" 275 0 mark 0
AnchorPoint: "Anchor-12" 275 0 mark 0
AnchorPoint: "Anchor-5" 275 0 mark 0
AnchorPoint: "Anchor-2" 225 0 mark 0
LayerCount: 2
Fore
SplineSet
79 94 m 4
 47 94 -14 39 -39 18 c 4
 -41 18 -43 20 -43 22 c 4
 -43 31 -30 52 -18 72 c 5
 14 117 l 5
 55 171 89 197 116 197 c 4
 125 197 132 194 139 191 c 4
 188 165 229 147 261 137 c 4
 285 131 308 128 332 128 c 4
 349 128 365 130 382 133 c 4
 421 139 475 167 546 214 c 4
 554 220 559 222 562 222 c 4
 564 222 567 221 567 217 c 6
 567 216 l 6
 567 207 557 190 538 167 c 4
 488 104 395 21 292 21 c 4
 228 21 135 72 91 92 c 4
 87 93 83 94 79 94 c 4
EndSplineSet
Validated: 1
EndChar

StartChar: m.hamze.up
Encoding: 86 1620 85
Width: 0
GlyphClass: 4
UnlinkRmOvrlpSave: 1
Flags: HMW
AnchorPoint: "Anchor-89" 0 0 basemark 0
AnchorPoint: "Anchor-88" 100 1000 basemark 0
AnchorPoint: "Anchor-87" 375 1025 basemark 0
AnchorPoint: "Anchor-86" 300 925 basemark 0
AnchorPoint: "Anchor-79" 340 450 mark 0
AnchorPoint: "Anchor-73" 340 450 mark 0
AnchorPoint: "Anchor-69" 340 450 mark 0
AnchorPoint: "Anchor-65" 340 450 mark 0
AnchorPoint: "Anchor-58" 340 450 mark 0
AnchorPoint: "Anchor-51" 340 450 mark 0
AnchorPoint: "Anchor-45" 340 450 mark 0
AnchorPoint: "Anchor-38" 340 450 mark 0
AnchorPoint: "Anchor-31" 340 450 mark 0
AnchorPoint: "Anchor-24" 340 450 mark 0
AnchorPoint: "Anchor-17" 340 450 mark 0
AnchorPoint: "Anchor-12" 340 450 mark 0
AnchorPoint: "Anchor-5" 340 450 mark 0
AnchorPoint: "Anchor-2" 225 205 mark 0
LayerCount: 2
Fore
SplineSet
326 790 m 4
 348 790 382 767 384 749 c 4
 384 736 375 727 361 707 c 4
 349 689 342 682 340 687 c 4
 329 703 314 712 298 712 c 4
 278 712 250 692 250 666 c 4
 254 640 278 631 306 631 c 4
 329 631 354 637 375 643 c 5
 457 672 l 6
 476 679 487 683 490 681 c 4
 493 681 492 667 487 641 c 4
 483 615 474 601 459 598 c 4
 371 571 324 546 255 497 c 4
 232 482 219 474 214 474 c 4
 198 469 215 516 217 521 c 4
 220 529 224 534 227 539 c 5
 203 554 180 564 180 598 c 6
 180 606 l 5
 188 669 231 748 295 783 c 4
 306 787 317 790 326 790 c 4
EndSplineSet
EndChar

StartChar: m.hamze.dn
Encoding: 87 1621 86
Width: 0
GlyphClass: 4
Flags: HMW
AnchorPoint: "Anchor-81" 225 0 mark 0
AnchorPoint: "Anchor-76" 225 0 mark 0
AnchorPoint: "Anchor-72" 225 0 mark 0
AnchorPoint: "Anchor-68" 225 0 mark 0
AnchorPoint: "Anchor-62" 225 0 mark 0
AnchorPoint: "Anchor-55" 225 0 mark 0
AnchorPoint: "Anchor-48" 225 0 mark 0
AnchorPoint: "Anchor-42" 225 0 mark 0
AnchorPoint: "Anchor-35" 225 0 mark 0
AnchorPoint: "Anchor-28" 225 0 mark 0
AnchorPoint: "Anchor-21" 225 0 mark 0
AnchorPoint: "Anchor-16" 225 0 mark 0
AnchorPoint: "Anchor-9" 225 0 mark 0
AnchorPoint: "Anchor-4" 225 0 mark 0
LayerCount: 2
Fore
SplineSet
210 -52 m 0
 232 -52 266 -75 268 -93 c 0
 268 -106 259 -115 245 -135 c 0
 233 -153 226 -160 224 -155 c 0
 213 -139 198 -130 182 -130 c 0
 162 -130 134 -150 134 -176 c 0
 138 -202 162 -211 190 -211 c 0
 213 -211 238 -205 259 -199 c 1
 341 -170 l 2
 360 -163 371 -159 374 -161 c 0
 377 -161 376 -175 371 -201 c 0
 367 -227 358 -241 343 -244 c 0
 255 -271 208 -296 139 -345 c 0
 116 -360 103 -368 98 -368 c 0
 82 -373 99 -326 101 -321 c 0
 104 -313 108 -308 111 -303 c 1
 87 -288 64 -278 64 -244 c 2
 64 -236 l 1
 72 -173 115 -94 179 -59 c 0
 190 -55 201 -52 210 -52 c 0
EndSplineSet
Validated: 1
EndChar

StartChar: m.alef.dn
Encoding: 88 1622 87
Width: 0
GlyphClass: 4
Flags: HMW
AnchorPoint: "Anchor-81" 350 0 mark 0
AnchorPoint: "Anchor-76" 350 0 mark 0
AnchorPoint: "Anchor-72" 350 0 mark 0
AnchorPoint: "Anchor-68" 350 0 mark 0
AnchorPoint: "Anchor-62" 350 0 mark 0
AnchorPoint: "Anchor-55" 350 0 mark 0
AnchorPoint: "Anchor-48" 350 0 mark 0
AnchorPoint: "Anchor-42" 350 0 mark 0
AnchorPoint: "Anchor-35" 350 0 mark 0
AnchorPoint: "Anchor-28" 350 0 mark 0
AnchorPoint: "Anchor-21" 350 0 mark 0
AnchorPoint: "Anchor-16" 350 0 mark 0
AnchorPoint: "Anchor-9" 350 0 mark 0
AnchorPoint: "Anchor-4" 350 0 mark 0
LayerCount: 2
Fore
SplineSet
541 -95 m 6
 166 -203 l 6
 159 -205 157 -203 158 -196 c 5
 201 -129 l 6
 206 -122 213 -117 220 -115 c 6
 583 -14 l 6
 590 -12 597 -13 595 -20 c 5
 556 -85 l 5
 555 -89 550 -92 541 -95 c 6
359 -326 m 6
 -15 -439 l 6
 -22 -441 -24 -439 -23 -432 c 5
 19 -364 l 6
 24 -357 31 -352 38 -350 c 6
 400 -244 l 6
 407 -242 414 -243 412 -250 c 5
 374 -316 l 5
 373 -320 368 -323 359 -326 c 6
EndSplineSet
Validated: 1
EndChar

StartChar: uni0657
Encoding: 89 1623 88
Width: 0
GlyphClass: 4
Flags: HMW
AnchorPoint: "Anchor-88" -50 -50 mark 0
AnchorPoint: "Anchor-75" 125 -30 mark 0
AnchorPoint: "Anchor-71" 125 -30 mark 0
AnchorPoint: "Anchor-67" 125 -30 mark 0
AnchorPoint: "Anchor-61" 125 -30 mark 0
AnchorPoint: "Anchor-54" 125 -30 mark 0
AnchorPoint: "Anchor-47" 125 -30 mark 0
AnchorPoint: "Anchor-41" 125 -30 mark 0
AnchorPoint: "Anchor-34" 125 -30 mark 0
AnchorPoint: "Anchor-27" 125 -30 mark 0
AnchorPoint: "Anchor-20" 125 -30 mark 0
AnchorPoint: "Anchor-15" 125 -30 mark 0
AnchorPoint: "Anchor-8" 125 -30 mark 0
LayerCount: 2
Fore
SplineSet
386 128 m 6
 15 3 l 6
 8 0 6 3 7 11 c 5
 50 86 l 6
 55 94 61 99 68 102 c 6
 427 219 l 6
 434 221 441 222 439 212 c 5
 401 139 l 5
 400 134 395 131 386 128 c 6
125 262 m 6
 -246 137 l 6
 -253 134 -255 137 -254 145 c 5
 -212 220 l 6
 -207 228 -200 233 -193 236 c 6
 166 353 l 6
 173 355 180 356 178 346 c 5
 139 273 l 5
 138 268 133 265 125 262 c 6
EndSplineSet
Validated: 1
EndChar

StartChar: uni065C
Encoding: 94 1628 93
Width: 385
GlyphClass: 2
Flags: HMW
LayerCount: 2
Fore
SplineSet
195 -346 m 256
 123 -346 70 -292 70 -220 c 0
 70 -149 124 -95 195 -95 c 256
 266 -95 321 -149 321 -220 c 0
 321 -292 267 -346 195 -346 c 256
EndSplineSet
Validated: 1
EndChar

StartChar: uni065E
Encoding: 96 1630 95
Width: 0
GlyphClass: 4
Flags: HMW
AnchorPoint: "Anchor-87" 400 -25 mark 0
AnchorPoint: "Anchor-75" 350 -25 mark 0
AnchorPoint: "Anchor-71" 350 -25 mark 0
AnchorPoint: "Anchor-67" 350 -25 mark 0
AnchorPoint: "Anchor-61" 350 -25 mark 0
AnchorPoint: "Anchor-54" 350 -25 mark 0
AnchorPoint: "Anchor-47" 350 -25 mark 0
AnchorPoint: "Anchor-41" 350 -25 mark 0
AnchorPoint: "Anchor-34" 350 -25 mark 0
AnchorPoint: "Anchor-27" 350 -25 mark 0
AnchorPoint: "Anchor-20" 350 -25 mark 0
AnchorPoint: "Anchor-15" 350 -25 mark 0
AnchorPoint: "Anchor-8" 350 -25 mark 0
LayerCount: 2
Fore
SplineSet
573 442 m 0
 632 442 640 375 640 312 c 0
 640 289 638 267 633 250 c 4
 633 243 652 237 654 234 c 132
 659 227 662 214 662 201 c 0
 662 178 654 154 636 154 c 132
 622 154 616 173 604 178 c 5
 532 93 451 41 342 2 c 4
 332 -1 306 -9 287 -9 c 0
 255 -9 289 14 299 21 c 4
 382 74 476 124 545 193 c 5
 512 203 470 229 449 250 c 4
 441 259 438 270 438 281 c 0
 438 306 454 332 464 351 c 132
 481 383 505 412 534 430 c 132
 546 438 560 442 573 442 c 0
592 308 m 132
 592 335 581 356 554 356 c 132
 530 356 498 343 494 324 c 5
 516 292 549 275 588 264 c 5
 590 264 l 5
 590 277 592 294 592 308 c 132
283 445 m 0
 343 445 352 379 352 318 c 4
 352 209 303 163 245 111 c 4
 182 59 106 15 16 -4 c 132
 2 -7 -29 -8 -16 5 c 132
 5 26 40 45 68 62 c 132
 133 102 201 143 254 196 c 5
 221 206 179 232 158 253 c 4
 150 262 147 273 147 284 c 0
 147 309 162 336 172 354 c 132
 189 387 214 414 244 433 c 132
 256 441 270 445 283 445 c 0
300 311 m 132
 300 338 291 359 263 359 c 132
 241 359 207 345 203 327 c 5
 225 294 257 279 297 267 c 5
 299 267 l 5
 299 280 300 297 300 311 c 132
EndSplineSet
Validated: 1
EndChar

StartChar: c.num.0.ar
Encoding: 98 1632 97
Width: 550
VWidth: 2337
GlyphClass: 2
Flags: HMW
LayerCount: 2
Fore
SplineSet
210 370 m 128
 214 379 230 430 247 430 c 0
 275 430 343 364 356 354 c 0
 360 350 362 346 362 342 c 128
 362 316 344 294 336 274 c 128
 328 254 318 237 307 218 c 0
 305 213 304 210 302 210 c 128
 299 210 296 211 291 215 c 0
 260 239 228 264 195 288 c 0
 190 292 188 301 188 308 c 0
 188 328 204 356 210 370 c 128
EndSplineSet
Validated: 1
Position2: "SadGhanRight3 subtable" dx=-1800 dy=116 dh=-550 dv=0
Position2: "SadGhanRight2 subtable" dx=-1350 dy=116 dh=-550 dv=0
Position2: "SadGhanRight1 subtable" dx=-900 dy=116 dh=-550 dv=0
Position2: "DahganRight2-1" dx=-1650 dy=116 dh=-550 dv=0
Position2: "dahgan right-1" dx=-1100 dy=116 dh=-550 dv=0
Position2: "yekan right-1" dx=-1300 dy=116 dh=-695 dv=0
Position2: "dahgan-1" dx=-926 dy=0 dh=-695 dv=0
Position2: "yekan-1" dx=-1863 dy=0 dh=-695 dv=0
EndChar

StartChar: c.num.1.ar
Encoding: 99 1633 98
Width: 550
VWidth: 2339
GlyphClass: 2
Flags: HMW
LayerCount: 2
Fore
SplineSet
382 101 m 0
 382 70 382 -29 353 -29 c 0
 340 -29 342 2 340 12 c 0
 327 195 261 357 176 470 c 128
 170 478 168 489 168 502 c 0
 168 531 179 568 185 588 c 128
 190 605 195 619 205 605 c 0
 301 478 382 322 382 101 c 0
EndSplineSet
Validated: 1
Position2: "SadGhanRight3 subtable" dx=-1800 dy=116 dh=-550 dv=0
Position2: "SadGhanRight2 subtable" dx=-1350 dy=116 dh=-550 dv=0
Position2: "SadGhanRight1 subtable" dx=-900 dy=116 dh=-550 dv=0
Position2: "DahganRight2-1" dx=-1650 dy=116 dh=-550 dv=0
Position2: "dahgan right-1" dx=-1100 dy=116 dh=-550 dv=0
Position2: "yekan right-1" dx=-1300 dy=116 dh=-695 dv=0
Position2: "dahgan-1" dx=-926 dy=0 dh=-695 dv=0
Position2: "yekan-1" dx=-1863 dy=0 dh=-695 dv=0
EndChar

StartChar: c.num.2.ar
Encoding: 100 1634 99
Width: 550
VWidth: 2340
GlyphClass: 2
Flags: HMW
LayerCount: 2
Fore
SplineSet
137 425 m 0
 137 528 203 599 307 599 c 0
 313 599 318 598 324 598 c 128
 353 596 382 591 413 582 c 1
 388 457 l 2
 388 456 387 456 386 456 c 0
 361 456 324 462 296 462 c 0
 266 462 193 449 193 422 c 0
 193 401 208 386 215 374 c 0
 286 274 320 155 329 -6 c 0
 331 -20 322 -29 310 -29 c 0
 299 -29 295 -14 294 -3 c 0
 266 113 219 199 169 294 c 0
 148 332 137 371 137 425 c 0
EndSplineSet
Validated: 1
Position2: "SadGhanRight3 subtable" dx=-1800 dy=116 dh=-550 dv=0
Position2: "SadGhanRight2 subtable" dx=-1350 dy=116 dh=-550 dv=0
Position2: "SadGhanRight1 subtable" dx=-900 dy=116 dh=-550 dv=0
Position2: "DahganRight2-1" dx=-1650 dy=116 dh=-550 dv=0
Position2: "dahgan right-1" dx=-1100 dy=116 dh=-550 dv=0
Position2: "yekan right-1" dx=-1300 dy=116 dh=-695 dv=0
Position2: "dahgan-1" dx=-926 dy=0 dh=-695 dv=0
Position2: "yekan-1" dx=-1863 dy=0 dh=-695 dv=0
EndChar

StartChar: c.num.3.ar
Encoding: 101 1635 100
Width: 550
VWidth: 2340
GlyphClass: 2
Flags: HMW
LayerCount: 2
Fore
SplineSet
254 82 m 2
 254 73 l 2
 254 41 253 -29 232 -29 c 0
 210 -29 207 50 204 69 c 128
 181 211 121 322 70 438 c 0
 64 447 61 454 61 464 c 1
 78 568 l 2
 80 581 87 574 92 568 c 0
 113 521 144 469 210 469 c 128
 282 469 290 527 311 580 c 128
 312 583 316 585 319 585 c 0
 325 585 327 581 327 572 c 0
 327 525 329 499 379 494 c 129
 388 494 l 2
 439 494 464 537 464 591 c 0
 464 597 467 599 474 599 c 0
 486 599 489 582 489 558 c 0
 489 515 477 454 474 445 c 128
 460 403 425 367 380 367 c 0
 379 367 378 367 377 367 c 128
 348 368 324 381 303 404 c 1
 290 379 259 341 222 341 c 2
 218 341 l 1
 206 346 197 342 204 328 c 0
 236 253 254 178 254 82 c 2
EndSplineSet
Validated: 1
Position2: "SadGhanRight3 subtable" dx=-1800 dy=116 dh=-550 dv=0
Position2: "SadGhanRight2 subtable" dx=-1350 dy=116 dh=-550 dv=0
Position2: "SadGhanRight1 subtable" dx=-900 dy=116 dh=-550 dv=0
Position2: "DahganRight2-1" dx=-1650 dy=116 dh=-550 dv=0
Position2: "dahgan right-1" dx=-1100 dy=116 dh=-550 dv=0
Position2: "yekan right-1" dx=-1300 dy=116 dh=-695 dv=0
Position2: "dahgan-1" dx=-926 dy=0 dh=-695 dv=0
Position2: "yekan-1" dx=-1863 dy=0 dh=-695 dv=0
EndChar

StartChar: c.num.4.ar
Encoding: 102 1636 101
Width: 550
VWidth: 2340
GlyphClass: 2
Flags: HMW
LayerCount: 2
Fore
SplineSet
227 -32 m 0
 177 -32 156 10 156 56 c 0
 156 118 191 173 213 214 c 128
 220 226 223 233 223 235 c 0
 223 257 183 270 166 279 c 128
 132 296 112 320 112 370 c 2
 112 382 l 1
 119 458 161 514 203 556 c 130
 247 600 l 2
 258 611 273 600 268 590 c 0
 259 563 254 532 245 504 c 1
 220 488 173 477 173 436 c 0
 173 406 230 395 252 384 c 128
 282 369 293 346 293 318 c 0
 293 261 246 188 230 154 c 128
 224 141 222 133 223 129 c 0
 222 127 222 125 222 123 c 0
 222 104 273 96 302 96 c 2
 318 96 l 1
 361 99 393 111 435 127 c 0
 438 130 438 116 437 114 c 0
 392 49 335 -32 227 -32 c 0
EndSplineSet
Validated: 1
Position2: "SadGhanRight3 subtable" dx=-1800 dy=116 dh=-550 dv=0
Position2: "SadGhanRight2 subtable" dx=-1350 dy=116 dh=-550 dv=0
Position2: "SadGhanRight1 subtable" dx=-900 dy=116 dh=-550 dv=0
Position2: "DahganRight2-1" dx=-1650 dy=116 dh=-550 dv=0
Position2: "dahgan right-1" dx=-1100 dy=116 dh=-550 dv=0
Position2: "yekan right-1" dx=-1300 dy=116 dh=-695 dv=0
Position2: "dahgan-1" dx=-926 dy=0 dh=-695 dv=0
Position2: "yekan-1" dx=-1863 dy=0 dh=-695 dv=0
EndChar

StartChar: c.num.5.ar
Encoding: 103 1637 102
Width: 550
VWidth: 2340
GlyphClass: 2
Flags: HMW
LayerCount: 2
Fore
SplineSet
266 71 m 0
 166 71 120 157 120 257 c 0
 120 353 160 450 218 492 c 128
 231 501 246 506 261 506 c 0
 317 506 358 459 382 422 c 128
 405 387 430 327 430 277 c 0
 430 150 389 71 266 71 c 0
272 201 m 0
 319 201 391 217 391 262 c 0
 391 312 302 377 255 377 c 0
 201 377 158 328 158 275 c 0
 158 229 225 201 272 201 c 0
EndSplineSet
Validated: 1
Position2: "SadGhanRight3 subtable" dx=-1800 dy=116 dh=-550 dv=0
Position2: "SadGhanRight2 subtable" dx=-1350 dy=116 dh=-550 dv=0
Position2: "SadGhanRight1 subtable" dx=-900 dy=116 dh=-550 dv=0
Position2: "DahganRight2-1" dx=-1650 dy=116 dh=-550 dv=0
Position2: "dahgan right-1" dx=-1100 dy=116 dh=-550 dv=0
Position2: "yekan right-1" dx=-1300 dy=116 dh=-695 dv=0
Position2: "dahgan-1" dx=-926 dy=0 dh=-695 dv=0
Position2: "yekan-1" dx=-1863 dy=0 dh=-695 dv=0
EndChar

StartChar: c.num.6.ar
Encoding: 104 1638 103
Width: 550
VWidth: 2340
GlyphClass: 2
Flags: HMW
LayerCount: 2
Fore
SplineSet
81 552 m 128
 81 568 81 603 94 603 c 256
 102 603 106 588 114 583 c 128
 133 571 163 566 192 566 c 0
 234 566 271 571 307 578 c 0
 313 579 318 580 323 580 c 0
 377 580 378 537 382 485 c 0
 392 380 399 285 426 198 c 128
 435 168 448 137 463 106 c 0
 466 97 469 87 469 78 c 0
 469 46 451 11 443 -17 c 0
 442 -25 439 -29 434 -29 c 128
 429 -29 424 -26 421 -18 c 0
 357 101 338 246 338 427 c 0
 338 435 326 437 310 437 c 0
 276 437 224 427 207 427 c 0
 144 427 94 446 85 502 c 0
 82 519 81 536 81 552 c 128
EndSplineSet
Validated: 1
Position2: "SadGhanRight3 subtable" dx=-1800 dy=116 dh=-550 dv=0
Position2: "SadGhanRight2 subtable" dx=-1350 dy=116 dh=-550 dv=0
Position2: "SadGhanRight1 subtable" dx=-900 dy=116 dh=-550 dv=0
Position2: "DahganRight2-1" dx=-1650 dy=116 dh=-550 dv=0
Position2: "dahgan right-1" dx=-1100 dy=116 dh=-550 dv=0
Position2: "yekan right-1" dx=-1300 dy=116 dh=-695 dv=0
Position2: "dahgan-1" dx=-926 dy=0 dh=-695 dv=0
Position2: "yekan-1" dx=-1863 dy=0 dh=-695 dv=0
EndChar

StartChar: c.num.7.ar
Encoding: 105 1639 104
Width: 550
VWidth: 2340
GlyphClass: 2
Flags: HMW
LayerCount: 2
Fore
SplineSet
443 603 m 0
 458 603 470 516 476 497 c 1
 476 483 472 480 466 470 c 0
 393 332 355 171 324 -10 c 0
 323 -24 316 -30 307 -30 c 0
 294 -30 294 -20 292 -10 c 0
 256 180 187 326 83 453 c 0
 76 462 74 477 74 492 c 0
 74 520 82 553 84 577 c 0
 86 594 96 600 106 587 c 0
 185 484 254 344 300 214 c 1
 325 347 364 481 423 584 c 0
 431 597 438 603 443 603 c 0
EndSplineSet
Validated: 1
Position2: "SadGhanRight3 subtable" dx=-1800 dy=116 dh=-550 dv=0
Position2: "SadGhanRight2 subtable" dx=-1350 dy=116 dh=-550 dv=0
Position2: "SadGhanRight1 subtable" dx=-900 dy=116 dh=-550 dv=0
Position2: "DahganRight2-1" dx=-1650 dy=116 dh=-550 dv=0
Position2: "dahgan right-1" dx=-1100 dy=116 dh=-550 dv=0
Position2: "yekan right-1" dx=-1300 dy=116 dh=-695 dv=0
Position2: "dahgan-1" dx=-926 dy=0 dh=-695 dv=0
Position2: "yekan-1" dx=-1863 dy=0 dh=-695 dv=0
EndChar

StartChar: c.num.8.ar
Encoding: 106 1640 105
Width: 550
VWidth: 2340
GlyphClass: 2
Flags: HMW
LayerCount: 2
Fore
SplineSet
62 106 m 0
 62 114 69 123 72 129 c 0
 163 245 214 386 229 576 c 0
 231 585 234 602 244 602 c 0
 252 602 257 595 262 580 c 0
 318 409 392 240 486 107 c 0
 487 105 488 102 488 100 c 130
 488 90 l 2
 488 56 486 17 480 -14 c 0
 478 -27 473 -37 465 -23 c 0
 384 96 301 233 259 389 c 1
 244 222 176 83 96 -21 c 0
 86 -36 71 -39 69 -18 c 0
 62 14 62 68 62 106 c 0
EndSplineSet
Validated: 1
Position2: "SadGhanRight3 subtable" dx=-1800 dy=116 dh=-550 dv=0
Position2: "SadGhanRight2 subtable" dx=-1350 dy=116 dh=-550 dv=0
Position2: "SadGhanRight1 subtable" dx=-900 dy=116 dh=-550 dv=0
Position2: "DahganRight2-1" dx=-1650 dy=116 dh=-550 dv=0
Position2: "dahgan right-1" dx=-1100 dy=116 dh=-550 dv=0
Position2: "yekan right-1" dx=-1300 dy=116 dh=-695 dv=0
Position2: "dahgan-1" dx=-926 dy=0 dh=-695 dv=0
Position2: "yekan-1" dx=-1863 dy=0 dh=-695 dv=0
EndChar

StartChar: c.num.9.ar
Encoding: 107 1641 106
Width: 550
VWidth: 2340
GlyphClass: 2
Flags: HMW
LayerCount: 2
Fore
SplineSet
215 274 m 0
 135 274 104 323 104 399 c 2
 104 406 l 1
 109 494 140 596 226 601 c 1
 312 601 328 488 342 417 c 0
 366 295 387 175 441 84 c 0
 444 79 446 74 446 68 c 0
 446 49 432 29 426 15 c 128
 422 4 412 -34 400 -34 c 0
 397 -34 395 -32 392 -27 c 0
 338 54 315 184 309 310 c 1
 288 290 252 274 215 274 c 0
284 417 m 1
 275 446 242 480 207 485 c 0
 184 485 151 457 151 434 c 0
 153 409 190 396 218 396 c 0
 240 396 284 401 284 417 c 1
EndSplineSet
Validated: 1
Position2: "SadGhanRight3 subtable" dx=-1800 dy=116 dh=-550 dv=0
Position2: "SadGhanRight2 subtable" dx=-1350 dy=116 dh=-550 dv=0
Position2: "SadGhanRight1 subtable" dx=-900 dy=116 dh=-550 dv=0
Position2: "DahganRight2-1" dx=-1650 dy=116 dh=-550 dv=0
Position2: "dahgan right-1" dx=-1100 dy=116 dh=-550 dv=0
Position2: "yekan right-1" dx=-1300 dy=116 dh=-695 dv=0
Position2: "dahgan-1" dx=-926 dy=0 dh=-695 dv=0
Position2: "yekan-1" dx=-1863 dy=0 dh=-695 dv=0
EndChar

StartChar: uni066E
Encoding: 112 1646 111
Width: 1862
GlyphClass: 2
Flags: HMW
LayerCount: 2
Fore
SplineSet
1775 449 m 0
 1775 355 1751 288 1703 247 c 0
 1594 160 1295 77 1121 42 c 0
 1008 19 888 8 762 8 c 0
 553 8 389 32 270 79 c 1
 163 128 98 201 75 299 c 0
 70 322 67 343 67 362 c 0
 67 413 83 466 115 522 c 0
 152 579 192 622 235 650 c 0
 243 654 249 656 254 656 c 0
 259 656 262 653 262 647 c 2
 262 643 l 1
 228 609 203 566 183 520 c 0
 173 495 168 471 168 449 c 0
 168 425 173 402 184 380 c 0
 258 239 518 203 748 203 c 0
 1046 203 1251 254 1495 330 c 0
 1542 346 1581 361 1611 376 c 0
 1645 392 1662 410 1662 429 c 1
 1548 586 l 2
 1539 599 1535 611 1535 622 c 0
 1535 644 1547 665 1551 682 c 0
 1559 707 1568 734 1578 762 c 0
 1583 777 1590 784 1600 784 c 0
 1607 784 1615 780 1624 771 c 0
 1684 711 1728 641 1756 560 c 0
 1769 519 1775 482 1775 449 c 0
EndSplineSet
Validated: 1
EndChar

StartChar: m.alef.up
Encoding: 114 1648 113
Width: 0
GlyphClass: 4
Flags: HMW
AnchorPoint: "Anchor-80" 226 -10 mark 0
AnchorPoint: "Anchor-74" 226 -10 mark 0
AnchorPoint: "Anchor-70" 226 -10 mark 0
AnchorPoint: "Anchor-66" 226 -10 mark 0
AnchorPoint: "Anchor-60" 281 -10 mark 0
AnchorPoint: "Anchor-53" 281 -10 mark 0
AnchorPoint: "Anchor-46" 226 -10 mark 0
AnchorPoint: "Anchor-40" 281 -10 mark 0
AnchorPoint: "Anchor-33" 281 -10 mark 0
AnchorPoint: "Anchor-26" 281 -10 mark 0
AnchorPoint: "Anchor-19" 281 -10 mark 0
AnchorPoint: "Anchor-14" 281 -10 mark 0
AnchorPoint: "Anchor-7" 281 -10 mark 0
AnchorPoint: "Anchor-1" 254 -37 mark 0
LayerCount: 2
Fore
SplineSet
243 16 m 0
 236 160 225 171 150 291 c 0
 143 301 140 310 140 320 c 0
 140 321 140 323 140 324 c 0
 140 337 150 362 170 399 c 0
 172 403 173 404 176 404 c 0
 184 404 197 388 203 380 c 0
 243 321 285 248 285 156 c 0
 285 112 279 61 268 30 c 0
 265 18 258 4 251 4 c 0
 248 4 245 7 243 16 c 0
EndSplineSet
Validated: 1
EndChar

StartChar: uni0671
Encoding: 115 1649 114
Width: 595
GlyphClass: 2
Flags: HMW
AnchorPoint: "Cursive-83" 651 0 entry 0
LayerCount: 2
Fore
SplineSet
469 1790 m 1
 469 1817 435 1846 411 1846 c 0
 360 1846 326 1797 304 1764 c 0
 295 1750 279 1733 279 1717 c 0
 279 1711 292 1710 299 1710 c 0
 333 1710 364 1727 391 1732 c 1
 426 1750 447 1760 469 1790 c 1
442 1941 m 1
 491 1932 515 1887 515 1831 c 0
 515 1800 508 1773 495 1755 c 0
 453 1680 361 1613 248 1613 c 0
 195 1613 151 1628 116 1651 c 1
 114 1651 l 2
 90 1651 62 1587 51 1571 c 0
 46 1564 41 1561 36 1561 c 0
 27 1561 24 1567 24 1575 c 0
 36 1615 81 1754 126 1754 c 0
 139 1754 144 1748 156 1742 c 0
 174 1733 204 1718 229 1718 c 1
 255 1766 289 1815 320 1858 c 0
 348 1896 381 1938 442 1941 c 1
EndSplineSet
Refer: 40 1575 N 1 0 0 1 101 0 0
Validated: 1
Substitution2: "'fina' Terminal Forms in Arabic lookup 3 subtable" uniFB51
EndChar

StartChar: c.cheh
Encoding: 136 1670 135
Width: 1182
GlyphClass: 2
Flags: HMW
LayerCount: 2
Fore
SplineSet
902 273 m 1
 902 199 965 183 1054 183 c 2
 1222 183 l 1
 1222 0 l 1
 1115 0 l 2
 1048 0 988 5 934 15 c 0
 849 36 806 92 806 183 c 0
 806 220 812 257 823 296 c 2
 844 365 l 1
 842 365 l 2
 832 365 801 358 748 345 c 0
 534 291 370 145 281 -41 c 0
 238 -130 216 -204 216 -312 c 0
 216 -423 245 -499 292 -568 c 0
 411 -756 673 -826 991 -826 c 1
 1526 -822 l 2
 1533 -822 1539 -827 1543 -837 c 0
 1543 -844 1538 -849 1528 -852 c 2
 1204 -928 l 2
 1087 -955 984 -972 897 -980 c 1
 645 -980 450 -935 309 -816 c 0
 196 -724 117 -541 117 -325 c 0
 117 -312 118 -300 118 -290 c 0
 125 -117 202 36 278 156 c 0
 327 232 408 318 482 371 c 0
 485 373 486 374 486 375 c 0
 486 382 454 386 426 387 c 1
 402 387 l 2
 323 387 280 369 238 330 c 0
 225 320 204 299 177 269 c 0
 174 264 170 261 167 261 c 0
 162 261 162 268 165 283 c 0
 185 362 256 479 312 522 c 0
 341 546 379 559 425 560 c 0
 557 560 696 538 836 538 c 1
 930 539 l 1
 1010 543 l 1
 1113 550 l 2
 1120 550 1123 544 1122 532 c 1
 1093 473 1068 429 1047 400 c 0
 1040 390 1030 384 1017 382 c 0
 989 380 959 376 928 371 c 1
 914 349 906 315 902 273 c 1
EndSplineSet
Refer: 269 -1 S 1 0 0 1 450 -80 2
Validated: 1
Substitution2: "'init' Initial Forms in Arabic lookup 1 subtable" g.cheh.init
Substitution2: "'medi' Medial Forms in Arabic lookup 2 subtable" g.cheh.medi
EndChar

StartChar: c.kaf.fa
Encoding: 171 1705 170
Width: 1867
GlyphClass: 2
Flags: HMW
AnchorPoint: "Cursive-83" 1584 104 entry 0
AnchorPoint: "Anchor-11" 392 1200 basechar 0
AnchorPoint: "Anchor-10" 242 1600 basechar 0
AnchorPoint: "Anchor-9" 1026 -71 basechar 0
AnchorPoint: "Anchor-8" 467 1000 basechar 0
AnchorPoint: "Anchor-7" 672 1230 basechar 0
AnchorPoint: "Anchor-6" 537 1155 basechar 0
AnchorPoint: "Anchor-5" 542 1100 basechar 0
LayerCount: 2
Fore
SplineSet
1522 415 m 0
 1522 88 972 -8 578 -8 c 0
 400 -8 268 25 181 91 c 0
 113 144 80 208 80 285 c 0
 80 352 108 427 162 512 c 0
 213 590 250 629 274 629 c 0
 276 629 281 628 281 627 c 0
 281 624 265 594 232 536 c 0
 196 474 177 425 177 394 c 0
 177 328 213 278 288 240 c 0
 379 195 516 172 703 172 c 0
 851 172 1008 194 1172 238 c 0
 1358 289 1450 345 1450 409 c 0
 1450 528 1362 671 1187 840 c 0
 1141 883 1094 925 1048 967 c 0
 999 1012 968 1048 954 1076 c 1
 954 1110 961 1163 978 1237 c 1
 1007 1318 1115 1436 1302 1591 c 0
 1449 1713 1617 1835 1808 1960 c 0
 1970 2066 2061 2118 2080 2118 c 0
 2081 2118 2082 2118 2083 2117 c 1
 2083 2113 l 2
 2083 2095 2072 2061 2051 2009 c 0
 2030 1957 2014 1927 2002 1920 c 0
 1903 1868 1742 1760 1518 1601 c 0
 1293 1441 1144 1324 1069 1251 c 0
 1050 1234 1041 1221 1041 1211 c 0
 1041 1203 1048 1193 1062 1182 c 0
 1240 1054 1365 919 1438 778 c 4
 1494 669 1521 548 1522 415 c 0
EndSplineSet
Validated: 1
Substitution2: "'fina' Terminal Forms in Arabic lookup 3 subtable" g.kaf.fina.fa
Substitution2: "'medi' Medial Forms in Arabic lookup 2 subtable" g.kaf.medi.fa
Substitution2: "'init' Initial Forms in Arabic lookup 1 subtable" g.kaf.init.fa
EndChar

StartChar: c.ghaf
Encoding: 177 1711 176
Width: 1867
GlyphClass: 2
Flags: HMW
AnchorPoint: "Anchor-5" 542 1100 basechar 0
AnchorPoint: "Anchor-6" 537 1155 basechar 0
AnchorPoint: "Anchor-7" 672 1230 basechar 0
AnchorPoint: "Anchor-8" 467 1000 basechar 0
AnchorPoint: "Anchor-9" 1026 -71 basechar 0
AnchorPoint: "Anchor-10" 242 1600 basechar 0
AnchorPoint: "Anchor-11" 392 1200 basechar 0
AnchorPoint: "Cursive-83" 1584 104 entry 0
LayerCount: 2
Fore
SplineSet
1522 415 m 0
 1522 88 972 -8 578 -8 c 0
 400 -8 268 25 181 91 c 0
 113 144 80 208 80 285 c 0
 80 352 108 427 162 512 c 0
 213 590 250 629 274 629 c 0
 276 629 281 628 281 627 c 0
 281 624 265 594 232 536 c 0
 196 474 177 425 177 394 c 0
 177 328 213 278 288 240 c 0
 379 195 516 172 703 172 c 0
 851 172 1008 194 1172 238 c 0
 1358 289 1450 345 1450 409 c 0
 1450 528 1362 671 1187 840 c 0
 1141 883 1094 925 1048 967 c 0
 999 1012 968 1048 954 1076 c 1
 954 1110 961 1163 978 1237 c 1
 1007 1318 1115 1436 1302 1591 c 0
 1449 1713 1617 1835 1808 1960 c 0
 1970 2066 2061 2118 2080 2118 c 0
 2081 2118 2082 2118 2083 2117 c 1
 2083 2113 l 2
 2083 2095 2072 2061 2051 2009 c 0
 2030 1957 2014 1927 2002 1920 c 0
 1903 1868 1742 1760 1518 1601 c 0
 1293 1441 1144 1324 1069 1251 c 0
 1050 1234 1041 1221 1041 1211 c 0
 1041 1203 1048 1193 1062 1182 c 0
 1240 1054 1365 919 1438 778 c 0
 1494 669 1521 548 1522 415 c 0
1737 2094 m 1
 1737 2089 l 2
 1737 2066 1690 1940 1676 1933 c 0
 1603 1890 1482 1804 1315 1673 c 0
 1148 1542 1045 1477 1005 1477 c 2
 1004 1477 l 2
 997 1477 992 1480 992 1486 c 0
 992 1507 1047 1567 1155 1666 c 0
 1264 1763 1389 1863 1531 1965 c 0
 1652 2051 1720 2094 1735 2094 c 2
 1737 2094 l 1
EndSplineSet
Validated: 1
Substitution2: "'init' Initial Forms in Arabic lookup 1 subtable" g.ghaf.init
Substitution2: "'medi' Medial Forms in Arabic lookup 2 subtable" g.ghaf.medi
Substitution2: "'fina' Terminal Forms in Arabic lookup 3 subtable" g.ghaf.fina
EndChar

StartChar: g.kaf.fina.fa
Encoding: 269 64399 212
Width: 2334
GlyphClass: 2
Flags: HMW
LayerCount: 2
Fore
SplineSet
2560 2317 m 0
 2560 2296 2489 2142 2476 2135 c 0
 2299 2029 2058 1867 1753 1649 c 0
 1364 1371 1159 1206 1139 1155 c 1
 1375 1051 1700 760 2115 280 c 0
 2171 215 2247 184 2344 184 c 2
 2357 184 l 1
 2357 2 l 1
 2346 2 l 2
 2272 2 2203 19 2140 53 c 0
 2088 81 1993 174 1856 330 c 0
 1675 537 1564 659 1523 699 c 1
 1553 600 1567 512 1568 435 c 0
 1568 378 1558 333 1540 301 c 0
 1467 173 1329 74 1125 2 c 0
 969 -51 818 -78 672 -78 c 0
 659 -78 649 -77 636 -77 c 0
 459 -70 325 -21 235 70 c 0
 166 138 133 214 133 298 c 0
 133 366 161 442 216 527 c 0
 267 606 305 646 329 646 c 0
 334 646 336 644 336 641 c 0
 336 638 318 607 282 546 c 0
 247 484 230 437 230 406 c 0
 230 333 268 270 342 213 c 0
 439 140 579 104 762 104 c 0
 893 104 1044 137 1215 203 c 0
 1393 271 1494 338 1518 406 c 0
 1519 410 1520 413 1520 417 c 2
 1520 422 l 2
 1520 456 1497 508 1452 581 c 0
 1413 643 1370 701 1323 754 c 0
 1308 770 1259 821 1174 905 c 0
 1113 967 1081 1007 1075 1023 c 0
 1075 1029 1099 1244 1100 1248 c 0
 1134 1333 1360 1527 1779 1830 c 0
 1989 1982 2170 2106 2321 2200 c 0
 2454 2282 2531 2323 2555 2323 c 0
 2558 2322 2560 2320 2560 2317 c 0
EndSplineSet
Validated: 1
EndChar

StartChar: g.kaf.init.fa
Encoding: 270 64400 213
Width: 1084
GlyphClass: 2
Flags: HMW
LayerCount: 2
Fore
SplineSet
207 183 m 2
 329 183 554 198 554 269 c 0
 554 322 524 398 463 498 c 0
 388 614 284 722 172 816 c 0
 144 841 116 859 88 868 c 0
 33 885 4 923 4 989 c 0
 4 1066 47 1166 80 1223 c 0
 129 1310 281 1383 427 1449 c 0
 624 1538 810 1620 1031 1694 c 1
 1036 1689 1040 1684 1041 1680 c 0
 1035 1634 1014 1597 987 1554 c 0
 976 1534 959 1518 936 1505 c 0
 659 1388 498 1341 226 1210 c 0
 195 1195 167 1179 138 1158 c 0
 128 1151 123 1142 123 1132 c 0
 123 1125 146 1096 192 1046 c 1
 336 907 546 680 609 487 c 0
 624 439 632 392 632 347 c 0
 632 216 588 113 510 59 c 0
 470 34 411 15 334 4 c 1
 -5 0 l 1
 -27 0 l 1
 -27 183 l 1
 207 183 l 2
EndSplineSet
Validated: 1
EndChar

StartChar: g.kaf.medi.fa
Encoding: 271 64401 214
Width: 1279
GlyphClass: 2
Flags: HMW
LayerCount: 2
Fore
SplineSet
1233 1728 m 1
 1238 1720 1241 1715 1241 1699 c 1
 1217 1622 1195 1557 1132 1522 c 1
 765 1373 557 1299 197 1139 c 0
 152 1119 141 1113 109 1081 c 0
 100 1074 94 1065 91 1053 c 1
 102 1037 111 1024 127 1005 c 2
 339 782 l 1
 467 654 551 574 674 455 c 0
 743 391 791 351 860 292 c 0
 939 226 1006 183 1158 183 c 2
 1293 183 l 1
 1293 0 l 1
 1169 0 l 2
 1068 0 981 4 918 35 c 0
 871 57 815 95 750 149 c 1
 396 498 l 1
 418 425 433 359 440 298 c 1
 440 186 389 121 313 72 c 0
 243 24 130 0 -26 0 c 1
 -26 183 l 1
 62 183 135 193 193 212 c 0
 299 244 352 281 352 323 c 0
 352 375 331 429 288 489 c 2
 138 706 l 2
 106 750 62 821 7 918 c 0
 -2 939 -5 966 -5 994 c 2
 -5 1013 l 2
 -4 1020 -3 1025 -3 1030 c 0
 -3 1031 -3 1033 -3 1034 c 0
 11 1096 33 1130 68 1188 c 0
 93 1229 167 1280 291 1343 c 1
 1036 1656 l 2
 1154 1704 1220 1728 1233 1728 c 1
EndSplineSet
Validated: 1
EndChar

StartChar: uni06D6
Encoding: 213 1750 215
Width: 0
GlyphClass: 4
Flags: HMW
AnchorPoint: "Anchor-82" 400 1680 mark 0
AnchorPoint: "Anchor-77" 400 1680 mark 0
AnchorPoint: "Anchor-63" 400 1680 mark 0
AnchorPoint: "Anchor-56" 400 1680 mark 0
AnchorPoint: "Anchor-49" 400 1680 mark 0
AnchorPoint: "Anchor-43" 400 1680 mark 0
AnchorPoint: "Anchor-36" 400 1680 mark 0
AnchorPoint: "Anchor-29" 400 1680 mark 0
AnchorPoint: "Anchor-22" 400 1680 mark 0
AnchorPoint: "Anchor-10" 400 1680 mark 0
LayerCount: 2
Fore
SplineSet
622 2192 m 4
 649 2192 703 2167 703 2125 c 4
 703 2074 667 2034 594 2004 c 4
 559 1989 521 1981 481 1981 c 6
 468 1981 l 6
 419 1981 387 2000 356 2030 c 5
 330 2004 304 1975 247 1975 c 4
 222 1977 203 1994 188 2026 c 5
 176 2007 164 1993 153 1986 c 4
 95 1961 66 1941 66 1925 c 4
 66 1886 129 1866 254 1866 c 4
 466 1870 446 1874 649 1874 c 5
 651 1872 653 1871 653 1869 c 4
 653 1854 571 1835 408 1809 c 4
 379 1808 347 1808 312 1806 c 4
 278 1806 235 1806 182 1809 c 4
 72 1818 17 1846 16 1893 c 4
 16 1900 17 1904 18 1907 c 4
 31 1972 66 2015 124 2038 c 5
 153 2056 168 2077 168 2102 c 5
 142 2360 l 5
 155 2421 166 2451 176 2451 c 4
 177 2451 179 2451 180 2450 c 4
 184 2343 193 2276 205 2142 c 4
 212 2088 215 2038 267 2038 c 4
 268 2038 269 2038 270 2038 c 4
 307 2040 340 2071 369 2131 c 4
 373 2141 379 2148 382 2135 c 5
 375 2078 l 5
 385 2058 401 2048 423 2048 c 5
 513 2135 l 5
 558 2173 595 2192 622 2192 c 4
644 2100 m 4
 641 2115 630 2126 609 2134 c 4
 607 2134 605 2135 603 2135 c 4
 589 2135 572 2127 550 2112 c 4
 525 2095 494 2070 456 2039 c 5
 501 2041 l 5
 532 2041 570 2053 616 2078 c 4
 635 2087 644 2095 644 2100 c 4
EndSplineSet
Validated: 1
Substitution2: "Single Substitution lookup 36 subtable" uni06D6.calt
EndChar

StartChar: uni06D7
Encoding: 214 1751 216
Width: 0
GlyphClass: 4
Flags: HMW
AnchorPoint: "Anchor-82" 400 1700 mark 0
AnchorPoint: "Anchor-77" 400 1700 mark 0
AnchorPoint: "Anchor-63" 400 1700 mark 0
AnchorPoint: "Anchor-56" 400 1700 mark 0
AnchorPoint: "Anchor-49" 400 1700 mark 0
AnchorPoint: "Anchor-43" 400 1700 mark 0
AnchorPoint: "Anchor-36" 400 1700 mark 0
AnchorPoint: "Anchor-29" 400 1700 mark 0
AnchorPoint: "Anchor-22" 400 1700 mark 0
AnchorPoint: "Anchor-10" 400 1700 mark 0
LayerCount: 2
Fore
SplineSet
466 2354 m 4
 459 2331 449 2319 436 2317 c 5
 429 2318 l 5
 412 2340 400 2350 394 2347 c 5
 389 2337 381 2326 370 2314 c 5
 364 2313 l 5
 327 2339 l 5
 322 2340 320 2343 320 2350 c 4
 328 2365 338 2379 349 2391 c 4
 360 2402 386 2372 396 2362 c 5
 422 2395 l 6
 425 2400 429 2400 436 2395 c 4
 459 2380 469 2367 466 2354 c 4
369 1995 m 6
 409 1995 469 2017 469 2056 c 6
 469 2063 l 5
 468 2070 466 2077 461 2083 c 5
 435 2066 l 5
 419 2057 405 2053 393 2053 c 4
 364 2053 350 2082 350 2119 c 4
 351 2158 368 2236 411 2236 c 4
 412 2236 413 2236 414 2236 c 5
 444 2229 469 2192 489 2126 c 4
 494 2107 496 2090 496 2074 c 4
 496 1994 428 1935 353 1933 c 4
 302 1933 266 1957 248 1996 c 5
 245 1979 232 1965 211 1956 c 4
 153 1934 124 1914 123 1895 c 4
 123 1880 140 1866 174 1855 c 4
 207 1844 256 1837 320 1836 c 5
 471 1838 l 5
 608 1843 l 5
 612 1842 614 1840 614 1838 c 4
 614 1829 472 1779 362 1776 c 4
 353 1776 344 1775 334 1775 c 4
 304 1775 267 1778 223 1782 c 4
 125 1793 76 1821 75 1866 c 4
 75 1871 76 1876 77 1880 c 4
 90 1942 126 1986 185 2011 c 4
 210 2024 223 2042 224 2064 c 4
 224 2087 223 2107 222 2124 c 6
 201 2329 l 5
 208 2361 218 2393 230 2426 c 4
 232 2429 234 2428 235 2425 c 6
 241 2389 l 5
 258 2190 267 2086 269 2076 c 4
 278 2028 310 1996 359 1995 c 5
 369 1995 l 6
436 2124 m 5
 429 2147 418 2161 405 2164 c 4
 398 2164 393 2152 390 2127 c 4
 390 2116 393 2110 400 2109 c 4
 407 2109 419 2114 436 2124 c 5
EndSplineSet
Validated: 1
Substitution2: "Single Substitution lookup 36 subtable" uni06D7.calt
EndChar

StartChar: uni06D8
Encoding: 215 1752 217
Width: 0
GlyphClass: 4
Flags: HMW
AnchorPoint: "Anchor-82" 325 1350 mark 0
AnchorPoint: "Anchor-77" 325 1350 mark 0
AnchorPoint: "Anchor-63" 325 1350 mark 0
AnchorPoint: "Anchor-56" 325 1350 mark 0
AnchorPoint: "Anchor-49" 325 1350 mark 0
AnchorPoint: "Anchor-43" 325 1350 mark 0
AnchorPoint: "Anchor-36" 325 1350 mark 0
AnchorPoint: "Anchor-29" 325 1350 mark 0
AnchorPoint: "Anchor-22" 325 1350 mark 0
AnchorPoint: "Anchor-10" 325 1350 mark 0
LayerCount: 2
Fore
SplineSet
423 1834 m 0
 464 1834 518 1730 522 1693 c 0
 522 1689 523 1686 523 1682 c 0
 523 1641 496 1609 444 1588 c 0
 441 1587 437 1586 433 1586 c 0
 415 1586 386 1597 343 1620 c 1
 286 1525 233 1488 114 1471 c 0
 73 1465 41 1462 19 1462 c 0
 9 1462 -12 1463 -12 1472 c 0
 -12 1475 -7 1478 4 1482 c 2
 74 1504 l 1
 187 1546 260 1592 295 1641 c 1
 313 1681 326 1725 335 1772 c 1
 362 1800 388 1820 412 1832 c 0
 416 1834 419 1834 423 1834 c 0
EndSplineSet
Validated: 1
Substitution2: "Single Substitution lookup 36 subtable" uni06D8.calt
EndChar

StartChar: uni06D9
Encoding: 216 1753 218
Width: 141
GlyphClass: 4
Flags: HMW
AnchorPoint: "Anchor-82" 450 1450 mark 0
AnchorPoint: "Anchor-77" 450 1450 mark 0
AnchorPoint: "Anchor-63" 450 1450 mark 0
AnchorPoint: "Anchor-56" 450 1450 mark 0
AnchorPoint: "Anchor-49" 450 1450 mark 0
AnchorPoint: "Anchor-43" 450 1450 mark 0
AnchorPoint: "Anchor-36" 450 1450 mark 0
AnchorPoint: "Anchor-29" 450 1450 mark 0
AnchorPoint: "Anchor-22" 450 1450 mark 0
AnchorPoint: "Anchor-10" 450 1450 mark 0
LayerCount: 2
Fore
SplineSet
380 1657 m 5
 398 1695 419 1787 422 1846 c 5
 422 1862 l 6
 422 1894 417 1924 407 1956 c 5
 412 1977 429 2010 457 2057 c 4
 459 2060 461 2062 463 2062 c 4
 465 2063 467 2061 468 2057 c 5
 468 2011 l 6
 468 1990 484 1969 516 1948 c 5
 501 1919 487 1889 472 1860 c 5
 472 1757 450 1683 414 1605 c 5
 431 1567 440 1532 440 1501 c 4
 440 1439 395 1441 330 1437 c 4
 297 1435 264 1434 232 1434 c 4
 203 1434 187 1445 184 1467 c 5
 184 1500 l 6
 184 1507 189 1511 199 1511 c 5
 204 1499 217 1496 238 1501 c 4
 283 1514 319 1549 348 1605 c 5
 270 1727 205 1799 152 1821 c 4
 133 1829 118 1832 108 1829 c 4
 99 1827 93 1826 90 1826 c 4
 50 1826 30 1868 30 1952 c 4
 30 1980 37 1981 63 1970 c 4
 144 1941 232 1860 326 1729 c 5
 380 1657 l 5
EndSplineSet
Validated: 1
EndChar

StartChar: uni06DA
Encoding: 217 1754 219
Width: 23
GlyphClass: 4
Flags: HMW
AnchorPoint: "Anchor-82" 275 1750 mark 0
AnchorPoint: "Anchor-77" 275 1750 mark 0
AnchorPoint: "Anchor-63" 275 1750 mark 0
AnchorPoint: "Anchor-56" 275 1750 mark 0
AnchorPoint: "Anchor-49" 275 1750 mark 0
AnchorPoint: "Anchor-43" 275 1750 mark 0
AnchorPoint: "Anchor-36" 275 1750 mark 0
AnchorPoint: "Anchor-29" 275 1750 mark 0
AnchorPoint: "Anchor-22" 275 1750 mark 0
AnchorPoint: "Anchor-10" 275 1750 mark 0
LayerCount: 2
Fore
SplineSet
306 2101 m 0
 307 2101 307 2101 308 2101 c 0
 327 2101 363 2074 363 2052 c 0
 363 2032 345 2016 331 2003 c 0
 326 1997 323 1997 319 1997 c 0
 307 1997 295 2013 291 2017 c 0
 284 2021 260 2031 260 2046 c 2
 260 2049 l 1
 276 2065 283 2093 306 2101 c 0
602 1816 m 2
 602 1810 598 1807 594 1803 c 2
 592 1803 l 2
 584 1803 480 1777 463 1773 c 0
 418 1763 376 1756 339 1752 c 1
 338 1752 l 2
 140 1752 18 1829 18 2028 c 0
 18 2034 18 2040 19 2044 c 0
 19 2132 67 2206 111 2261 c 0
 129 2283 146 2300 160 2311 c 1
 155 2312 153 2313 149 2313 c 0
 142 2313 137 2314 133 2314 c 0
 92 2314 82 2300 51 2267 c 0
 50 2267 48 2267 43 2262 c 1
 39 2265 36 2267 36 2274 c 0
 36 2288 53 2317 60 2330 c 1
 60 2331 l 1
 85 2371 98 2384 146 2393 c 1
 183 2393 l 1
 217 2388 272 2387 312 2385 c 2
 350 2385 l 1
 383 2386 l 1
 424 2390 l 2
 429 2390 434 2386 434 2381 c 0
 434 2380 433 2378 432 2375 c 2
 402 2321 l 2
 398 2315 393 2311 386 2311 c 0
 214 2311 101 2222 71 2074 c 0
 68 2059 67 2046 67 2033 c 2
 70 2000 l 2
 84 1865 217 1825 375 1825 c 2
 592 1825 l 2
 597 1825 601 1822 602 1818 c 2
 602 1816 l 2
EndSplineSet
Validated: 1
Substitution2: "Single Substitution lookup 36 subtable" uni06DA.calt
EndChar

StartChar: uni06DB
Encoding: 218 1755 220
Width: 0
GlyphClass: 4
Flags: HMW
AnchorPoint: "Anchor-82" 250 1400 mark 0
AnchorPoint: "Anchor-77" 250 1400 mark 0
AnchorPoint: "Anchor-63" 250 1400 mark 0
AnchorPoint: "Anchor-56" 250 1400 mark 0
AnchorPoint: "Anchor-49" 250 1400 mark 0
AnchorPoint: "Anchor-43" 250 1400 mark 0
AnchorPoint: "Anchor-36" 250 1400 mark 0
AnchorPoint: "Anchor-29" 250 1400 mark 0
AnchorPoint: "Anchor-22" 250 1400 mark 0
AnchorPoint: "Anchor-10" 250 1400 mark 0
LayerCount: 2
Fore
SplineSet
135 1668 m 2
 258 1576 l 1
 266 1572 263 1567 260 1561 c 1
 184 1455 l 1
 178 1449 172 1448 167 1453 c 1
 44 1544 l 2
 39 1547 38 1552 43 1560 c 2
 120 1665 l 1
 125 1670 130 1671 135 1668 c 2
373 1667 m 2
 496 1575 l 1
 504 1571 501 1566 498 1560 c 1
 422 1454 l 1
 416 1448 410 1447 405 1452 c 1
 282 1543 l 2
 277 1546 276 1551 281 1559 c 2
 358 1664 l 1
 363 1669 368 1670 373 1667 c 2
223 1872 m 2
 346 1780 l 1
 354 1776 351 1771 348 1765 c 1
 272 1659 l 1
 266 1653 260 1652 255 1657 c 1
 132 1748 l 2
 127 1751 126 1756 131 1764 c 2
 208 1869 l 1
 213 1874 218 1875 223 1872 c 2
EndSplineSet
Validated: 1
Substitution2: "Single Substitution lookup 36 subtable" uni06DB.calt
EndChar

StartChar: uni06DC
Encoding: 219 1756 221
Width: 274
GlyphClass: 4
Flags: HMW
AnchorPoint: "Anchor-89" 0 0 basemark 0
AnchorPoint: "Anchor-88" 0 0 basemark 0
AnchorPoint: "Anchor-87" 0 0 basemark 0
AnchorPoint: "Anchor-86" -50 1825 basemark 0
AnchorPoint: "Anchor-89" 50 900 mark 0
AnchorPoint: "Anchor-79" 75 1500 mark 0
AnchorPoint: "Anchor-73" 75 1500 mark 0
AnchorPoint: "Anchor-69" 75 1500 mark 0
AnchorPoint: "Anchor-65" 75 1500 mark 0
AnchorPoint: "Anchor-58" 75 1500 mark 0
AnchorPoint: "Anchor-51" 75 1500 mark 0
AnchorPoint: "Anchor-45" 75 1500 mark 0
AnchorPoint: "Anchor-38" 75 1500 mark 0
AnchorPoint: "Anchor-31" 75 1500 mark 0
AnchorPoint: "Anchor-24" 75 1500 mark 0
AnchorPoint: "Anchor-17" 75 1500 mark 0
AnchorPoint: "Anchor-12" 75 1500 mark 0
AnchorPoint: "Anchor-5" 75 1500 mark 0
AnchorPoint: "Anchor-2" 0 0 mark 0
LayerCount: 2
Fore
SplineSet
195 1680 m 1
 195 1693 223 1752 235 1752 c 0
 251 1752 265 1683 266 1662 c 0
 266 1655 267 1649 267 1642 c 0
 267 1589 253 1539 220 1519 c 0
 209 1514 195 1510 176 1508 c 0
 167 1508 158 1508 149 1510 c 0
 131 1510 104 1519 92 1529 c 1
 55 1501 29 1481 -35 1478 c 2
 -51 1478 l 2
 -52 1478 -53 1478 -54 1478 c 0
 -57 1478 -59 1477 -59 1475 c 0
 -59 1474 l 2
 -57 1444 l 1
 -56 1415 l 1
 -61 1365 -80 1326 -113 1299 c 0
 -161 1263 -232 1238 -317 1238 c 0
 -426 1238 -502 1301 -504 1400 c 0
 -502 1451 -491 1480 -474 1511 c 0
 -456 1545 -444 1572 -433 1572 c 0
 -431 1572 -430 1570 -430 1567 c 0
 -443 1532 -467 1495 -467 1444 c 2
 -467 1430 l 1
 -453 1352 -386 1327 -295 1327 c 0
 -218 1327 -154 1346 -112 1381 c 0
 -102 1388 -97 1401 -97 1418 c 0
 -97 1488 -139 1535 -171 1582 c 0
 -173 1586 -174 1591 -174 1597 c 0
 -174 1600 -174 1604 -173 1608 c 2
 -154 1653 l 2
 -149 1666 -146 1670 -142 1670 c 0
 -133 1670 -113 1636 -106 1627 c 2
 -76 1580 l 2
 -71 1569 -61 1565 -47 1565 c 0
 -10 1565 48 1596 59 1605 c 0
 77 1622 92 1639 104 1656 c 0
 117 1677 125 1687 129 1687 c 0
 136 1687 138 1680 138 1669 c 0
 138 1646 127 1608 126 1605 c 1
 141 1601 176 1594 200 1589 c 1
 217 1591 223 1600 223 1611 c 0
 223 1633 200 1666 195 1680 c 1
EndSplineSet
Validated: 1
EndChar

StartChar: uni06DD
Encoding: 220 1757 222
Width: 2084
GlyphClass: 2
UnlinkRmOvrlpSave: 1
Flags: HMW
LayerCount: 2
Fore
SplineSet
1899 470 m 0
 1899 278 1841 119 1759 -1 c 1
 1835 -18 1889 -70 1935 -126 c 1
 1833 -145 1785 -163 1722 -216 c 0
 1599 -320 1467 -416 1298 -472 c 0
 1202 -506 1143 -551 1094 -631 c 0
 1078 -657 1063 -685 1044 -718 c 1
 995 -632 960 -565 881 -514 c 0
 835 -484 758 -463 702 -440 c 0
 573 -386 465 -299 366 -216 c 0
 305 -165 252 -143 150 -126 c 1
 196 -70 252 -18 329 -1 c 1
 246 119 189 278 189 470 c 0
 189 664 246 819 329 942 c 1
 252 959 197 1012 150 1068 c 1
 297 1094 344 1145 440 1224 c 0
 553 1314 653 1371 789 1417 c 0
 925 1466 977 1544 1044 1663 c 1
 1091 1579 1128 1508 1207 1458 c 0
 1231 1442 1262 1430 1298 1417 c 0
 1434 1371 1535 1314 1647 1224 c 0
 1701 1180 1729 1152 1779 1119 c 0
 1823 1090 1865 1081 1935 1068 c 1
 1889 1012 1836 959 1759 942 c 1
 1842 819 1899 664 1899 470 c 0
1583 1048 m 1
 1622 1024 1668 998 1724 998 c 0
 1770 998 1797 1012 1826 1033 c 1
 1734 1063 1677 1120 1611 1176 c 0
 1502 1265 1411 1314 1281 1361 c 0
 1168 1398 1101 1456 1044 1548 c 1
 987 1456 919 1398 806 1361 c 0
 659 1308 542 1237 426 1133 c 0
 379 1090 328 1054 262 1033 c 1
 291 1012 318 998 364 998 c 0
 420 998 466 1024 505 1048 c 1
 521 1031 544 995 575 995 c 0
 582 995 592 1000 606 1013 c 0
 655 1056 717 1118 809 1118 c 0
 889 1118 946 1112 992 1079 c 0
 1008 1068 1025 1053 1044 1036 c 1
 1088 1076 1125 1109 1201 1115 c 0
 1222 1116 1248 1118 1278 1118 c 0
 1370 1118 1432 1056 1481 1013 c 0
 1495 1000 1506 995 1513 995 c 0
 1544 995 1569 1031 1583 1048 c 1
1712 2 m 1
 1798 124 1857 276 1857 470 c 0
 1857 666 1798 819 1712 939 c 1
 1662 939 1634 954 1594 975 c 1
 1577 958 1544 936 1513 936 c 0
 1472 936 1437 976 1410 999 c 0
 1377 1026 1335 1062 1278 1062 c 0
 1145 1062 1111 1020 1044 953 c 1
 1021 976 1001 995 987 1009 c 0
 944 1052 898 1062 809 1062 c 0
 726 1062 675 993 626 956 c 0
 609 943 594 936 575 936 c 0
 544 936 510 958 493 975 c 1
 453 954 426 939 376 939 c 1
 290 820 230 663 230 470 c 0
 230 278 292 122 376 2 c 1
 426 2 453 -10 493 -31 c 1
 510 -17 545 8 575 8 c 0
 618 8 652 -33 679 -56 c 0
 712 -85 750 -118 809 -118 c 0
 896 -118 944 -108 987 -65 c 0
 1001 -51 1021 -32 1044 -9 c 1
 1094 -59 1121 -103 1201 -114 c 0
 1221 -117 1247 -118 1278 -118 c 0
 1364 -118 1411 -49 1461 -12 c 0
 1478 1 1496 8 1513 8 c 0
 1543 8 1577 -17 1594 -31 c 1
 1634 -10 1661 2 1712 2 c 1
505 -104 m 1
 466 -83 418 -56 364 -56 c 0
 321 -56 291 -71 262 -92 c 1
 352 -122 410 -181 476 -235 c 0
 583 -322 674 -374 806 -417 c 0
 920 -456 983 -514 1044 -604 c 1
 1105 -514 1167 -456 1281 -417 c 0
 1431 -367 1556 -291 1662 -194 c 0
 1709 -151 1759 -115 1826 -92 c 1
 1797 -71 1766 -56 1723 -56 c 0
 1669 -56 1622 -83 1583 -104 c 1
 1567 -87 1544 -51 1513 -51 c 0
 1506 -51 1495 -58 1481 -71 c 0
 1434 -114 1368 -176 1278 -176 c 0
 1158 -176 1105 -149 1044 -92 c 1
 983 -149 929 -176 809 -176 c 0
 719 -176 653 -114 606 -71 c 0
 592 -58 582 -51 575 -51 c 0
 544 -51 519 -87 505 -104 c 1
1245 1229 m 0
 1245 1245 1256 1259 1273 1259 c 0
 1319 1259 1365 1233 1401 1216 c 0
 1441 1196 1492 1162 1519 1132 c 0
 1525 1126 1527 1120 1527 1113 c 0
 1527 1097 1513 1085 1497 1085 c 0
 1488 1085 1481 1088 1474 1095 c 0
 1431 1148 1353 1185 1267 1202 c 0
 1254 1205 1245 1215 1245 1229 c 0
1044 1355 m 0
 1097 1355 1141 1308 1141 1255 c 0
 1141 1202 1097 1159 1044 1159 c 0
 991 1159 947 1202 947 1255 c 0
 947 1308 991 1355 1044 1355 c 0
815 1259 m 0
 832 1259 842 1245 842 1229 c 0
 842 1215 834 1205 821 1202 c 0
 735 1185 656 1148 613 1095 c 0
 606 1088 599 1083 592 1083 c 0
 578 1083 562 1099 562 1113 c 0
 562 1120 565 1128 569 1132 c 0
 612 1181 686 1222 755 1248 c 0
 778 1257 798 1259 815 1259 c 0
1497 -142 m 0
 1511 -142 1526 -155 1526 -169 c 0
 1526 -195 1492 -212 1471 -228 c 0
 1431 -257 1385 -283 1335 -302 c 0
 1312 -311 1293 -315 1274 -315 c 0
 1255 -315 1245 -303 1245 -287 c 0
 1245 -273 1254 -262 1267 -259 c 0
 1356 -242 1427 -207 1474 -154 c 0
 1481 -147 1488 -142 1497 -142 c 0
1044 -218 m 0
 1098 -218 1141 -260 1141 -314 c 0
 1141 -367 1097 -411 1044 -411 c 0
 991 -411 947 -367 947 -314 c 0
 947 -260 990 -218 1044 -218 c 0
562 -169 m 0
 562 -155 576 -142 590 -142 c 0
 599 -142 606 -147 613 -154 c 0
 654 -207 739 -242 821 -259 c 0
 834 -262 842 -273 842 -287 c 0
 842 -303 833 -315 814 -315 c 0
 767 -315 721 -293 685 -274 c 0
 644 -254 596 -221 569 -188 c 0
 565 -184 562 -176 562 -169 c 0
EndSplineSet
EndChar

StartChar: uni06DE
Encoding: 221 1758 223
Width: 1585
GlyphClass: 2
UnlinkRmOvrlpSave: 1
Flags: HMW
LayerCount: 2
Fore
SplineSet
793 539 m 4
 847 539 889 498 889 444 c 4
 889 391 846 350 793 350 c 4
 739 350 698 390 698 444 c 4
 698 499 738 539 793 539 c 4
402 21 m 4
 440 21 489 12 528 12 c 4
 593 12 605 50 626 97 c 4
 633 113 642 135 653 162 c 5
 640 170 630 176 616 184 c 5
 602 160 573 122 534 122 c 4
 514 122 514 127 494 127 c 4
 485 127 476 126 471 121 c 5
 474 128 476 136 476 147 c 4
 476 166 470 166 470 185 c 4
 470 222 507 255 535 266 c 5
 526 278 519 292 512 305 c 5
 445 279 361 268 361 179 c 4
 361 139 372 104 372 64 c 4
 372 46 371 33 367 18 c 5
 378 20 389 21 402 21 c 4
692 147 m 5
 671 94 648 50 648 -11 c 4
 648 -109 720 -161 760 -232 c 4
 773 -255 784 -278 793 -299 c 5
 811 -257 841 -202 869 -169 c 4
 894 -137 912 -108 923 -84 c 4
 934 -60 939 -36 939 -11 c 4
 939 50 916 94 895 147 c 5
 880 141 867 139 850 135 c 5
 854 121 858 106 858 87 c 4
 858 53 847 26 829 6 c 4
 812 -13 803 -34 793 -61 c 5
 783 -34 773 -14 758 6 c 4
 742 26 727 53 727 87 c 4
 727 104 731 121 735 135 c 5
 720 139 706 141 692 147 c 5
443 510 m 4
 458 510 472 506 483 502 c 5
 486 515 491 530 496 545 c 5
 465 558 440 569 420 578 c 4
 400 587 380 592 363 592 c 4
 296 592 266 515 232 478 c 4
 219 464 205 453 190 444 c 5
 240 417 270 352 312 316 c 4
 326 304 340 297 356 297 c 4
 389 297 410 309 438 320 c 4
 453 326 473 334 496 344 c 5
 491 358 487 372 483 387 c 5
 472 383 457 379 443 379 c 4
 415 379 387 389 375 408 c 4
 367 423 354 438 338 444 c 5
 364 456 375 491 404 503 c 4
 416 508 430 510 443 510 c 4
1216 54 m 4
 1216 99 1225 138 1225 179 c 4
 1225 245 1188 257 1140 278 c 4
 1124 285 1102 294 1075 305 c 5
 1069 294 1062 281 1053 266 c 5
 1074 259 1115 223 1115 186 c 4
 1115 170 1110 165 1110 147 c 4
 1110 138 1112 130 1116 121 c 5
 1109 126 1101 127 1091 127 c 4
 1073 127 1069 122 1051 122 c 4
 1014 122 985 159 971 184 c 5
 957 176 947 170 932 162 c 5
 959 96 969 12 1059 12 c 4
 1101 12 1128 24 1172 24 c 4
 1188 24 1204 22 1219 18 c 5
 1217 29 1216 41 1216 54 c 4
1020 444 m 4
 1020 549 957 620 882 652 c 4
 854 664 824 670 793 670 c 4
 688 670 617 606 584 532 c 4
 572 505 567 475 567 444 c 4
 567 337 630 270 705 236 c 4
 732 224 762 219 793 219 c 4
 900 219 968 280 1002 356 c 4
 1014 383 1020 413 1020 444 c 4
616 702 m 5
 629 711 640 718 653 727 c 5
 626 792 616 876 527 876 c 4
 488 876 453 865 413 865 c 4
 395 865 382 866 367 870 c 5
 370 860 371 848 371 834 c 4
 371 788 361 754 361 709 c 4
 361 645 399 630 446 610 c 4
 462 603 485 595 512 584 c 5
 519 597 526 611 535 623 c 5
 507 632 470 670 470 704 c 4
 470 722 476 723 476 743 c 4
 476 752 474 760 471 766 c 5
 479 763 486 761 492 761 c 4
 511 761 515 767 533 767 c 4
 569 767 604 729 616 702 c 5
1090 344 m 5
 1129 328 1178 297 1221 297 c 4
 1267 297 1290 323 1313 358 c 4
 1337 394 1360 423 1395 444 c 5
 1347 473 1314 537 1274 574 c 4
 1261 586 1247 592 1232 592 c 4
 1200 592 1176 580 1149 569 c 4
 1134 563 1114 555 1090 545 c 5
 1096 530 1100 515 1102 502 c 5
 1114 506 1127 510 1144 510 c 4
 1172 510 1198 500 1210 481 c 4
 1220 463 1229 451 1249 444 c 5
 1217 433 1213 399 1182 386 c 4
 1170 381 1157 379 1144 379 c 4
 1129 379 1114 383 1102 387 c 5
 1100 370 1096 356 1090 344 c 5
895 741 m 5
 916 794 939 838 939 900 c 4
 939 925 933 950 922 974 c 4
 902 1018 854 1071 827 1120 c 4
 814 1144 802 1167 793 1188 c 5
 775 1147 747 1091 720 1059 c 4
 682 1010 648 969 648 899 c 4
 648 838 671 794 692 741 c 5
 699 743 707 746 714 748 c 4
 721 750 728 752 735 754 c 5
 731 768 727 784 727 801 c 4
 727 855 758 877 778 913 c 4
 784 924 788 936 793 950 c 5
 803 923 812 902 829 883 c 4
 845 863 858 835 858 801 c 4
 858 782 854 768 850 754 c 5
 866 750 880 745 895 741 c 5
1115 703 m 4
 1115 666 1074 630 1053 623 c 5
 1062 608 1069 595 1075 584 c 5
 1130 606 l 6
 1180 625 1227 645 1227 713 c 4
 1227 755 1213 782 1213 826 c 4
 1213 841 1215 856 1219 870 c 5
 1209 867 1197 866 1183 866 c 4
 1143 866 1096 877 1056 877 c 4
 992 877 980 837 960 791 c 4
 953 775 943 754 932 727 c 5
 947 718 957 712 971 702 c 5
 982 731 1014 767 1052 767 c 4
 1068 767 1078 761 1094 761 c 4
 1100 761 1107 763 1116 766 c 5
 1112 758 1110 750 1110 741 c 4
 1110 725 1115 719 1115 703 c 4
1254 825 m 4
 1254 784 1266 754 1266 712 c 4
 1266 679 1258 652 1243 631 c 5
 1314 623 1343 545 1384 504 c 4
 1421 467 1460 462 1518 444 c 5
 1455 428 1414 417 1378 378 c 4
 1340 336 1309 265 1243 258 c 5
 1257 236 1266 212 1266 177 c 4
 1266 156 1262 136 1260 118 c 6
 1256 92 l 6
 1255 83 1254 74 1254 64 c 4
 1254 6 1283 -30 1307 -70 c 5
 1280 -54 1260 -44 1235 -31 c 4
 1216 -22 1200 -17 1173 -17 c 4
 1163 -17 1154 -18 1145 -19 c 6
 1119 -23 l 5
 1099 -25 1084 -29 1060 -29 c 4
 1024 -29 1001 -20 979 -6 c 5
 979 -94 940 -143 899 -195 c 4
 844 -263 819 -339 793 -432 c 5
 769 -339 743 -261 688 -195 c 4
 649 -148 608 -91 608 -6 c 5
 587 -21 560 -29 527 -29 c 4
 483 -29 456 -17 413 -17 c 4
 371 -17 348 -33 320 -48 c 4
 309 -54 296 -61 281 -70 c 5
 305 -30 333 5 333 64 c 4
 333 94 320 149 320 181 c 4
 320 214 328 238 342 258 c 5
 291 266 267 296 239 337 c 4
 208 382 183 411 127 428 c 4
 111 433 91 438 68 444 c 5
 129 458 176 473 208 512 c 4
 217 523 228 536 239 552 c 4
 273 601 307 627 342 631 c 5
 328 649 320 675 320 707 c 4
 320 747 333 784 333 825 c 4
 333 884 305 916 281 956 c 5
 321 932 353 904 413 904 c 4
 458 904 487 917 531 917 c 4
 562 917 588 909 608 893 c 5
 608 980 644 1029 687 1084 c 4
 739 1151 769 1229 793 1319 c 5
 819 1229 845 1150 899 1083 c 4
 942 1032 979 982 979 893 c 5
 999 907 1022 917 1056 917 c 4
 1095 917 1132 904 1173 904 c 4
 1213 904 1240 919 1267 934 c 4
 1278 940 1292 947 1307 956 c 5
 1283 917 1254 882 1254 825 c 4
EndSplineSet
EndChar

StartChar: uni06DF
Encoding: 222 1759 224
Width: 0
GlyphClass: 4
Flags: HMW
AnchorPoint: "Anchor-2" 225 0 mark 0
AnchorPoint: "Anchor-5" 275 -75 mark 0
AnchorPoint: "Anchor-12" 275 -75 mark 0
AnchorPoint: "Anchor-17" 275 -75 mark 0
AnchorPoint: "Anchor-24" 275 -75 mark 0
AnchorPoint: "Anchor-31" 275 -75 mark 0
AnchorPoint: "Anchor-38" 275 -75 mark 0
AnchorPoint: "Anchor-45" 275 -75 mark 0
AnchorPoint: "Anchor-51" 275 -75 mark 0
AnchorPoint: "Anchor-58" 275 -75 mark 0
AnchorPoint: "Anchor-65" 275 -75 mark 0
AnchorPoint: "Anchor-69" 275 -75 mark 0
AnchorPoint: "Anchor-73" 275 -75 mark 0
AnchorPoint: "Anchor-79" 275 -75 mark 0
LayerCount: 2
Fore
SplineSet
188 0 m 4
 135 0 98 30 94 83 c 5
 94 93 l 6
 94 112 99 133 108 154 c 4
 128 196 148 239 168 281 c 5
 163 284 161 287 163 292 c 4
 174 315 187 342 203 372 c 4
 206 377 211 380 216 380 c 4
 221 380 228 377 238 370 c 4
 305 327 377 287 377 190 c 4
 377 102 297 6 208 2 c 4
 205 1 198 1 188 0 c 4
165 160 m 4
 165 134 186 121 214 118 c 4
 252 118 288 135 299 161 c 4
 302 170 296 182 280 198 c 4
 263 212 238 232 205 255 c 5
 184 215 l 5
 171 184 165 166 165 160 c 4
EndSplineSet
Validated: 1
EndChar

StartChar: uni06E0
Encoding: 223 1760 225
Width: 0
GlyphClass: 4
Flags: HMW
AnchorPoint: "Anchor-79" 275 -25 mark 0
AnchorPoint: "Anchor-73" 275 -25 mark 0
AnchorPoint: "Anchor-69" 275 -25 mark 0
AnchorPoint: "Anchor-65" 275 -25 mark 0
AnchorPoint: "Anchor-58" 275 -25 mark 0
AnchorPoint: "Anchor-51" 275 -25 mark 0
AnchorPoint: "Anchor-45" 275 -25 mark 0
AnchorPoint: "Anchor-38" 275 -25 mark 0
AnchorPoint: "Anchor-31" 275 -25 mark 0
AnchorPoint: "Anchor-24" 275 -25 mark 0
AnchorPoint: "Anchor-17" 275 -25 mark 0
AnchorPoint: "Anchor-12" 275 -25 mark 0
AnchorPoint: "Anchor-5" 275 -25 mark 0
AnchorPoint: "Anchor-2" 0 0 mark 0
LayerCount: 2
Fore
SplineSet
104 232 m 1
 109 348 155 463 260 474 c 1
 314 471 355 444 383 394 c 0
 411 344 425 293 425 240 c 2
 425 221 l 2
 425 109 368 -3 262 -7 c 1
 150 -5 104 114 104 232 c 1
258 406 m 1
 196 399 173 311 168 238 c 1
 171 164 195 63 264 57 c 1
 327 63 354 153 354 228 c 2
 354 250 l 2
 354 282 346 315 330 349 c 0
 313 385 289 404 258 406 c 1
EndSplineSet
Validated: 1
EndChar

StartChar: uni06E1
Encoding: 224 1761 226
Width: 0
GlyphClass: 4
Flags: HMW
AnchorPoint: "Anchor-89" 0 0 basemark 0
AnchorPoint: "Anchor-88" 0 0 basemark 0
AnchorPoint: "Anchor-87" 0 0 basemark 0
AnchorPoint: "Anchor-86" 150 375 basemark 0
AnchorPoint: "Anchor-86" 215 -50 mark 0
AnchorPoint: "Anchor-79" 215 -50 mark 0
AnchorPoint: "Anchor-73" 215 -50 mark 0
AnchorPoint: "Anchor-69" 215 -50 mark 0
AnchorPoint: "Anchor-65" 215 -50 mark 0
AnchorPoint: "Anchor-58" 215 -50 mark 0
AnchorPoint: "Anchor-51" 215 -50 mark 0
AnchorPoint: "Anchor-45" 215 -50 mark 0
AnchorPoint: "Anchor-38" 215 -50 mark 0
AnchorPoint: "Anchor-31" 215 -50 mark 0
AnchorPoint: "Anchor-24" 215 -50 mark 0
AnchorPoint: "Anchor-17" 215 -50 mark 0
AnchorPoint: "Anchor-12" 215 -50 mark 0
AnchorPoint: "Anchor-5" 215 -50 mark 0
AnchorPoint: "Anchor-2" 225 -15 mark 0
LayerCount: 2
Fore
SplineSet
197 319 m 4
 266 319 349 285 398 257 c 4
 406 254 410 244 409 227 c 4
 408 196 394 169 365 146 c 4
 315 110 154 31 79 16 c 5
 54 16 49 33 66 48 c 4
 75 56 144 102 274 187 c 5
 275 189 276 191 276 193 c 4
 276 212 217 221 193 221 c 4
 181 221 168 219 156 216 c 4
 142 212 122 194 95 162 c 4
 75 139 66 128 58 144 c 4
 57 148 64 166 78 198 c 4
 92 232 109 262 129 289 c 4
 146 309 169 319 197 319 c 4
EndSplineSet
Validated: 1
EndChar

StartChar: uni06E2
Encoding: 225 1762 227
Width: 4
GlyphClass: 4
Flags: HMW
AnchorPoint: "Anchor-86" 375 460 mark 0
AnchorPoint: "Anchor-79" 375 460 mark 0
AnchorPoint: "Anchor-73" 375 460 mark 0
AnchorPoint: "Anchor-69" 375 460 mark 0
AnchorPoint: "Anchor-65" 375 460 mark 0
AnchorPoint: "Anchor-58" 375 460 mark 0
AnchorPoint: "Anchor-51" 375 460 mark 0
AnchorPoint: "Anchor-45" 375 460 mark 0
AnchorPoint: "Anchor-38" 375 460 mark 0
AnchorPoint: "Anchor-31" 375 460 mark 0
AnchorPoint: "Anchor-24" 375 460 mark 0
AnchorPoint: "Anchor-17" 375 460 mark 0
AnchorPoint: "Anchor-12" 375 460 mark 0
AnchorPoint: "Anchor-5" 375 460 mark 0
AnchorPoint: "Anchor-2" 0 0 mark 0
LayerCount: 2
Fore
SplineSet
82 637 m 0
 82 681 120 786 173 786 c 0
 180 786 188 785 195 782 c 0
 220 769 337 672 341 648 c 0
 342 646 340 642 338 635 c 0
 334 628 323 606 304 569 c 0
 302 566 300 565 299 565 c 0
 246 557 78 533 78 494 c 1
 108 269 123 134 123 87 c 0
 123 72 122 61 122 53 c 0
 117 34 107 0 98 0 c 0
 94 0 89 7 86 24 c 0
 77 94 40 379 34 445 c 1
 34 568 88 606 184 648 c 1
 174 658 154 675 135 675 c 0
 129 675 123 673 117 669 c 0
 110 664 104 655 97 643 c 0
 90 631 87 625 86 625 c 0
 83 625 82 629 82 637 c 0
EndSplineSet
Validated: 1
EndChar

StartChar: uni06E4
Encoding: 227 1764 229
Width: 0
GlyphClass: 4
Flags: HMW
AnchorPoint: "Anchor-2" 225 0 mark 0
AnchorPoint: "Anchor-5" 231 0 mark 0
AnchorPoint: "Anchor-12" 275 0 mark 0
AnchorPoint: "Anchor-17" 275 0 mark 0
AnchorPoint: "Anchor-24" 275 0 mark 0
AnchorPoint: "Anchor-31" 275 0 mark 0
AnchorPoint: "Anchor-38" 275 0 mark 0
AnchorPoint: "Anchor-45" 275 0 mark 0
AnchorPoint: "Anchor-51" 275 0 mark 0
AnchorPoint: "Anchor-58" 275 0 mark 0
AnchorPoint: "Anchor-65" 275 0 mark 0
AnchorPoint: "Anchor-69" 275 0 mark 0
AnchorPoint: "Anchor-73" 275 0 mark 0
AnchorPoint: "Anchor-79" 275 0 mark 0
LayerCount: 2
Fore
SplineSet
79 94 m 4
 47 94 -14 39 -39 18 c 4
 -41 18 -43 20 -43 22 c 4
 -43 31 -30 52 -18 72 c 5
 14 117 l 5
 55 171 89 197 116 197 c 4
 125 197 132 194 139 191 c 4
 188 165 229 147 261 137 c 4
 285 131 308 128 332 128 c 4
 349 128 365 130 382 133 c 4
 421 139 475 167 546 214 c 4
 554 220 559 222 562 222 c 4
 564 222 567 221 567 217 c 6
 567 216 l 6
 567 207 557 190 538 167 c 4
 488 104 395 21 292 21 c 4
 228 21 135 72 91 92 c 4
 87 93 83 94 79 94 c 4
EndSplineSet
Validated: 1
EndChar

StartChar: uni06E5
Encoding: 228 1765 230
Width: 645
GlyphClass: 2
Flags: HMW
AnchorPoint: "Cursive-83" 425 0 entry 0
AnchorPoint: "Anchor-11" 850 1100 basechar 0
AnchorPoint: "Anchor-10" 800 1650 basechar 0
AnchorPoint: "Anchor-9" 301 -266 basechar 0
AnchorPoint: "Anchor-8" 297 682 basechar 0
AnchorPoint: "Anchor-7" 184 184 basechar 0
AnchorPoint: "Anchor-6" 123 184 basechar 0
AnchorPoint: "Anchor-5" 326 752 basechar 0
LayerCount: 2
Fore
SplineSet
479 224 m 1
 450 209 408 195 367 195 c 0
 309 200 278 224 274 266 c 0
 274 305 278 319 289 362 c 0
 319 467 356 520 400 520 c 0
 481 520 532 388 544 289 c 0
 545 284 545 279 546 274 c 1
 546 258 l 2
 546 226 540 187 529 140 c 0
 502 35 459 -35 398 -69 c 0
 363 -86 311 -98 240 -103 c 0
 182 -107 145 -109 129 -109 c 2
 122 -109 l 1
 113 -108 108 -105 107 -100 c 0
 107 -95 115 -89 132 -82 c 0
 195 -59 209 -49 278 -13 c 1
 338 24 386 63 422 106 c 0
 458 149 477 188 479 224 c 1
EndSplineSet
Validated: 1
EndChar

StartChar: uni06E6
Encoding: 229 1766 231
Width: 812
GlyphClass: 2
Flags: HMW
AnchorPoint: "Anchor-11" 950 1150 basechar 0
AnchorPoint: "Anchor-10" 950 1400 basechar 0
AnchorPoint: "Anchor-9" 266 -164 basechar 0
AnchorPoint: "Anchor-8" 225 512 basechar 0
AnchorPoint: "Anchor-7" 164 348 basechar 0
AnchorPoint: "Anchor-6" 102 369 basechar 0
AnchorPoint: "Anchor-5" 275 600 basechar 0
LayerCount: 2
Fore
SplineSet
115 187 m 4
 115 150 234 136 282 136 c 6
 522 136 l 6
 639 136 720 135 764 133 c 5
 771 130 775 127 775 124 c 4
 775 106 677 80 481 45 c 4
 446 40 404 37 353 36 c 4
 296 37 250 39 216 42 c 4
 93 57 31 95 31 154 c 4
 31 161 31 168 32 172 c 4
 47 244 89 294 158 322 c 5
 308 391 l 6
 329 400 344 418 356 446 c 4
 366 472 376 482 383 475 c 5
 422 462 478 307 487 259 c 5
 482 240 470 242 452 268 c 4
 433 292 418 316 406 337 c 4
 399 348 391 346 380 332 c 4
 370 318 350 305 319 292 c 4
 184 230 116 195 115 187 c 4
EndSplineSet
Validated: 1
EndChar

StartChar: uni06E7
Encoding: 230 1767 232
Width: 0
GlyphClass: 4
Flags: HMW
AnchorPoint: "Anchor-89" 0 0 basemark 0
AnchorPoint: "Anchor-88" 150 400 basemark 0
AnchorPoint: "Anchor-87" 325 400 basemark 0
AnchorPoint: "Anchor-86" 325 400 basemark 0
AnchorPoint: "Anchor-79" 330 475 mark 0
AnchorPoint: "Anchor-73" 330 475 mark 0
AnchorPoint: "Anchor-69" 330 475 mark 0
AnchorPoint: "Anchor-65" 330 475 mark 0
AnchorPoint: "Anchor-58" 330 475 mark 0
AnchorPoint: "Anchor-51" 330 475 mark 0
AnchorPoint: "Anchor-45" 330 475 mark 0
AnchorPoint: "Anchor-38" 330 475 mark 0
AnchorPoint: "Anchor-31" 330 475 mark 0
AnchorPoint: "Anchor-24" 330 475 mark 0
AnchorPoint: "Anchor-17" 330 475 mark 0
AnchorPoint: "Anchor-12" 330 475 mark 0
AnchorPoint: "Anchor-5" 330 475 mark 0
AnchorPoint: "Anchor-2" 0 0 mark 0
LayerCount: 2
Fore
SplineSet
115 647 m 0
 115 610 234 596 282 596 c 2
 522 596 l 2
 639 596 720 595 764 593 c 1
 771 590 775 587 775 584 c 0
 775 566 677 540 481 505 c 0
 446 500 404 497 353 496 c 0
 296 497 250 499 216 502 c 0
 93 517 31 555 31 614 c 0
 31 621 31 628 32 632 c 0
 47 704 89 754 158 782 c 1
 308 851 l 2
 329 860 344 878 356 906 c 0
 366 932 376 942 383 935 c 1
 422 922 478 767 487 719 c 1
 482 700 470 702 452 728 c 0
 433 752 418 776 406 797 c 0
 399 808 391 806 380 792 c 0
 370 778 350 765 319 752 c 0
 184 690 116 655 115 647 c 0
EndSplineSet
Validated: 1
EndChar

StartChar: uni06E8
Encoding: 231 1768 233
Width: 0
GlyphClass: 4
Flags: HMW
AnchorPoint: "Anchor-79" 350 600 mark 0
AnchorPoint: "Anchor-73" 350 600 mark 0
AnchorPoint: "Anchor-69" 350 600 mark 0
AnchorPoint: "Anchor-65" 350 600 mark 0
AnchorPoint: "Anchor-58" 350 600 mark 0
AnchorPoint: "Anchor-51" 350 600 mark 0
AnchorPoint: "Anchor-45" 350 600 mark 0
AnchorPoint: "Anchor-38" 350 600 mark 0
AnchorPoint: "Anchor-31" 350 600 mark 0
AnchorPoint: "Anchor-24" 350 600 mark 0
AnchorPoint: "Anchor-17" 350 600 mark 0
AnchorPoint: "Anchor-12" 350 600 mark 0
AnchorPoint: "Anchor-5" 350 600 mark 0
AnchorPoint: "Anchor-2" 0 0 mark 0
LayerCount: 2
Fore
SplineSet
260 1179 m 4
 260 1162 244 1147 229 1132 c 4
 226 1129 224 1128 221 1128 c 4
 211 1128 204 1139 195 1146 c 4
 188 1152 161 1164 165 1174 c 4
 180 1195 192 1212 202 1225 c 4
 204 1226 206 1226 209 1226 c 4
 225 1226 241 1208 254 1197 c 4
 259 1192 261 1186 260 1179 c 4
402 872 m 4
 402 925 334 1022 334 1042 c 4
 334 1055 341 1076 356 1102 c 4
 358 1105 360 1106 361 1106 c 4
 364 1106 368 1103 372 1096 c 4
 404 1046 437 953 437 889 c 4
 435 820 416 776 375 745 c 4
 331 715 287 696 219 696 c 4
 126 696 58 738 58 829 c 6
 58 844 l 6
 58 875 101 979 120 979 c 6
 121 979 l 6
 123 978 124 976 124 973 c 4
 124 968 122 963 118 956 c 4
 105 934 92 905 92 872 c 4
 92 811 144 773 206 773 c 4
 287 773 352 797 391 842 c 4
 398 851 401 858 401 865 c 4
 402 867 402 869 402 872 c 4
EndSplineSet
Validated: 1
EndChar

StartChar: uni06E9
Encoding: 232 1769 234
Width: 1231
VWidth: 1500
GlyphClass: 2
Flags: HMW
LayerCount: 2
Fore
SplineSet
735 183 m 5
 735 200 l 5
 504 200 l 5
 504 183 l 5
 735 183 l 5
735 233 m 5
 735 250 l 5
 504 250 l 5
 504 233 l 5
 735 233 l 5
735 283 m 5
 735 300 l 5
 504 300 l 5
 504 283 l 5
 735 283 l 5
735 335 m 5
 735 350 l 5
 504 350 l 5
 504 335 l 5
 735 335 l 5
735 382 m 5
 735 400 l 5
 504 400 l 5
 504 382 l 5
 735 382 l 5
735 434 m 5
 735 451 l 5
 504 451 l 5
 504 434 l 5
 735 434 l 5
735 483 m 5
 735 499 l 5
 504 499 l 5
 504 483 l 5
 735 483 l 5
735 533 m 5
 735 550 l 5
 504 550 l 5
 504 533 l 5
 735 533 l 5
735 581 m 5
 735 596 l 5
 504 596 l 5
 504 581 l 5
 735 581 l 5
735 632 m 5
 735 648 l 5
 504 648 l 5
 504 632 l 5
 735 632 l 5
845 706 m 5
 393 706 l 5
 400 685 l 5
 841 686 l 5
 843 688 845 695 845 706 c 5
831 736 m 5
 805 758 l 5
 429 758 l 5
 403 736 l 5
 831 736 l 5
773 788 m 5
 771 792 762 798 750 804 c 5
 477 804 l 5
 456 788 l 5
 773 788 l 5
731 829 m 5
 710 843 l 5
 518 843 l 5
 503 829 l 5
 731 829 l 5
685 870 m 5
 667 885 l 5
 566 885 l 5
 544 870 l 5
 685 870 l 5
646 905 m 5
 635 918 l 5
 600 918 l 5
 587 905 l 5
 646 905 l 5
889 706 m 4
 889 662 839 647 780 647 c 5
 780 138 l 5
 455 140 l 5
 455 646 l 5
 384 646 349 667 348 710 c 4
 348 729 370 758 413 796 c 6
 518 887 l 5
 577 944 608 974 611 978 c 5
 615 974 651 944 718 888 c 5
 821 799 l 5
 866 756 l 6
 881 741 889 723 889 706 c 4
983 713 m 4
 983 737 959 773 910 820 c 5
 737 958 l 5
 702 983 669 1014 637 1050 c 5
 614 1080 l 5
 590 1050 l 5
 567 1023 533 993 490 958 c 4
 452 930 394 885 317 820 c 4
 267 777 242 740 242 710 c 4
 242 680 255 655 279 633 c 4
 290 621 323 606 381 591 c 5
 381 217 l 6
 381 178 378 155 374 146 c 4
 372 122 360 95 341 65 c 5
 322 42 l 5
 907 42 l 5
 886 65 l 5
 870 88 859 115 854 148 c 4
 849 181 846 329 846 591 c 5
 901 606 935 620 948 633 c 4
 972 652 985 673 985 698 c 4
 985 703 984 708 983 713 c 4
339 555 m 5
 266 576 200 623 200 702 c 4
 200 707 200 711 201 716 c 4
 201 754 229 798 287 849 c 5
 462 991 l 5
 497 1017 528 1045 556 1077 c 5
 592 1126 611 1168 613 1201 c 5
 615 1168 636 1126 675 1077 c 4
 688 1058 720 1031 769 991 c 4
 801 968 859 921 944 849 c 4
 1002 799 1031 749 1031 703 c 4
 1031 684 1027 667 1021 650 c 4
 1006 609 963 577 892 555 c 5
 892 320 893 189 897 162 c 4
 901 135 914 107 937 75 c 5
 1000 2 l 5
 229 2 l 5
 294 73 l 5
 314 101 327 130 332 159 c 4
 337 188 339 320 339 555 c 5
EndSplineSet
Validated: 1
EndChar

StartChar: uni06EC
Encoding: 235 1772 237
Width: 385
GlyphClass: 2
Flags: HMW
LayerCount: 2
Fore
SplineSet
192 81 m 0
 117 81 61 138 61 214 c 256
 61 289 118 345 192 345 c 0
 267 345 325 288 325 214 c 256
 325 139 268 81 192 81 c 0
EndSplineSet
Validated: 1
EndChar

StartChar: uni06ED
Encoding: 236 1773 238
Width: 4
GlyphClass: 4
Flags: HMW
AnchorPoint: "Anchor-2" 0 0 mark 0
AnchorPoint: "Anchor-5" 375 460 mark 0
AnchorPoint: "Anchor-12" 375 460 mark 0
AnchorPoint: "Anchor-17" 375 460 mark 0
AnchorPoint: "Anchor-24" 375 460 mark 0
AnchorPoint: "Anchor-31" 375 460 mark 0
AnchorPoint: "Anchor-38" 375 460 mark 0
AnchorPoint: "Anchor-45" 375 460 mark 0
AnchorPoint: "Anchor-51" 375 460 mark 0
AnchorPoint: "Anchor-58" 375 460 mark 0
AnchorPoint: "Anchor-65" 375 460 mark 0
AnchorPoint: "Anchor-69" 375 460 mark 0
AnchorPoint: "Anchor-73" 375 460 mark 0
AnchorPoint: "Anchor-79" 375 460 mark 0
AnchorPoint: "Anchor-86" 375 460 mark 0
LayerCount: 2
Fore
SplineSet
107 609 m 0
 107 653 145 758 198 758 c 0
 205 758 213 757 220 754 c 0
 245 741 362 644 366 620 c 0
 367 618 365 614 363 607 c 0
 359 600 348 578 329 541 c 0
 327 538 325 537 324 537 c 0
 271 529 103 505 103 466 c 1
 133 241 148 106 148 59 c 0
 148 44 147 33 147 25 c 0
 142 6 132 -28 123 -28 c 0
 119 -28 114 -21 111 -4 c 0
 102 66 65 351 59 417 c 1
 59 540 113 578 209 620 c 1
 199 630 179 647 160 647 c 0
 154 647 148 645 142 641 c 0
 135 636 129 627 122 615 c 0
 115 603 112 597 111 597 c 0
 108 597 107 601 107 609 c 0
EndSplineSet
Validated: 1
EndChar

StartChar: c.num.0.fa
Encoding: 239 1776 241
Width: 1100
VWidth: 4674
GlyphClass: 2
Flags: HMW
LayerCount: 2
Fore
SplineSet
420 740 m 0
 428 758 460 860 494 860 c 0
 550 860 686 728 712 708 c 0
 720 700 724 692 724 684 c 0
 724 632 688 588 672 548 c 0
 656 508 636 474 614 436 c 0
 610 426 608 420 604 420 c 0
 598 420 592 422 582 430 c 0
 520 478 456 528 390 576 c 0
 380 584 376 602 376 616 c 0
 376 656 408 712 420 740 c 0
EndSplineSet
Validated: 1
EndChar

StartChar: c.num.1.fa
Encoding: 240 1777 242
Width: 628
VWidth: 4678
GlyphClass: 2
Flags: HMW
LayerCount: 2
Fore
SplineSet
528 202 m 0
 528 140 528 -58 470 -58 c 0
 444 -58 448 4 444 24 c 0
 418 390 286 714 116 940 c 0
 104 956 100 978 100 1004 c 0
 100 1062 122 1136 134 1176 c 0
 141 1200 148 1221 159 1221 c 0
 163 1221 168 1218 174 1210 c 0
 366 956 528 644 528 202 c 0
EndSplineSet
Validated: 1
EndChar

StartChar: c.num.2.fa
Encoding: 241 1778 243
Width: 767
VWidth: 4680
GlyphClass: 2
Flags: HMW
LayerCount: 2
Fore
SplineSet
616 1170 m 0
 644.185144852 1170 646 1112.53718887 646 1048 c 0
 646 926 621 682 422 682 c 2
 414 682 l 2
 407 685 401 686 396 686 c 0
 387 686 381 682 381 673 c 0
 381 669 383 663 386 656 c 0
 450 506 486 356 486 164 c 2
 486 146 l 2
 486 82 484 -58 442 -58 c 0
 398 -58 392 100 386 138 c 0
 340 422 220 644 118 876 c 0
 106 894 100 908 100 928 c 2
 134 1136 l 2
 136 1147 139 1151 143 1151 c 0
 149 1151 156 1143 162 1136 c 0
 204 1042 266 938 398 938 c 0
 542 938 558 1054 600 1160 c 0
 602 1166 610 1170 616 1170 c 0
EndSplineSet
Validated: 1
EndChar

StartChar: c.num.3.fa
Encoding: 242 1779 244
Width: 1056
VWidth: 4680
GlyphClass: 2
Flags: HMW
LayerCount: 2
Fore
SplineSet
486 164 m 2
 486 146 l 2
 486 82 484 -58 442 -58 c 0
 398 -58 392 100 386 138 c 0
 340 422 220 644 118 876 c 0
 106 894 100 908 100 928 c 2
 134 1136 l 2
 138 1162 152 1148 162 1136 c 1
 204 1042 266 938 398 938 c 0
 542 938 558 1054 600 1160 c 0
 602 1166 610 1170 616 1170 c 0
 628 1170 632 1162 632 1144 c 0
 632 1050 636 998 736 988 c 1
 754 988 l 2
 856 988 906 1074 906 1182 c 0
 906 1194 912 1198 926 1198 c 0
 950 1198 956 1164 956 1116 c 0
 956 1030 932 908 926 890 c 0
 898 806 828 734 738 734 c 0
 736 734 734 734 732 734 c 0
 674 736 626 762 584 808 c 1
 558 758 496 682 422 682 c 2
 414 682 l 1
 390 692 372 684 386 656 c 0
 450 506 486 356 486 164 c 2
EndSplineSet
Validated: 1
EndChar

StartChar: c.num.4.fa
Encoding: 243 1780 245
Width: 851
VWidth: 4680
GlyphClass: 2
Flags: HMW
LayerCount: 2
Fore
SplineSet
330 -64 m 0
 230 -64 188 20 188 112 c 0
 188 236 258 346 302 428 c 0
 316 452 322 466 322 470 c 0
 322 514 242 540 208 558 c 0
 140 592 100 640 100 740 c 2
 100 764 l 1
 114 916 198 1028 282 1112 c 2
 370 1200 l 2
 377 1207 383 1209 390 1209 c 0
 403 1209 414 1199 414 1188 c 0
 414 1185 413 1183 412 1180 c 0
 394 1126 384 1064 366 1008 c 1
 316 976 222 954 222 872 c 0
 222 812 336 790 380 768 c 0
 440 738 462 692 462 636 c 0
 462 522 368 376 336 308 c 0
 324 282 320 266 322 258 c 0
 320 254 320 250 320 246 c 0
 320 208 422 192 480 192 c 2
 512 192 l 1
 598 198 662 222 746 254 c 0
 752 260 752 232 750 228 c 0
 660 98 546 -64 330 -64 c 0
EndSplineSet
Validated: 1
EndChar

StartChar: c.num.5.fa
Encoding: 244 1781 246
Width: 820
VWidth: 4680
GlyphClass: 2
Flags: HMW
LayerCount: 2
Fore
SplineSet
404 402 m 0
 498 402 642 434 642 524 c 0
 642 624 464 754 370 754 c 0
 262 754 176 656 176 550 c 0
 176 458 310 402 404 402 c 0
392 142 m 0
 192 142 100 314 100 514 c 0
 100 706 180 900 296 984 c 0
 322 1002 352 1012 382 1012 c 0
 494 1012 576 918 624 844 c 0
 670 774 720 654 720 554 c 0
 720 300 638 142 392 142 c 0
EndSplineSet
Validated: 1
EndChar

StartChar: c.num.6.fa
Encoding: 245 1782 247
Width: 976
VWidth: 4680
GlyphClass: 2
Flags: HMW
LayerCount: 2
Fore
SplineSet
100 1104 m 0
 100 1136 100 1206 126 1206 c 0
 142 1206 150 1176 166 1166 c 0
 204 1142 264 1132 322 1132 c 0
 406 1132 480 1142 552 1156 c 0
 564 1158 574 1160 584 1160 c 0
 692 1160 694 1074 702 970 c 0
 722 760 736 570 790 396 c 0
 808 336 834 274 864 212 c 0
 870 194 876 174 876 156 c 0
 876 92 840 22 824 -34 c 0
 822 -50 816 -58 806 -58 c 0
 796 -58 786 -52 780 -36 c 0
 652 202 614 492 614 854 c 0
 614 870 590 874 558 874 c 0
 490 874 386 854 352 854 c 0
 226 854 126 892 108 1004 c 0
 102 1038 100 1072 100 1104 c 0
EndSplineSet
Validated: 1
EndChar

StartChar: c.num.7.fa
Encoding: 246 1783 248
Width: 1004
VWidth: 4680
GlyphClass: 2
Flags: HMW
LayerCount: 2
Fore
SplineSet
838 1206 m 0
 868 1206 892 1032 904 994 c 1
 904 966 896 960 884 940 c 0
 738 664 662 342 600 -20 c 0
 598 -48 584 -60 566 -60 c 0
 540 -60 540 -40 536 -20 c 0
 464 360 326 652 118 906 c 0
 104 924 100 954 100 984 c 0
 100 1040 116 1106 120 1154 c 0
 123 1175 132 1188 143 1188 c 0
 150 1188 157 1184 164 1174 c 0
 322 968 460 688 552 428 c 1
 602 694 680 962 798 1168 c 0
 814 1194 828 1206 838 1206 c 0
EndSplineSet
Validated: 1
EndChar

StartChar: c.num.8.fa
Encoding: 247 1784 249
Width: 1052
VWidth: 4680
GlyphClass: 2
Flags: HMW
LayerCount: 2
Fore
SplineSet
100 212 m 0
 100 228 114 246 120 258 c 0
 302 490 404 772 434 1152 c 0
 438 1170 444 1204 464 1204 c 0
 480 1204 490 1190 500 1160 c 0
 612 818 760 480 948 214 c 0
 950 210 952 204 952 200 c 2
 952 180 l 2
 952 112 948 34 936 -28 c 0
 932 -54 922 -74 906 -46 c 0
 744 192 578 466 494 778 c 1
 464 444 328 166 168 -42 c 0
 158 -57 145 -66 135 -66 c 0
 125 -66 116 -57 114 -36 c 0
 100 28 100 136 100 212 c 0
EndSplineSet
Validated: 1
EndChar

StartChar: c.num.9.fa
Encoding: 248 1785 250
Width: 884
VWidth: 4680
GlyphClass: 2
Flags: HMW
LayerCount: 2
Fore
SplineSet
460 834 m 1
 442 892 376 960 306 970 c 1
 260 970 194 914 194 868 c 0
 198 818 272 792 328 792 c 0
 372 792 460 802 460 834 c 1
322 548 m 0
 162 548 100 646 100 798 c 2
 100 812 l 1
 110 988 172 1192 344 1202 c 1
 516 1202 548 976 576 834 c 0
 624 590 666 350 774 168 c 0
 780 158 784 148 784 136 c 0
 784 98 756 58 744 30 c 0
 736 8 716 -68 692 -68 c 0
 686 -68 682 -64 676 -54 c 0
 568 108 522 368 510 620 c 1
 468 580 396 548 322 548 c 0
EndSplineSet
Validated: 1
EndChar

StartChar: s.zwnj
Encoding: 258 8204 257
Width: 68
GlyphClass: 2
Flags: HMW
LayerCount: 2
Fore
SplineSet
63 0 m 1
 0 0 l 1
 0 1628 l 1
 63 1626 l 1
 63 0 l 1
EndSplineSet
Validated: 1
EndChar

StartChar: s.zwj
Encoding: 259 8205 258
Width: 63
GlyphClass: 2
Flags: HMW
LayerCount: 2
Fore
SplineSet
180 1495 m 1
 150 1466 l 1
 66 1550 l 1
 66 0 l 1
 0 0 l 1
 0 1550 l 1
 -84 1466 l 1
 -115 1495 l 1
 -6 1604 l 1
 -115 1710 l 1
 -84 1741 l 1
 33 1632 l 1
 150 1741 l 1
 180 1710 l 1
 74 1604 l 1
 180 1495 l 1
EndSplineSet
Validated: 1
EndChar

StartChar: s.lrm
Encoding: 260 8206 259
Width: 63
GlyphClass: 2
Flags: HMW
LayerCount: 2
Fore
SplineSet
324 1604 m 1
 186 1456 l 1
 156 1487 l 1
 242 1573 l 1
 66 1573 l 1
 66 0 l 1
 0 0 l 1
 0 1638 l 1
 238 1638 l 1
 156 1720 l 1
 186 1751 l 1
 324 1604 l 1
EndSplineSet
Validated: 1
EndChar

StartChar: s.rlm
Encoding: 261 8207 260
Width: 63
GlyphClass: 2
Flags: HMW
LayerCount: 2
Fore
SplineSet
-123 1751 m 1
 -90 1720 l 1
 -172 1638 l 1
 63 1638 l 1
 63 0 l 1
 0 0 l 1
 0 1573 l 1
 -176 1573 l 1
 -90 1487 l 1
 -123 1456 l 1
 -258 1604 l 1
 -123 1751 l 1
EndSplineSet
Validated: 1
EndChar

StartChar: g.yeh.fina.fa
Encoding: 275 64509 263
Width: 1258
GlyphClass: 2
Flags: HMW
LayerCount: 2
Fore
SplineSet
272 151 m 4
 281 151 286 141 285 134 c 4
 285 124 278 109 264 89 c 4
 225 29 172 -46 169 -134 c 4
 169 -297 299 -368 430 -407 c 4
 469 -417 514 -422 564 -422 c 6
 608 -422 l 5
 618 -420 625 -419 629 -419 c 4
 777 -407 992 -328 1077 -251 c 5
 946 -222 874 -206 778 -182 c 4
 733 -171 711 -151 711 -120 c 4
 711 -117 712 -110 714 -101 c 4
 729 -56 762 -10 815 37 c 4
 877 94 968 138 1088 167 c 4
 1126 177 1177 183 1223 183 c 6
 1282 183 l 5
 1282 0 l 5
 1234 0 l 6
 1149 0 909 -6 909 -35 c 4
 909 -41 920 -43 926 -45 c 4
 1115 -87 1212 -114 1217 -127 c 5
 1224 -134 1227 -147 1226 -164 c 5
 1226 -177 l 5
 1224 -184 1223 -190 1223 -194 c 4
 1200 -338 1111 -396 1002 -464 c 4
 892 -528 747 -577 572 -593 c 5
 391 -593 260 -548 168 -461 c 4
 111 -404 76 -329 76 -225 c 4
 76 -187 82 -148 94 -109 c 4
 106 -64 131 -15 168 40 c 4
 220 114 255 151 272 151 c 4
EndSplineSet
Validated: 1
EndChar

StartChar: d3d
Encoding: 363 -1 269
Width: 0
GlyphClass: 2
Flags: HMW
LayerCount: 2
Fore
SplineSet
378 -367 m 0
 367 -394 344 -426 307 -462 c 0
 300 -469 293 -473 287 -473 c 0
 282 -473 274 -469 265 -462 c 0
 239 -436 209 -414 175 -393 c 0
 160 -384 153 -375 153 -367 c 0
 153 -365 153 -364 154 -362 c 0
 184 -312 206 -286 242 -246 c 0
 246 -242 250 -240 255 -240 c 0
 256 -240 257 -240 258 -240 c 0
 274 -240 306 -260 316 -267 c 0
 340 -284 381 -312 381 -349 c 0
 381 -356 380 -362 378 -367 c 0
473 -137 m 0
 461 -165 437 -197 400 -233 c 0
 395 -240 388 -244 381 -244 c 0
 376 -244 368 -240 359 -233 c 0
 355 -229 292 -175 287 -171 c 0
 270 -160 256 -155 247 -155 c 1
 227 -182 202 -213 171 -248 c 0
 166 -255 159 -259 152 -259 c 0
 147 -259 139 -255 130 -248 c 0
 108 -226 67 -195 38 -178 c 0
 25 -173 19 -165 19 -157 c 0
 19 -154 20 -152 21 -149 c 0
 51 -102 79 -63 105 -32 c 0
 108 -29 114 -27 122 -27 c 0
 129 -27 138 -30 149 -35 c 0
 178 -50 205 -70 228 -95 c 1
 250 -115 l 2
 251 -116 252 -116 253 -116 c 0
 268 -116 309 -51 310 -49 c 0
 322 -33 331 -22 336 -18 c 0
 341 -12 347 -10 352 -10 c 0
 359 -10 367 -13 378 -18 c 0
 407 -35 435 -55 460 -80 c 0
 471 -93 476 -105 477 -117 c 0
 477 -123 476 -130 473 -137 c 0
EndSplineSet
Validated: 1
EndChar

StartChar: d1
Encoding: 364 -1 270
Width: 0
GlyphClass: 2
Flags: HMW
LayerCount: 2
Fore
SplineSet
231 109 m 4
 218 80 193 48 157 14 c 4
 150 7 144 4 138 4 c 4
 131 4 124 9 116 17 c 4
 96 39 54 69 26 86 c 4
 12 93 5 100 5 109 c 4
 5 111 5 113 6 115 c 4
 16 129 76 215 93 232 c 4
 96 235 101 237 108 238 c 4
 131 238 159 217 176 205 c 4
 197 189 234 163 234 128 c 4
 234 120 233 114 231 109 c 4
EndSplineSet
Validated: 1
EndChar

StartChar: d2
Encoding: 365 -1 271
Width: 0
GlyphClass: 2
Flags: HMW
LayerCount: 2
Fore
SplineSet
458 132 m 4
 446 102 422 69 386 34 c 4
 381 27 375 24 368 24 c 4
 361 24 353 28 345 36 c 4
 325 56 300 77 271 98 c 4
 254 109 242 114 234 114 c 5
 156 19 l 6
 151 14 144 11 137 10 c 4
 130 10 122 13 114 20 c 4
 91 45 61 69 23 91 c 4
 8 100 2 109 5 118 c 4
 33 163 62 203 91 238 c 4
 94 241 100 242 107 243 c 4
 114 243 122 241 133 236 c 4
 161 223 188 202 214 174 c 6
 234 152 l 5
 234 152 235 151 236 151 c 4
 250 151 313 245 320 252 c 4
 323 255 328 257 335 258 c 4
 342 258 352 255 363 249 c 4
 392 236 419 216 443 191 c 4
 456 178 462 165 462 151 c 4
 462 146 461 139 458 132 c 4
EndSplineSet
Validated: 1
EndChar

StartChar: d3
Encoding: 366 -1 272
Width: 0
GlyphClass: 2
Flags: HMW
LayerCount: 2
Fore
SplineSet
314 363 m 0
 314 335 296 315 282 295 c 0
 271 279 256 262 238 244 c 0
 233 239 226 236 219 236 c 0
 214 236 206 240 197 247 c 0
 175 269 134 299 106 316 c 0
 89 323 83 333 88 345 c 0
 119 390 141 425 175 462 c 0
 178 465 182 467 189 468 c 0
 196 468 205 465 216 460 c 0
 245 445 272 425 297 400 c 0
 309 388 315 376 314 363 c 0
448 128 m 0
 435 97 411 65 376 32 c 0
 369 25 362 21 355 21 c 0
 343 21 317 49 312 54 c 0
 309 57 248 110 223 110 c 1
 144 17 l 2
 139 10 132 6 125 6 c 0
 120 6 113 10 106 17 c 0
 81 40 50 64 13 87 c 0
 -4 98 -10 107 -6 116 c 0
 26 166 55 205 81 233 c 0
 84 236 89 238 96 238 c 0
 103 238 112 235 122 230 c 0
 152 215 179 196 204 172 c 1
 223 150 l 1
 228 147 234 149 242 157 c 0
 279 209 301 239 310 248 c 0
 315 253 320 255 327 255 c 0
 334 255 342 252 351 247 c 0
 381 232 408 212 433 187 c 0
 445 174 451 160 451 144 c 0
 451 141 450 135 448 128 c 0
EndSplineSet
Validated: 1
EndChar

StartChar: m.kasreh_uni06E2
Encoding: 373 -1 279
Width: 0
GlyphClass: 4
Flags: HMW
AnchorPoint: "Anchor-81" 525 -20 mark 0
AnchorPoint: "Anchor-76" 525 -20 mark 0
AnchorPoint: "Anchor-72" 525 -20 mark 0
AnchorPoint: "Anchor-68" 525 -20 mark 0
AnchorPoint: "Anchor-62" 525 -20 mark 0
AnchorPoint: "Anchor-55" 525 -20 mark 0
AnchorPoint: "Anchor-48" 525 -20 mark 0
AnchorPoint: "Anchor-42" 525 -20 mark 0
AnchorPoint: "Anchor-35" 525 -20 mark 0
AnchorPoint: "Anchor-28" 525 -20 mark 0
AnchorPoint: "Anchor-21" 525 -20 mark 0
AnchorPoint: "Anchor-16" 525 -20 mark 0
AnchorPoint: "Anchor-9" 525 -20 mark 0
AnchorPoint: "Anchor-4" 525 -20 mark 0
LayerCount: 2
Fore
SplineSet
609 -267 m 0
 470 -324 354 -383 222 -439 c 0
 211 -443 207 -440 210 -430 c 0
 219 -402 236 -347 259 -336 c 0
 380 -283 527 -219 650 -166 c 0
 661 -160 660 -164 658 -174 c 0
 648 -201 630 -257 609 -267 c 0
201 -131 m 1
 177 -126 161 -90 131 -90 c 0
 95 -90 64 -125 55 -152 c 0
 55 -153 52 -154 47 -154 c 128
 42 -154 39 -153 39 -150 c 0
 39 -148 39 -146 39 -144 c 0
 39 -77 78 -8 145 -4 c 1
 196 -8 245 -49 274 -78 c 128
 286 -90 296 -101 301 -111 c 1
 299 -141 291 -169 285 -197 c 1
 196 -207 89 -208 44 -263 c 128
 35 -274 32 -289 32 -305 c 0
 32 -331 40 -362 46 -387 c 128
 59 -444 70 -509 70 -578 c 128
 70 -611 64 -643 53 -674 c 0
 53 -683 43 -683 41 -674 c 0
 30 -568 13 -483 -1 -387 c 128
 -5 -359 -9 -332 -9 -302 c 0
 -9 -188 87 -131 201 -131 c 1
EndSplineSet
Validated: 1
Ligature2: "'liga' Standard Ligatures in Arabic lookup 0 subtable" m.kasreh uni06E2
EndChar

StartChar: g.ghaf.fina
Encoding: 272 64403 283
Width: 2334
GlyphClass: 2
Flags: HMW
LayerCount: 2
Fore
SplineSet
2144 2322 m 5
 2144 2316 l 6
 2144 2299 2134 2263 2115 2210 c 4
 2095 2155 2079 2125 2067 2118 c 4
 1973 2063 1821 1953 1609 1789 c 4
 1396 1624 1264 1540 1213 1540 c 6
 1212 1540 l 6
 1201 1540 1197 1544 1197 1552 c 4
 1197 1579 1266 1654 1403 1778 c 4
 1542 1903 1702 2028 1883 2157 c 4
 2037 2267 2123 2323 2141 2323 c 4
 2142 2323 2143 2323 2144 2322 c 5
2560 2317 m 4
 2560 2296 2489 2142 2476 2135 c 4
 2299 2029 2058 1867 1753 1649 c 4
 1364 1371 1159 1206 1139 1155 c 5
 1375 1051 1700 760 2115 280 c 4
 2171 215 2247 184 2344 184 c 6
 2357 184 l 5
 2357 2 l 5
 2346 2 l 6
 2272 2 2203 19 2140 53 c 4
 2088 81 1993 174 1856 330 c 4
 1675 537 1564 659 1523 699 c 5
 1553 600 1567 512 1568 435 c 4
 1568 378 1558 333 1540 301 c 4
 1467 173 1329 74 1125 2 c 4
 969 -51 818 -78 672 -78 c 4
 659 -78 649 -77 636 -77 c 4
 459 -70 325 -21 235 70 c 4
 166 138 133 214 133 298 c 4
 133 366 161 442 216 527 c 4
 267 606 305 646 329 646 c 4
 334 646 336 644 336 641 c 4
 336 638 318 607 282 546 c 4
 247 484 230 437 230 406 c 4
 230 333 268 270 342 213 c 4
 439 140 579 104 762 104 c 4
 893 104 1044 137 1215 203 c 4
 1393 271 1494 338 1518 406 c 4
 1519 410 1520 413 1520 417 c 6
 1520 422 l 6
 1520 456 1497 508 1452 581 c 4
 1413 643 1370 701 1323 754 c 4
 1308 770 1259 821 1174 905 c 4
 1113 967 1081 1007 1075 1023 c 4
 1075 1029 1099 1244 1100 1248 c 4
 1134 1333 1360 1527 1779 1830 c 4
 1989 1982 2170 2106 2321 2200 c 4
 2454 2282 2531 2323 2555 2323 c 4
 2558 2322 2560 2320 2560 2317 c 4
EndSplineSet
Validated: 1
EndChar

StartChar: g.ghaf.init
Encoding: 273 64404 284
Width: 1084
GlyphClass: 2
Flags: HMW
LayerCount: 2
Fore
SplineSet
207 183 m 2
 329 183 554 198 554 269 c 0
 554 322 524 398 463 498 c 0
 388 614 284 722 172 816 c 0
 144 841 116 859 88 868 c 0
 33 885 4 923 4 989 c 0
 4 1066 47 1166 80 1223 c 0
 129 1310 281 1383 427 1449 c 0
 624 1538 810 1620 1031 1694 c 1
 1036 1689 1040 1684 1041 1680 c 0
 1035 1634 1014 1597 987 1554 c 0
 976 1534 959 1518 936 1505 c 0
 659 1388 498 1341 226 1210 c 0
 195 1195 167 1179 138 1158 c 0
 128 1151 123 1142 123 1132 c 0
 123 1125 146 1096 192 1046 c 1
 336 907 546 680 609 487 c 0
 624 439 632 392 632 347 c 0
 632 216 588 113 510 59 c 0
 470 34 411 15 334 4 c 1
 -5 0 l 1
 -27 0 l 1
 -27 183 l 1
 207 183 l 2
912 1890 m 4
 901 1830 901 1835 883 1784 c 5
 166 1475 l 5
 161 1480 158 1485 158 1490 c 6
 177 1593 l 5
 908 1901 l 5
 911 1901 l 5
 912 1897 912 1893 912 1890 c 4
EndSplineSet
Validated: 1
EndChar

StartChar: g.ghaf.medi
Encoding: 274 64405 285
Width: 1277
GlyphClass: 2
Flags: HMW
LayerCount: 2
Fore
SplineSet
942 1890 m 0
 931 1830 931 1835 913 1784 c 1
 196 1475 l 1
 191 1480 188 1485 188 1490 c 2
 207 1593 l 1
 938 1901 l 1
 941 1901 l 1
 942 1897 942 1893 942 1890 c 0
1233 1728 m 1
 1238 1720 1241 1715 1241 1699 c 1
 1217 1622 1195 1557 1132 1522 c 1
 765 1373 557 1299 197 1139 c 0
 152 1119 141 1113 109 1081 c 0
 100 1074 94 1065 91 1053 c 1
 102 1037 111 1024 127 1005 c 2
 339 782 l 1
 467 654 551 574 674 455 c 0
 743 391 791 351 860 292 c 0
 939 226 1006 183 1158 183 c 2
 1293 183 l 1
 1293 0 l 1
 1169 0 l 2
 1068 0 981 4 918 35 c 0
 871 57 815 95 750 149 c 1
 396 498 l 1
 418 425 433 359 440 298 c 1
 440 186 389 121 313 72 c 0
 243 24 130 0 -26 0 c 1
 -26 183 l 1
 62 183 135 193 193 212 c 0
 299 244 352 281 352 323 c 0
 352 375 331 429 288 489 c 2
 138 706 l 2
 106 750 62 821 7 918 c 0
 -2 939 -5 966 -5 994 c 2
 -5 1013 l 2
 -4 1020 -3 1025 -3 1030 c 2
 -3 1034 l 1
 11 1096 33 1130 68 1188 c 0
 93 1229 167 1280 291 1343 c 1
 1036 1656 l 2
 1154 1704 1220 1728 1233 1728 c 1
EndSplineSet
Validated: 1
EndChar

StartChar: Allah
Encoding: 379 -1 286
Width: 1668
GlyphClass: 3
Flags: HMW
AnchorPoint: "Anchor-57" 0 0 baselig 0
AnchorPoint: "Anchor-56" 0 0 baselig 0
AnchorPoint: "Anchor-55" 1500 -140 baselig 0
AnchorPoint: "Anchor-54" 0 0 baselig 0
AnchorPoint: "Anchor-53" 0 0 baselig 0
AnchorPoint: "Anchor-52" 0 0 baselig 0
AnchorPoint: "Anchor-51" 1475 1075 baselig 0
AnchorPoint: "Anchor-57" 0 0 baselig 1
AnchorPoint: "Anchor-56" 0 0 baselig 1
AnchorPoint: "Anchor-55" 0 0 baselig 1
AnchorPoint: "Anchor-54" 0 0 baselig 1
AnchorPoint: "Anchor-53" 0 0 baselig 1
AnchorPoint: "Anchor-52" 0 0 baselig 1
AnchorPoint: "Anchor-51" 970 1025 baselig 1
AnchorPoint: "Anchor-57" 250 1200 baselig 2
AnchorPoint: "Anchor-56" 250 1550 baselig 2
AnchorPoint: "Anchor-55" 300 -165 baselig 2
AnchorPoint: "Anchor-54" 0 0 baselig 2
AnchorPoint: "Anchor-53" 0 0 baselig 2
AnchorPoint: "Anchor-52" 0 0 baselig 2
AnchorPoint: "Anchor-51" 375 900 baselig 2
LayerCount: 2
Fore
SplineSet
352 286 m 129
 406 288 461 298 492 323 c 1
 486 451 l 1
 385 416 276 380 208 312 c 0
 206 310 204 309 204 308 c 130
 204 304 l 1
 235 294 288 286 332 286 c 2
 352 286 l 129
486 542 m 1
 484 578 483 616 481 653 c 1
 504 706 525 757 555 804 c 0
 560 813 565 815 569 810 c 1
 572 656 578 482 588 340 c 128
 595 240 609 189 672 150 c 128
 696 135 725 128 759 128 c 0
 846 128 916 167 968 207 c 128
 999 231 1035 268 1035 317 c 0
 1035 322 1035 326 1034 331 c 2
 965 818 l 1
 965 839 978 870 986 890 c 128
 997 920 1009 971 1034 983 c 128
 1038 985 1041 982 1042 974 c 2
 1119 455 l 1
 1140 305 1228 206 1368 178 c 0
 1384 175 1402 173 1422 173 c 128
 1465 173 1535 181 1535 221 c 0
 1535 223 1535 225 1535 227 c 0
 1509 383 1446 527 1412 679 c 128
 1401 728 1385 789 1382 840 c 0
 1382 862 1396 892 1404 913 c 128
 1410 930 1434 1001 1454 1001 c 0
 1455 1001 1456 1000 1457 1000 c 128
 1462 998 1465 992 1466 984 c 0
 1491 803 1542 633 1590 476 c 128
 1612 403 1632 352 1632 272 c 0
 1632 156 1587 75 1516 26 c 128
 1484 4 1444 -7 1398 -7 c 0
 1229 -7 1133 80 1075 213 c 1
 1027 82 935 -46 781 -57 c 0
 774 -57 768 -58 761 -58 c 0
 583 -58 510 86 498 251 c 1
 464 198 434 141 373 121 c 0
 343 111 303 105 262 105 c 0
 193 105 132 118 90 145 c 1
 89 153 88 160 88 168 c 0
 88 227 117 278 144 318 c 128
 220 430 343 501 486 542 c 1
EndSplineSet
Validated: 1
LCarets2: 2 0 0
LCarets2: 2 26966 30565
Ligature2: "'calt' Contextual Alternates in Arabic lookup 5 subtable" g.lam.init g.lam.medi g.he8.fina
EndChar

StartChar: uniFB51
Encoding: 262 64337 287
Width: 543
GlyphClass: 2
Flags: HMW
LayerCount: 2
Fore
SplineSet
362 1774 m 5
 362 1789 349 1800 344 1812 c 5
 329 1825 314 1830 300 1830 c 0
 247 1830 200 1756 180 1716 c 132
 178 1711 177 1707 177 1704 c 0
 177 1696 184 1693 195 1693 c 0
 216 1693 250 1705 264 1709 c 134
 285 1716 l 5
 319 1734 342 1743 362 1774 c 5
336 1925 m 5
 384 1918 408 1875 408 1820 c 0
 408 1788 402 1759 389 1739 c 4
 346 1666 257 1596 142 1596 c 4
 88 1596 48 1611 10 1634 c 4
 9 1634 8 1634 7 1634 c 0
 -20 1634 -45 1544 -69 1544 c 0
 -70 1544 -72 1545 -73 1545 c 132
 -78 1547 -80 1552 -80 1559 c 4
 -74 1625 -30 1692 5 1732 c 132
 19 1748 38 1730 52 1725 c 132
 73 1717 100 1707 123 1702 c 5
 159 1764 199 1833 248 1882 c 132
 270 1904 297 1923 336 1925 c 5
EndSplineSet
Refer: 295 65166 N 1 0 0 1 0 0 3
Validated: 1
EndChar

StartChar: g.vav_hamzeUp.fina
Encoding: 280 65158 290
Width: 892
GlyphClass: 2
Flags: HMW
AnchorPoint: "Cursive-83" 0 0 exit 0
AnchorPoint: "Anchor-11" 300 1200 basechar 0
AnchorPoint: "Anchor-10" 300 1400 basechar 0
AnchorPoint: "Anchor-9" 246 -799 basechar 0
AnchorPoint: "Anchor-8" 400 1025 basechar 0
AnchorPoint: "Anchor-7" 184 532 basechar 0
AnchorPoint: "Anchor-6" 0 0 basechar 0
AnchorPoint: "Anchor-5" 450 1050 basechar 0
LayerCount: 2
Fore
SplineSet
533 932 m 4
 554 932 588 907 590 891 c 4
 590 876 583 870 568 848 c 4
 555 830 548 823 546 828 c 4
 535 844 519 854 502 854 c 4
 481 854 456 832 456 807 c 4
 460 781 483 772 511 772 c 4
 534 772 560 778 582 784 c 5
 664 813 l 6
 683 820 694 824 697 822 c 4
 700 822 698 808 693 783 c 4
 688 758 681 744 673 742 c 4
 576 712 535 689 462 638 c 4
 439 623 426 615 421 615 c 6
 419 615 l 6
 416 615 415 618 415 622 c 4
 415 638 431 677 433 680 c 5
 409 695 387 705 387 739 c 6
 387 747 l 5
 395 810 438 889 502 924 c 4
 513 929 523 932 533 932 c 4
925 0 m 1
 805 0 l 1
 764 -239 645 -440 467 -543 c 0
 418 -572 360 -589 276 -589 c 0
 164 -589 -43 -551 -124 -523 c 0
 -149 -514 -160 -507 -160 -502 c 0
 -160 -494 -132 -489 -85 -489 c 0
 -57 -489 -23 -489 16 -490 c 0
 55 -490 106 -487 167 -480 c 0
 228 -473 286 -455 341 -426 c 0
 421 -386 535 -292 598 -206 c 0
 616 -181 636 -150 658 -113 c 0
 685 -60 699 -23 702 0 c 1
 576 8 l 1
 467 16 402 33 371 106 c 0
 366 123 363 141 363 160 c 0
 363 188 370 216 378 240 c 0
 405 319 466 410 532 454 c 0
 553 468 572 475 590 475 c 0
 593 475 597 474 600 474 c 0
 635 471 670 439 707 378 c 0
 739 326 767 261 790 183 c 1
 925 183 l 1
 925 0 l 1
498 227 m 0
 498 185 547 188 588 184 c 0
 610 184 626 183 637 183 c 1
 602 250 l 1
 585 279 567 294 549 295 c 0
 523 295 498 257 498 227 c 0
EndSplineSet
Validated: 1
EndChar

StartChar: g.yeh_hamze.init
Encoding: 283 65163 293
Width: 743
GlyphClass: 2
Flags: HMW
AnchorPoint: "Anchor-11" 0 0 basechar 0
AnchorPoint: "Anchor-10" 0 0 basechar 0
AnchorPoint: "Anchor-9" 200 -175 basechar 0
AnchorPoint: "Anchor-8" 150 1260 basechar 0
AnchorPoint: "Anchor-7" 150 1370 basechar 0
AnchorPoint: "Anchor-6" 120 1295 basechar 0
AnchorPoint: "Anchor-5" 120 1250 basechar 0
LayerCount: 2
Fore
SplineSet
678 341 m 0
 678 254 645 149 600 98 c 0
 548 33 440 0 309 0 c 2
 -45 0 l 1
 -45 183 l 1
 308 183 l 2
 398 183 514 198 566 238 c 0
 582 251 585 268 585 280 c 0
 575 315 529 380 447 474 c 0
 437 484 432 495 432 505 c 0
 432 508 432 510 433 513 c 0
 448 565 468 619 486 655 c 0
 493 667 499 672 506 672 c 0
 512 672 519 668 528 659 c 0
 601 593 678 482 678 341 c 0
EndSplineSet
Refer: 85 1620 N 1.03302 0 0 1.01648 -160 269 0
Substitution2: "Single Substitution lookup 37 subtable" c.yeh_hamze.calt
Substitution2: "Single Substitution lookup 38 subtable" c.yeh_hamze.init_calt
Substitution2: "Single Substitution lookup 39 subtable" c.yeh_hamze.zz10
Substitution2: "Single Substitution lookup 50 subtable" c.yeh_hamze.zz24
EndChar

StartChar: g.yeh_hamze.medi
Encoding: 284 65164 294
Width: 837
GlyphClass: 2
Flags: HMW
AnchorPoint: "Anchor-11" 0 0 basechar 0
AnchorPoint: "Anchor-10" 0 0 basechar 0
AnchorPoint: "Anchor-9" 225 -200 basechar 0
AnchorPoint: "Anchor-8" 200 1000 basechar 0
AnchorPoint: "Anchor-7" 210 1035 basechar 0
AnchorPoint: "Anchor-6" 195 1035 basechar 0
AnchorPoint: "Anchor-5" 190 1000 basechar 0
LayerCount: 2
Fore
SplineSet
610 259 m 1
 658 211 761 183 858 183 c 1
 858 0 l 1
 731 0 616 60 541 124 c 1
 445 15 284 0 87 0 c 2
 -38 0 l 1
 -38 183 l 1
 84 183 l 2
 253 183 504 188 589 358 c 0
 597 373 601 387 611 387 c 0
 622 387 624 356 624 340 c 0
 624 316 619 289 610 259 c 1
EndSplineSet
Refer: 85 1620 N 1.03302 0 0 1.01648 -90 59 0
Substitution2: "Single Substitution lookup 37 subtable" c.yeh_hamze.zz03_calt
Substitution2: "Single Substitution lookup 38 subtable" c.yeh_hamze.zz09
Substitution2: "Single Substitution lookup 39 subtable" c.yeh_hamze.zz03_zz10
Substitution2: "Single Substitution lookup 47 subtable" c.yeh_hamze.zz03_zz21
Substitution2: "Single Substitution lookup 48 subtable" c.yeh_hamze.zz03_zz21
EndChar

StartChar: g.alef.fina
Encoding: 285 65166 295
Width: 543
GlyphClass: 2
Flags: HMWO
AnchorPoint: "Anchor-11" 144 1737 basechar 0
AnchorPoint: "Anchor-10" 144 1889 basechar 0
AnchorPoint: "Anchor-9" 391 -225 basechar 0
AnchorPoint: "Anchor-8" 129 1761 basechar 0
AnchorPoint: "Anchor-7" 400 1311 basechar 0
AnchorPoint: "Anchor-6" 229 1522 basechar 0
AnchorPoint: "Anchor-5" 63 1853 basechar 0
LayerCount: 2
Fore
SplineSet
81 1348 m 0
 82 1350 141 1511 153 1511 c 0
 166 1511 180 1493 196 1456 c 0
 212 1419 222 1377 226 1328 c 0
 229 1279 235 1190 243 1059 c 0
 261 770 278 569 294 456 c 0
 310 344 326 275 343 250 c 0
 368 205 408 182 463 182 c 2
 555 182 l 1
 555 0 l 1
 463 0 l 2
 300 0 243 103 222 252 c 0
 177 558 161 968 101 1255 c 1
 82 1328 l 1
 79 1335 79 1342 81 1348 c 0
EndSplineSet
Validated: 1
Substitution2: "Single Substitution lookup 42 subtable" c.alef.zz13
EndChar

StartChar: g.heh.fina
Encoding: 299 65186 309
Width: 1165
GlyphClass: 2
Flags: HMW
AnchorPoint: "Anchor-11" 403 1100 basechar 0
AnchorPoint: "Anchor-10" 353 1550 basechar 0
AnchorPoint: "Anchor-9" 922 -20 basechar 0
AnchorPoint: "Anchor-8" 628 900 basechar 0
AnchorPoint: "Anchor-7" 548 915 basechar 0
AnchorPoint: "Anchor-6" 548 825 basechar 0
AnchorPoint: "Anchor-5" 603 900 basechar 0
LayerCount: 2
Fore
SplineSet
860 273 m 0
 860 199 923 183 1012 183 c 2
 1180 183 l 1
 1180 0 l 1
 1073 0 l 2
 1006 0 946 5 892 15 c 0
 807 36 764 92 763 183 c 0
 763 220 769 257 781 296 c 2
 801 365 l 1
 799 365 l 2
 789 365 758 358 705 345 c 0
 491 292 328 144 239 -41 c 0
 196 -130 174 -204 174 -312 c 0
 174 -423 203 -499 250 -568 c 0
 369 -756 630 -826 949 -826 c 1
 1484 -822 l 2
 1491 -822 1497 -827 1500 -837 c 0
 1500 -844 1495 -849 1485 -852 c 2
 1162 -928 l 2
 1045 -955 942 -972 855 -980 c 1
 603 -980 407 -935 266 -816 c 0
 153 -724 74 -539 74 -325 c 0
 74 -312 75 -300 75 -290 c 0
 85 -166 112 -68 167 35 c 0
 235 168 322 286 440 371 c 0
 442 372 444 374 444 375 c 0
 444 382 411 386 383 387 c 1
 360 387 l 2
 238 387 199 340 135 269 c 0
 132 264 128 261 124 261 c 0
 122 261 121 263 121 267 c 0
 121 271 122 276 123 283 c 0
 143 363 213 479 269 522 c 0
 299 546 337 559 382 560 c 0
 514 560 654 538 793 538 c 1
 887 539 l 1
 968 543 l 1
 1070 550 l 2
 1076 550 1080 545 1080 535 c 2
 1080 532 l 1
 1051 473 1026 429 1005 400 c 0
 998 390 988 384 975 382 c 0
 947 380 917 376 886 371 c 1
 873 350 860 315 860 273 c 0
EndSplineSet
Validated: 1
EndChar

StartChar: g.heh.init
Encoding: 300 65187 310
Width: 1253
GlyphClass: 2
Flags: HMW
AnchorPoint: "Cursive-84" 1000 0 entry 0
AnchorPoint: "Cursive-83" 1200 0 entry 0
AnchorPoint: "Anchor-11" 0 0 basechar 0
AnchorPoint: "Anchor-10" 0 1500 basechar 0
AnchorPoint: "Anchor-9" 450 -200 basechar 0
AnchorPoint: "Anchor-8" 475 950 basechar 0
AnchorPoint: "Anchor-7" 390 900 basechar 0
AnchorPoint: "Anchor-6" 360 855 basechar 0
AnchorPoint: "Anchor-5" 425 950 basechar 0
LayerCount: 2
Fore
SplineSet
83 3 m 5
 -14 0 l 5
 -14 183 l 5
 -3 183 l 5
 144 190 254 200 330 214 c 4
 404 229 457 244 486 259 c 5
 466 277 415 306 332 345 c 4
 291 362 255 370 224 370 c 4
 209 370 191 367 170 360 c 4
 149 354 119 341 81 321 c 4
 69 315 59 312 52 312 c 4
 46 312 42 314 42 320 c 4
 42 325 45 333 51 343 c 4
 101 416 181 509 262 539 c 4
 273 542 280 544 285 544 c 4
 290 546 298 546 310 546 c 4
 327 546 345 543 362 536 c 4
 415 517 476 486 533 458 c 4
 570 440 631 413 718 378 c 4
 795 350 875 333 958 328 c 5
 1162 328 l 5
 1169 326 1173 323 1173 317 c 4
 1173 315 1172 312 1171 309 c 4
 1130 240 1103 197 1090 182 c 4
 1077 165 1063 156 1049 156 c 6
 776 156 l 6
 753 156 713 152 654 145 c 4
 597 137 516 114 410 76 c 4
 291 35 182 10 83 3 c 5
EndSplineSet
Validated: 1
Substitution2: "Single Substitution lookup 37 subtable" c.heh.calt
Substitution2: "Single Substitution lookup 38 subtable" c.heh.init_calt
EndChar

StartChar: g.heh.medi
Encoding: 301 65188 311
Width: 1292
GlyphClass: 2
Flags: HMW
AnchorPoint: "Anchor-11" 0 0 basechar 0
AnchorPoint: "Anchor-10" 0 1500 basechar 0
AnchorPoint: "Anchor-9" 540 -240 basechar 0
AnchorPoint: "Anchor-8" 500 950 basechar 0
AnchorPoint: "Anchor-7" 435 900 basechar 0
AnchorPoint: "Anchor-6" 480 900 basechar 0
AnchorPoint: "Anchor-5" 450 950 basechar 0
LayerCount: 2
Fore
SplineSet
1116 -1 m 4
 992 -1 904 43 904 171 c 6
 904 179 l 5
 905 212 l 5
 907 236 l 5
 886 236 l 6
 795 236 730 230 692 218 c 4
 617 193 542 163 466 126 c 4
 346 68 264 34 142 10 c 4
 105 4 59 0 1 0 c 6
 -19 0 l 5
 -19 183 l 5
 -5 183 l 6
 118 183 206 207 317 240 c 4
 426 274 493 304 517 330 c 5
 489 350 450 373 399 400 c 5
 358 418 l 6
 325 432 295 438 266 438 c 6
 259 438 l 6
 219 438 183 425 150 411 c 4
 130 403 108 393 83 380 c 4
 68 373 54 366 46 366 c 4
 42 366 40 368 40 373 c 4
 40 382 42 389 48 400 c 4
 69 437 102 477 147 520 c 4
 192 560 231 586 266 597 c 4
 284 603 302 606 319 606 c 6
 326 606 l 6
 345 606 365 604 386 599 c 4
 416 594 473 572 557 535 c 4
 690 473 849 432 1039 416 c 5
 1219 415 l 6
 1226 415 1230 412 1230 407 c 4
 1230 404 1229 401 1227 397 c 4
 1192 334 1164 289 1143 261 c 4
 1136 250 1124 244 1106 243 c 6
 1005 240 l 5
 1005 199 1054 183 1099 183 c 6
 1310 183 l 5
 1310 0 l 5
 1232 0 l 6
 1176 0 1142 -1 1116 -1 c 4
EndSplineSet
Validated: 1
Substitution2: "Single Substitution lookup 37 subtable" c.heh.zz03_calt
Substitution2: "Single Substitution lookup 38 subtable" c.heh.zz09
EndChar

StartChar: g.dal.fina
Encoding: 305 65194 315
Width: 1072
GlyphClass: 2
Flags: HMW
AnchorPoint: "Cursive-85" 98 0 exit 0
AnchorPoint: "Anchor-11" 398 1200 basechar 0
AnchorPoint: "Anchor-10" 398 1550 basechar 0
AnchorPoint: "Anchor-9" 573 -200 basechar 0
AnchorPoint: "Anchor-8" 598 1025 basechar 0
AnchorPoint: "Anchor-7" 563 1035 basechar 0
AnchorPoint: "Anchor-6" 563 960 basechar 0
AnchorPoint: "Anchor-5" 550 1200 basechar 0
LayerCount: 2
Fore
SplineSet
765 269 m 1
 690 135 617 54 546 25 c 1
 485 -6 411 -22 323 -22 c 0
 298 -22 274 -21 249 -18 c 0
 152 -5 95 20 78 55 c 0
 73 70 70 89 70 112 c 1
 73 149 l 1
 81 206 92 237 105 240 c 0
 108 239 110 239 112 238 c 0
 118 238 139 221 146 216 c 0
 190 197 261 183 328 183 c 0
 473 183 580 218 649 287 c 0
 696 332 719 376 719 419 c 1
 664 684 l 1
 659 715 656 738 654 753 c 0
 654 817 670 841 702 892 c 0
 718 922 731 938 739 939 c 0
 747 939 756 909 763 873 c 0
 799 695 818 530 865 386 c 0
 892 303 921 250 951 225 c 0
 979 197 1023 183 1082 183 c 1
 1082 0 l 1
 1061 0 l 1
 1018 3 l 1
 917 3 845 88 807 161 c 0
 794 188 780 224 765 269 c 1
EndSplineSet
Validated: 1
Substitution2: "Single Substitution lookup 37 subtable" c.dal.zz04_calt
Substitution2: "Single Substitution lookup 38 subtable" c.dal.zz04_zz09
EndChar

StartChar: g.ree.fina
Encoding: 307 65198 317
Width: 804
GlyphClass: 2
Flags: HMW
AnchorPoint: "Cursive-83" 0 0 exit 0
AnchorPoint: "Anchor-11" 250 1100 basechar 0
AnchorPoint: "Anchor-10" 100 1650 basechar 0
AnchorPoint: "Anchor-9" 328 -860 basechar 0
AnchorPoint: "Anchor-8" 375 850 basechar 0
AnchorPoint: "Anchor-7" 420 735 basechar 0
AnchorPoint: "Anchor-6" 345 675 basechar 0
AnchorPoint: "Anchor-5" 450 600 basechar 0
LayerCount: 2
Fore
SplineSet
453 191 m 6
 453 217 471 355 487 355 c 6
 488 355 l 6
 489 355 490 356 491 356 c 4
 497 356 505 348 513 334 c 4
 539 293 581 255 627 227 c 4
 671 198 732 183 810 183 c 5
 810 0 l 5
 779 0 l 6
 731 0 693 2 664 5 c 5
 628 -153 573 -289 491 -400 c 4
 451 -456 416 -490 357 -526 c 4
 298 -560 231 -571 136 -571 c 4
 38 -571 -41 -553 -132 -532 c 4
 -177 -522 -274 -505 -274 -484 c 4
 -274 -476 -261 -473 -241 -473 c 4
 -233 -473 -224 -473 -215 -474 c 6
 -114 -477 l 5
 35 -477 147 -455 222 -412 c 4
 367 -336 452 -240 526 -92 c 4
 560 -25 577 16 577 33 c 5
 519 66 460 111 453 183 c 5
 453 191 l 6
EndSplineSet
Validated: 1
Substitution2: "Single Substitution lookup 37 subtable" c.ree.zz04_calt
Substitution2: "Single Substitution lookup 38 subtable" c.ree.zz04_zz09
EndChar

StartChar: g.sin.fina
Encoding: 309 65202 319
Width: 2135
GlyphClass: 2
Flags: HMW
AnchorPoint: "Anchor-11" 450 1100 basechar 0
AnchorPoint: "Anchor-10" 400 1200 basechar 0
AnchorPoint: "Anchor-9" 1761 -328 basechar 0
AnchorPoint: "Anchor-8" 1250 900 basechar 0
AnchorPoint: "Anchor-7" 1245 765 basechar 0
AnchorPoint: "Anchor-6" 1155 795 basechar 0
AnchorPoint: "Anchor-5" 1450 800 basechar 0
LayerCount: 2
Fore
SplineSet
1309 -24 m 4
 1223 -24 1151 4 1102 41 c 5
 1105 11 1109 -44 1112 -123 c 5
 1103 -338 948 -440 762 -500 c 4
 696 -521 623 -535 535 -535 c 4
 522 -535 510 -534 496 -534 c 4
 377 -532 284 -496 208 -441 c 4
 117 -377 71 -282 70 -156 c 4
 70 -9 134 109 196 199 c 4
 208 217 218 228 227 231 c 4
 235 232 237 223 232 206 c 4
 187 96 170 65 157 -28 c 4
 156 -37 155 -47 155 -56 c 4
 155 -156 200 -204 254 -252 c 4
 327 -310 420 -333 557 -333 c 4
 688 -331 786 -308 878 -264 c 4
 925 -242 960 -221 983 -201 c 4
 1008 -183 1025 -151 1025 -109 c 4
 1025 -77 1012 -32 988 24 c 4
 958 89 921 156 874 223 c 4
 852 252 841 278 841 304 c 4
 841 342 883 445 901 467 c 4
 908 474 913 475 918 470 c 4
 926 462 944 437 973 395 c 4
 1046 289 1119 163 1286 163 c 6
 1300 163 l 5
 1470 169 1556 282 1630 388 c 4
 1652 416 1660 398 1660 374 c 4
 1660 317 1623 244 1600 210 c 5
 1626 192 1663 183 1704 183 c 4
 1762 183 1812 211 1846 244 c 4
 1868 265 1891 300 1914 348 c 4
 1926 382 1937 398 1946 397 c 4
 1958 397 1964 380 1964 345 c 4
 1961 298 1952 261 1939 233 c 5
 1975 202 2047 183 2112 183 c 6
 2145 183 l 5
 2145 0 l 5
 2011 0 1939 25 1868 83 c 5
 1838 24 1771 -19 1682 -19 c 4
 1600 -19 1559 0 1502 41 c 5
 1447 7 1401 -13 1364 -20 c 4
 1345 -23 1327 -24 1309 -24 c 4
EndSplineSet
Validated: 1
EndChar

StartChar: g.sin.init
Encoding: 310 65203 320
Width: 1216
GlyphClass: 2
Flags: HMW
AnchorPoint: "Cursive-84" 900 0 entry 0
AnchorPoint: "Cursive-83" 1200 0 entry 0
AnchorPoint: "Anchor-11" 287 1229 basechar 0
AnchorPoint: "Anchor-10" 0 1500 basechar 0
AnchorPoint: "Anchor-9" 471 -369 basechar 0
AnchorPoint: "Anchor-8" 475 900 basechar 0
AnchorPoint: "Anchor-7" 480 750 basechar 0
AnchorPoint: "Anchor-6" 330 765 basechar 0
AnchorPoint: "Anchor-5" 600 900 basechar 0
LayerCount: 2
Fore
SplineSet
967 238 m 4
 1003 238 1031 255 1031 290 c 6
 1031 298 l 6
 1031 313 1021 338 1001 376 c 4
 982 410 972 435 972 449 c 4
 972 461 978 474 984 490 c 4
 995 516 1038 613 1063 613 c 4
 1109 613 1132 409 1132 351 c 4
 1132 339 1131 328 1131 316 c 4
 1127 209 1099 131 1034 81 c 4
 1007 59 973 48 933 48 c 4
 908 48 884 50 862 56 c 4
 841 60 797 75 732 98 c 5
 656 36 611 4 489 4 c 4
 405 4 337 35 284 68 c 5
 245 24 191 2 118 0 c 5
 -26 0 l 5
 -26 183 l 5
 -4 183 l 6
 8 183 21 182 33 182 c 4
 111 182 184 195 233 220 c 4
 295 257 328 295 368 361 c 4
 389 397 406 415 419 415 c 4
 430 413 435 404 436 389 c 4
 436 335 404 267 382 233 c 5
 431 213 473 203 541 203 c 5
 667 212 733 299 772 398 c 4
 784 433 794 469 815 469 c 4
 836 469 838 449 838 412 c 4
 836 359 828 308 811 276 c 5
 840 267 904 238 967 238 c 4
EndSplineSet
Validated: 1
Substitution2: "Single Substitution lookup 37 subtable" c.sin.calt
Substitution2: "Single Substitution lookup 38 subtable" c.sin.init_calt
EndChar

StartChar: g.sin.medi
Encoding: 311 65204 321
Width: 1316
GlyphClass: 2
Flags: HMW
AnchorPoint: "Anchor-11" 389 1106 basechar 0
AnchorPoint: "Anchor-10" 0 1500 basechar 0
AnchorPoint: "Anchor-9" 550 -200 basechar 0
AnchorPoint: "Anchor-8" 650 900 basechar 0
AnchorPoint: "Anchor-7" 615 840 basechar 0
AnchorPoint: "Anchor-6" 480 750 basechar 0
AnchorPoint: "Anchor-5" 650 900 basechar 0
LayerCount: 2
Fore
SplineSet
751 236 m 5
 777 218 816 212 859 212 c 4
 908 212 939 233 968 259 c 4
 997 286 1026 327 1054 381 c 4
 1066 408 1079 423 1092 426 c 4
 1104 426 1110 412 1111 384 c 4
 1111 349 1102 309 1085 265 c 5
 1094 242 1119 221 1158 203 c 4
 1193 188 1259 183 1326 183 c 5
 1326 0 l 5
 1303 -0 l 6
 1229 0 1170 1 1118 30 c 4
 1090 44 1056 72 1016 112 c 5
 980 62 924 8 833 8 c 6
 827 8 l 5
 734 26 l 5
 701 40 674 54 655 70 c 5
 594 27 542 5 498 4 c 5
 477 4 l 6
 442 4 410 8 381 16 c 4
 346 25 302 43 247 68 c 5
 181 0 118 0 -22 0 c 5
 -22 183 l 5
 -3 183 l 6
 101 183 149 200 210 238 c 4
 242 259 277 296 314 350 c 4
 347 397 368 421 377 421 c 4
 378 421 379 420 380 419 c 4
 392 419 398 410 397 392 c 4
 397 338 365 271 343 233 c 5
 375 214 414 202 461 199 c 4
 529 199 566 213 614 240 c 4
 648 260 684 296 721 348 c 4
 755 396 777 420 787 420 c 4
 788 420 788 419 789 419 c 4
 800 419 805 411 806 395 c 4
 806 342 773 273 751 236 c 5
EndSplineSet
Validated: 1
Substitution2: "Single Substitution lookup 37 subtable" c.sin.zz03_calt
Substitution2: "Single Substitution lookup 38 subtable" c.sin.zz09
EndChar

StartChar: g.sad.fina
Encoding: 315 65210 325
Width: 2131
GlyphClass: 2
Flags: HMW
AnchorPoint: "Anchor-11" 450 1100 basechar 0
AnchorPoint: "Anchor-10" 400 1200 basechar 0
AnchorPoint: "Anchor-9" 1638 -287 basechar 0
AnchorPoint: "Anchor-8" 1275 900 basechar 0
AnchorPoint: "Anchor-7" 1200 930 basechar 0
AnchorPoint: "Anchor-6" 1080 840 basechar 0
AnchorPoint: "Anchor-5" 1450 900 basechar 0
LayerCount: 2
Fore
SplineSet
1894 401 m 1
 1894 436 1790 472 1763 477 c 0
 1746 477 1734 476 1725 476 c 0
 1676 464 1634 443 1597 415 c 0
 1537 372 1447 297 1328 190 c 0
 1328 189 1329 189 1332 189 c 0
 1349 189 1414 203 1528 232 c 0
 1629 257 1768 300 1843 348 c 0
 1873 367 1889 384 1894 401 c 1
175 15 m 0
 161 -38 156 -57 156 -107 c 0
 156 -166 173 -201 201 -238 c 0
 278 -334 381 -369 553 -369 c 0
 683 -369 777 -344 872 -302 c 0
 922 -280 955 -259 972 -240 c 1
 995 -223 1007 -195 1008 -156 c 0
 1008 -108 996 -54 971 6 c 0
 946 66 907 129 852 194 c 0
 840 205 834 218 834 233 c 0
 834 239 834 245 836 251 c 0
 845 294 862 345 885 406 c 0
 890 416 895 422 901 422 c 0
 904 422 907 421 910 418 c 0
 919 412 939 389 968 350 c 0
 997 311 1032 255 1073 182 c 1
 1083 182 l 2
 1101 182 1142 183 1206 184 c 1
 1292 276 1547 543 1643 614 c 0
 1692 650 1728 670 1786 670 c 0
 1813 670 1842 665 1873 654 c 0
 1914 639 1960 615 2010 582 c 0
 2053 555 2074 525 2074 492 c 0
 2074 435 1985 309 1932 243 c 1
 1865 183 l 1
 2141 183 l 1
 2141 0 l 1
 1107 0 l 1
 1108 -15 1108 -29 1108 -43 c 0
 1108 -222 1070 -346 971 -429 c 0
 863 -518 702 -571 501 -571 c 1
 382 -567 285 -541 217 -492 c 0
 122 -421 73 -322 70 -194 c 0
 70 -85 100 -20 137 60 c 0
 151 84 170 117 195 157 c 0
 208 177 219 187 228 188 c 0
 233 186 236 182 236 175 c 0
 236 170 235 165 232 158 c 0
 204 95 185 48 175 15 c 0
EndSplineSet
Validated: 1
EndChar

StartChar: g.sad.init
Encoding: 316 65211 326
Width: 1653
GlyphClass: 2
Flags: HMW
AnchorPoint: "Cursive-84" 1300 0 entry 0
AnchorPoint: "Cursive-83" 1600 0 entry 0
AnchorPoint: "Anchor-11" 0 0 basechar 0
AnchorPoint: "Anchor-10" 0 1500 basechar 0
AnchorPoint: "Anchor-9" 700 -225 basechar 0
AnchorPoint: "Anchor-8" 700 950 basechar 0
AnchorPoint: "Anchor-7" 600 885 basechar 0
AnchorPoint: "Anchor-6" 480 675 basechar 0
AnchorPoint: "Anchor-5" 850 950 basechar 0
LayerCount: 2
Fore
SplineSet
396 461 m 4
 411 461 417 443 417 419 c 4
 417 373 398 304 390 281 c 5
 426 220 557 195 659 195 c 4
 670 195 677 196 680 197 c 4
 750 264 841 342 952 433 c 5
 1085 539 l 5
 1140 581 1187 606 1226 616 c 4
 1238 618 1251 620 1264 620 c 4
 1295 620 1329 613 1366 600 c 4
 1419 581 1475 545 1533 494 c 4
 1555 472 1566 449 1566 426 c 6
 1566 418 l 6
 1566 368 1446 228 1401 183 c 4
 1284 74 1142 36 942 11 c 4
 896 5 833 2 754 2 c 4
 727 2 697 2 666 3 c 5
 648 -15 627 -46 602 -91 c 4
 585 -126 574 -151 569 -164 c 5
 559 -174 553 -173 550 -160 c 4
 550 -103 564 -47 593 7 c 5
 522 18 462 30 412 64 c 4
 389 79 362 107 330 150 c 5
 254 50 157 0 -29 0 c 5
 -29 183 l 5
 131 183 185 203 269 287 c 4
 314 330 345 372 373 434 c 4
 381 453 389 462 396 461 c 4
1380 347 m 4
 1383 355 1371 369 1346 390 c 5
 1307 415 1276 438 1226 438 c 4
 1211 438 1196 435 1180 430 c 4
 1155 427 1124 413 1085 390 c 4
 1026 356 930 292 797 197 c 5
 886 197 1104 233 1199 255 c 4
 1248 268 1290 284 1323 302 c 4
 1356 319 1375 334 1380 347 c 4
EndSplineSet
Validated: 1
Substitution2: "Single Substitution lookup 37 subtable" c.sad.calt
Substitution2: "Single Substitution lookup 38 subtable" c.sad.init_calt
EndChar

StartChar: g.sad.medi
Encoding: 317 65212 327
Width: 1567
GlyphClass: 2
Flags: HMW
AnchorPoint: "Anchor-11" 0 0 basechar 0
AnchorPoint: "Anchor-10" 0 1500 basechar 0
AnchorPoint: "Anchor-9" 800 -250 basechar 0
AnchorPoint: "Anchor-8" 750 950 basechar 0
AnchorPoint: "Anchor-7" 600 885 basechar 0
AnchorPoint: "Anchor-6" 390 810 basechar 0
AnchorPoint: "Anchor-5" 850 950 basechar 0
LayerCount: 2
Fore
SplineSet
343 266 m 5
 396 213 450 178 555 178 c 4
 584 178 617 180 653 186 c 5
 911 455 l 5
 991 530 1040 574 1057 587 c 4
 1114 634 1151 664 1233 664 c 6
 1245 664 l 6
 1322 664 1385 634 1455 586 c 4
 1497 557 1518 526 1518 494 c 6
 1518 488 l 6
 1518 457 1498 413 1457 354 c 4
 1447 335 1401 278 1319 183 c 5
 1577 183 l 5
 1577 0 l 5
 1555 0 l 5
 638 -1 l 5
 637 -1 l 6
 631 -1 610 -31 576 -91 c 5
 539 -162 l 5
 527 -182 513 -189 513 -160 c 4
 516 -95 536 -53 561 0 c 5
 547 0 l 6
 433 0 382 19 325 76 c 5
 276 128 l 5
 221 56 135 -2 12 -2 c 4
 0 -2 -13 -1 -26 0 c 5
 -26 183 l 5
 0 183 l 6
 97 183 159 206 212 258 c 4
 252 298 288 351 319 418 c 4
 328 441 337 452 345 452 c 4
 356 452 360 434 360 408 c 4
 360 362 348 294 343 266 c 5
1341 404 m 4
 1341 440 1234 478 1208 478 c 5
 1191 479 l 6
 1174 479 1149 473 1118 462 c 4
 1041 435 848 265 791 208 c 4
 786 205 781 200 776 194 c 5
 897 214 1056 254 1169 298 c 4
 1217 315 1258 333 1292 354 c 4
 1321 374 1338 391 1341 404 c 4
EndSplineSet
Validated: 1
Substitution2: "Single Substitution lookup 37 subtable" c.sad.zz03_calt
Substitution2: "Single Substitution lookup 38 subtable" c.sad.zz09
EndChar

StartChar: g.taa.fina
Encoding: 321 65218 331
Width: 1573
GlyphClass: 2
Flags: HMW
AnchorPoint: "Anchor-11" 500 1450 basechar 0
AnchorPoint: "Anchor-10" 300 1500 basechar 0
AnchorPoint: "Anchor-9" 850 -250 basechar 0
AnchorPoint: "Anchor-8" 1270 1004 basechar 0
AnchorPoint: "Anchor-7" 1147 1106 basechar 0
AnchorPoint: "Anchor-6" 1065 1044 basechar 0
AnchorPoint: "Anchor-5" 1229 1270 basechar 0
LayerCount: 2
Fore
SplineSet
646 1348 m 0
 646 1402 724 1567 747 1567 c 0
 759 1567 759 1539 767 1489 c 0
 780 1400 793 1362 851 1324 c 1
 874 1314 880 1301 870 1286 c 0
 831 1224 810 1184 807 1165 c 1
 822 1027 l 1
 852 728 866 525 866 418 c 2
 866 407 l 1
 1026 554 l 1
 1097 610 1116 631 1192 650 c 0
 1202 652 1213 653 1224 653 c 0
 1236 653 1247 652 1259 649 c 0
 1337 635 1498 561 1498 459 c 0
 1498 387 1420 299 1363 238 c 0
 1338 211 1318 193 1302 182 c 1
 1583 182 l 1
 1583 -3 l 1
 1561 -3 l 1
 1161 -1 l 1
 1071 2 1000 8 948 19 c 1
 772 -10 754 -14 621 -14 c 1
 426 -1 351 37 213 134 c 0
 142 184 100 219 85 238 c 0
 78 245 78 250 85 254 c 0
 92 259 104 257 122 248 c 0
 229 213 362 179 506 179 c 0
 543 179 589 186 646 199 c 1
 662 210 751 294 775 348 c 0
 782 362 786 390 786 430 c 2
 786 446 l 2
 786 577 749 814 730 939 c 0
 717 1030 691 1154 653 1311 c 0
 649 1323 646 1335 646 1348 c 0
1334 385 m 0
 1334 425 1224 464 1186 464 c 0
 1166 464 1145 460 1127 455 c 0
 1104 448 1074 433 1037 408 c 0
 860 281 771 210 768 197 c 1
 768 197 769 196 771 196 c 0
 786 196 849 207 960 229 c 0
 1052 251 1119 268 1160 281 c 0
 1211 298 1252 316 1282 335 c 0
 1314 354 1331 370 1334 385 c 0
EndSplineSet
Validated: 1
EndChar

StartChar: g.taa.init
Encoding: 322 65219 332
Width: 1042
GlyphClass: 2
Flags: HMW
AnchorPoint: "Cursive-84" 925 0 entry 0
AnchorPoint: "Cursive-83" 1100 0 entry 0
AnchorPoint: "Anchor-11" 0 0 basechar 0
AnchorPoint: "Anchor-10" 0 1500 basechar 0
AnchorPoint: "Anchor-9" 450 -200 basechar 0
AnchorPoint: "Anchor-8" 550 1300 basechar 0
AnchorPoint: "Anchor-7" 480 1185 basechar 0
AnchorPoint: "Anchor-6" 435 1035 basechar 0
AnchorPoint: "Anchor-5" 700 1150 basechar 0
LayerCount: 2
Fore
SplineSet
330 385 m 5
 528 523 518 521 625 575 c 4
 647 584 670 590 693 592 c 5
 699 592 l 6
 721 592 748 587 780 578 c 4
 814 566 863 533 928 478 c 4
 959 451 976 420 976 386 c 4
 976 382 975 378 975 374 c 4
 969 342 912 252 870 210 c 4
 707 47 436 -3 106 -3 c 6
 -48 -3 l 5
 -48 182 l 5
 26 182 l 6
 57 182 74 183 102 190 c 5
 139 219 172 247 198 272 c 4
 241 311 244 348 244 418 c 4
 244 499 239 546 228 641 c 4
 205 843 150 1135 112 1310 c 4
 111 1316 110 1323 110 1330 c 4
 110 1361 123 1400 147 1449 c 4
 176 1512 197 1544 208 1544 c 4
 222 1544 226 1507 237 1440 c 4
 256 1327 265 1335 322 1291 c 4
 342 1277 347 1265 339 1256 c 4
 310 1209 287 1171 270 1144 c 5
 283 1036 303 829 328 524 c 4
 329 495 330 449 330 385 c 5
744 268 m 4
 779 287 801 301 801 318 c 4
 801 329 791 342 769 360 c 4
 736 386 700 407 646 407 c 4
 638 407 630 407 624 406 c 4
 578 406 567 397 509 365 c 4
 380 295 286 232 225 177 c 5
 337 177 518 205 620 229 c 4
 669 237 711 250 744 268 c 4
EndSplineSet
Validated: 1
Substitution2: "Single Substitution lookup 37 subtable" c.taa.calt
Substitution2: "Single Substitution lookup 38 subtable" c.taa.init_calt
EndChar

StartChar: g.taa.medi
Encoding: 323 65220 333
Width: 1140
GlyphClass: 2
Flags: HMW
AnchorPoint: "Anchor-11" 25 0 basechar 0
AnchorPoint: "Anchor-10" 25 1500 basechar 0
AnchorPoint: "Anchor-9" 475 -250 basechar 0
AnchorPoint: "Anchor-8" 575 1300 basechar 0
AnchorPoint: "Anchor-7" 635 1085 basechar 0
AnchorPoint: "Anchor-6" 445 1140 basechar 0
AnchorPoint: "Anchor-5" 881 1100 basechar 0
LayerCount: 2
Fore
SplineSet
512 22 m 5
 442 4 375 0 279 0 c 5
 88 -3 l 5
 -15 -3 l 5
 -15 182 l 5
 6 182 l 5
 62 183 l 6
 99 183 147 187 205 195 c 5
 217 203 232 216 249 235 c 4
 266 252 322 308 340 346 c 4
 347 362 350 382 350 408 c 4
 350 501 340 584 328 692 c 4
 306 890 248 1147 209 1316 c 4
 208 1322 207 1329 207 1336 c 4
 207 1369 220 1416 247 1476 c 4
 273 1538 293 1568 307 1568 c 4
 326 1568 337 1497 366 1367 c 5
 379 1346 401 1328 432 1313 c 4
 444 1310 444 1298 432 1279 c 4
 399 1221 379 1183 372 1166 c 5
 388 1027 l 5
 418 713 433 534 433 489 c 6
 432 408 l 5
 588 550 l 5
 638 593 674 620 695 630 c 4
 721 644 748 652 782 652 c 4
 803 652 828 648 857 640 c 4
 893 630 943 602 1008 557 c 4
 1045 532 1063 498 1063 456 c 4
 1063 399 971 282 927 238 c 4
 902 213 883 194 869 183 c 5
 1128 182 l 5
 1150 182 l 5
 1150 -3 l 5
 1128 -3 l 6
 1015 -3 822 1 717 3 c 4
 642 3 576 12 512 22 c 5
899 385 m 4
 899 425 789 464 751 464 c 6
 740 464 l 6
 688 464 642 437 601 411 c 4
 426 281 337 210 334 197 c 4
 334 196 337 196 340 196 c 4
 357 196 591 243 645 258 c 4
 657 261 683 268 724 281 c 4
 774 298 815 316 847 335 c 4
 878 355 896 372 899 385 c 4
EndSplineSet
Validated: 1
Substitution2: "Single Substitution lookup 37 subtable" c.taa.zz03_calt
Substitution2: "Single Substitution lookup 38 subtable" c.taa.zz09
EndChar

StartChar: g.ein.fina
Encoding: 327 65226 337
Width: 1064
GlyphClass: 2
Flags: HMW
AnchorPoint: "Anchor-11" 350 1150 basechar 0
AnchorPoint: "Anchor-10" 300 1400 basechar 0
AnchorPoint: "Anchor-9" 625 -175 basechar 0
AnchorPoint: "Anchor-8" 425 925 basechar 0
AnchorPoint: "Anchor-7" 435 1005 basechar 0
AnchorPoint: "Anchor-6" 390 840 basechar 0
AnchorPoint: "Anchor-5" 550 875 basechar 0
LayerCount: 2
Fore
SplineSet
395 343 m 0
 372 343 339 328 328 328 c 0
 319 328 314 332 314 339 c 0
 314 344 316 349 319 356 c 0
 337 393 366 433 405 474 c 0
 454 523 516 555 590 568 c 0
 618 573 636 575 645 575 c 2
 665 575 l 2
 744 575 815 548 854 500 c 0
 866 485 872 463 872 433 c 0
 867 385 837 345 780 314 c 1
 723 288 l 1
 720 285 725 275 738 258 c 0
 794 185 918 184 1068 183 c 1
 1089 183 l 1
 1089 0 l 1
 1034 0 l 2
 720 0 714 70 566 205 c 0
 565 205 564 206 562 206 c 0
 539 206 483 159 395 66 c 0
 238 -105 160 -270 160 -427 c 0
 163 -539 187 -603 245 -680 c 0
 288 -738 357 -789 452 -834 c 0
 570 -892 735 -921 947 -922 c 1
 1506 -904 l 2
 1523 -904 1533 -909 1536 -920 c 0
 1536 -927 1530 -933 1519 -937 c 0
 1298 -989 1170 -1039 897 -1092 c 1
 630 -1092 393 -1043 252 -915 c 1
 153 -832 101 -729 77 -591 c 0
 73 -556 70 -524 70 -494 c 0
 70 -200 202 -23 335 146 c 1
 467 303 l 1
 452 330 428 343 395 343 c 0
EndSplineSet
Validated: 1
EndChar

StartChar: g.ein.init
Encoding: 328 65227 338
Width: 942
GlyphClass: 2
Flags: HMW
AnchorPoint: "Cursive-84" 850 0 entry 0
AnchorPoint: "Cursive-83" 900 0 entry 0
AnchorPoint: "Anchor-11" 0 0 basechar 0
AnchorPoint: "Anchor-10" 0 1500 basechar 0
AnchorPoint: "Anchor-9" 400 -175 basechar 0
AnchorPoint: "Anchor-8" 400 1000 basechar 0
AnchorPoint: "Anchor-7" 360 1155 basechar 0
AnchorPoint: "Anchor-6" 315 1080 basechar 0
AnchorPoint: "Anchor-5" 375 1100 basechar 0
LayerCount: 2
Fore
SplineSet
856 374 m 4
 817 252 774 215 648 158 c 5
 543 106 436 73 330 44 c 4
 270 29 90 0 14 0 c 6
 -22 0 l 5
 -22 183 l 5
 7 183 l 5
 74 185 113 189 126 195 c 5
 85 259 l 5
 72 287 66 318 66 352 c 4
 66 390 76 428 96 467 c 4
 129 538 165 595 205 638 c 4
 247 686 295 720 350 740 c 4
 375 749 399 754 423 754 c 4
 488 754 539 727 582 699 c 4
 612 677 641 650 669 618 c 4
 694 591 706 572 707 561 c 4
 707 549 702 543 692 542 c 4
 681 542 662 551 634 568 c 4
 592 594 543 616 482 616 c 4
 448 616 413 607 378 590 c 4
 335 571 292 541 248 502 c 4
 212 468 193 442 193 424 c 4
 193 411 232 340 269 303 c 4
 290 280 303 255 341 255 c 4
 385 255 435 268 476 278 c 4
 564 307 623 330 728 374 c 6
 827 415 l 6
 836 419 844 421 849 421 c 4
 858 421 862 415 862 405 c 4
 862 397 860 387 856 374 c 4
EndSplineSet
Validated: 1
Substitution2: "Single Substitution lookup 37 subtable" c.ein.calt
Substitution2: "Single Substitution lookup 38 subtable" c.ein.init_calt
Substitution2: "Single Substitution lookup 50 subtable" c.ein.zz24
EndChar

StartChar: g.ein.medi
Encoding: 329 65228 339
Width: 776
GlyphClass: 2
Flags: HMW
AnchorPoint: "Anchor-11" 0 0 basechar 0
AnchorPoint: "Anchor-10" 0 1500 basechar 0
AnchorPoint: "Anchor-9" 350 -225 basechar 0
AnchorPoint: "Anchor-8" 350 950 basechar 0
AnchorPoint: "Anchor-7" 360 975 basechar 0
AnchorPoint: "Anchor-6" 315 930 basechar 0
AnchorPoint: "Anchor-5" 325 950 basechar 0
LayerCount: 2
Fore
SplineSet
819 0 m 5
 763 0 l 6
 686 0 629 5 591 15 c 4
 553 25 505 49 447 87 c 5
 385 135 l 5
 291 68 192 14 28 2 c 4
 1 1 -27 0 -56 0 c 5
 -56 183 l 5
 18 183 69 191 120 198 c 5
 168 212 223 232 254 258 c 4
 269 271 273 278 265 296 c 4
 245 329 219 345 185 345 c 6
 182 345 l 6
 158 345 144 337 125 330 c 4
 114 324 106 327 101 336 c 4
 98 341 102 353 112 371 c 4
 169 472 263 558 412 558 c 4
 511 558 586 523 634 470 c 4
 650 452 658 429 658 400 c 6
 658 395 l 5
 656 367 640 340 610 313 c 5
 534 251 l 6
 531 248 530 245 530 242 c 4
 530 216 628 195 669 190 c 4
 740 185 742 183 797 183 c 6
 819 183 l 5
 819 0 l 5
EndSplineSet
Validated: 1
Substitution2: "Single Substitution lookup 37 subtable" c.ein.zz03_calt
Substitution2: "Single Substitution lookup 38 subtable" c.ein.zz09
EndChar

StartChar: g.feh.fina
Encoding: 333 65234 343
Width: 2150
GlyphClass: 2
Flags: HMW
AnchorPoint: "Anchor-11" 450 1150 basechar 0
AnchorPoint: "Anchor-10" 325 1350 basechar 0
AnchorPoint: "Anchor-9" 1350 -225 basechar 0
AnchorPoint: "Anchor-8" 1570 1332 basechar 0
AnchorPoint: "Anchor-7" 1595 1402 basechar 0
AnchorPoint: "Anchor-6" 1535 1387 basechar 0
AnchorPoint: "Anchor-5" 1595 1332 basechar 0
LayerCount: 2
Fore
SplineSet
2013 0 m 1
 1854 6 1756 71 1686 156 c 1
 1489 76 1394 31 1133 -23 c 0
 980 -55 854 -72 686 -72 c 0
 414 -72 171 -13 91 180 c 0
 78 210 71 244 70 281 c 1
 70 295 l 2
 70 431 115 543 170 629 c 0
 193 668 210 687 222 687 c 0
 237 687 230 665 223 650 c 0
 192 584 168 519 160 430 c 1
 160 418 l 2
 160 366 178 319 211 275 c 0
 297 168 479 122 690 122 c 0
 705 122 722 123 738 123 c 0
 1018 123 1386 214 1571 295 c 1
 1547 316 1526 354 1526 407 c 0
 1526 538 1651 691 1747 752 c 0
 1778 771 1806 781 1833 781 c 0
 1860 781 1886 771 1911 750 c 0
 1956 710 1995 620 2000 516 c 0
 2000 453 1972 405 1946 364 c 0
 1935 347 1922 330 1907 313 c 2
 1852 254 l 1
 1847 247 1859 236 1889 218 c 0
 1920 202 1961 190 2013 184 c 1
 2162 183 l 1
 2162 0 l 1
 2013 0 l 1
1644 473 m 0
 1644 447 1706 376 1732 369 c 0
 1740 369 1765 383 1807 410 c 0
 1849 437 1874 457 1882 470 c 0
 1883 473 1884 476 1884 480 c 0
 1884 516 1828 572 1808 583 c 0
 1800 588 1791 591 1781 591 c 0
 1766 591 1747 583 1724 568 c 0
 1670 529 1644 498 1644 473 c 0
EndSplineSet
Refer: 270 -1 S 1 0 0 1 1514 979 0
Validated: 1
EndChar

StartChar: g.feh.init
Encoding: 334 65235 344
Width: 612
GlyphClass: 2
Flags: HMW
AnchorPoint: "Cursive-84" 525 0 entry 0
AnchorPoint: "Cursive-83" 650 0 entry 0
AnchorPoint: "Anchor-11" 0 0 basechar 0
AnchorPoint: "Anchor-10" 0 1500 basechar 0
AnchorPoint: "Anchor-9" 250 -150 basechar 0
AnchorPoint: "Anchor-8" 195 1395 basechar 0
AnchorPoint: "Anchor-7" 180 1470 basechar 0
AnchorPoint: "Anchor-6" 90 1460 basechar 0
AnchorPoint: "Anchor-5" 195 1500 basechar 0
LayerCount: 2
Fore
SplineSet
212 350 m 4
 101 350 36 419 36 537 c 4
 36 602 46 637 78 707 c 4
 101 757 121 793 138 815 c 4
 165 852 193 871 223 871 c 4
 330 871 458 631 492 513 c 4
 505 468 512 425 512 385 c 4
 512 142 352 20 122 4 c 4
 90 1 51 0 4 0 c 6
 -22 0 l 5
 -22 183 l 5
 46 183 l 6
 194 183 262 184 348 233 c 4
 404 264 427 298 427 334 c 4
 427 365 411 398 385 434 c 5
 332 396 l 5
 297 373 260 350 212 350 c 4
211 508 m 4
 236 508 270 531 292 547 c 5
 309 564 l 5
 292 596 256 664 219 664 c 6
 214 664 l 5
 194 657 161 598 161 558 c 4
 161 527 179 508 211 508 c 4
EndSplineSet
Refer: 270 -1 N 1 0 0 1 80 1077 0
Validated: 1
Substitution2: "Single Substitution lookup 37 subtable" c.feh.calt
Substitution2: "Single Substitution lookup 38 subtable" c.feh.init_calt
Substitution2: "Single Substitution lookup 50 subtable" c.feh.zz24
EndChar

StartChar: g.feh.medi
Encoding: 335 65236 345
Width: 762
GlyphClass: 2
Flags: HMW
AnchorPoint: "Anchor-11" 0 0 basechar 0
AnchorPoint: "Anchor-10" 0 1500 basechar 0
AnchorPoint: "Anchor-9" 350 -225 basechar 0
AnchorPoint: "Anchor-8" 379 1335 basechar 0
AnchorPoint: "Anchor-7" 394 1360 basechar 0
AnchorPoint: "Anchor-6" 304 1345 basechar 0
AnchorPoint: "Anchor-5" 404 1450 basechar 0
LayerCount: 2
Fore
SplineSet
240 244 m 5
 209 269 200 299 200 346 c 4
 200 424 229 501 255 553 c 4
 293 622 355 697 426 724 c 4
 445 732 464 736 481 736 c 6
 485 736 l 6
 514 736 539 725 561 703 c 4
 599 668 637 570 642 468 c 4
 642 428 633 392 616 360 c 4
 599 323 565 279 513 228 c 5
 516 223 544 214 598 201 c 4
 665 189 722 183 769 183 c 6
 791 183 l 5
 791 0 l 5
 767 0 l 6
 625 0 536 17 430 66 c 5
 358 105 l 5
 241 40 140 0 -15 0 c 5
 -15 183 l 5
 71 183 178 210 240 244 c 5
522 407 m 4
 527 416 529 428 528 441 c 4
 528 471 510 504 474 539 c 4
 465 548 454 553 441 553 c 4
 424 553 403 543 378 523 c 4
 328 477 302 439 302 409 c 4
 302 406 303 404 303 401 c 4
 315 363 341 334 382 313 c 5
 393 314 416 325 453 346 c 4
 490 367 513 388 522 407 c 4
EndSplineSet
Refer: 270 -1 N 1 0 0 1 302 973 0
Validated: 1
Substitution2: "Single Substitution lookup 37 subtable" c.feh.zz03_calt
Substitution2: "Single Substitution lookup 38 subtable" c.feh.zz09
EndChar

StartChar: g.qaf.fina
Encoding: 336 65238 346
Width: 1252
GlyphClass: 2
Flags: HMW
AnchorPoint: "Anchor-11" 520 1370 basechar 0
AnchorPoint: "Anchor-10" 120 1620 basechar 0
AnchorPoint: "Anchor-9" 650 -650 basechar 0
AnchorPoint: "Anchor-8" 820 1045 basechar 0
AnchorPoint: "Anchor-7" 860 1095 basechar 0
AnchorPoint: "Anchor-6" 755 1065 basechar 0
AnchorPoint: "Anchor-5" 820 1150 basechar 0
LayerCount: 2
Fore
SplineSet
230 271 m 0
 236 271 240 268 240 260 c 0
 240 254 238 247 235 238 c 0
 202 169 180 113 169 70 c 0
 162 38 158 9 158 -16 c 0
 158 -46 163 -72 172 -94 c 0
 223 -220 355 -287 541 -287 c 0
 745 -287 904 -231 1008 -127 c 0
 1044 -89 1062 -53 1062 -21 c 0
 1062 -12 1061 -4 1058 4 c 1
 923 8 l 1
 806 14 706 53 706 169 c 0
 706 192 711 217 722 244 c 0
 748 310 842 479 925 479 c 0
 928 479 931 478 934 478 c 0
 976 472 1044 366 1061 330 c 0
 1083 285 1099 236 1122 188 c 0
 1123 185 1160 183 1233 183 c 2
 1262 183 l 1
 1262 0 l 1
 1248 0 l 1
 1137 4 l 1
 1137 -15 l 2
 1137 -140 1086 -250 1017 -314 c 0
 932 -392 810 -443 665 -467 c 0
 623 -474 584 -478 549 -478 c 0
 332 -478 173 -413 100 -274 c 0
 80 -232 70 -184 70 -128 c 2
 70 -112 l 2
 70 -48 81 -4 100 58 c 0
 113 96 140 152 183 225 c 0
 203 256 218 271 230 271 c 0
829 244 m 0
 833 195 879 189 939 187 c 0
 950 187 961 187 974 188 c 1
 938 269 906 310 879 310 c 2
 875 310 l 1
 858 304 829 275 829 244 c 0
EndSplineSet
Refer: 271 -1 S 1 0 0 1 630 693 0
Validated: 1
EndChar

StartChar: g.qaf.init
Encoding: 337 65239 347
Width: 612
GlyphClass: 2
Flags: HMW
AnchorPoint: "Cursive-84" 500 0 entry 0
AnchorPoint: "Cursive-83" 650 0 entry 0
AnchorPoint: "Anchor-11" 0 0 basechar 0
AnchorPoint: "Anchor-10" 0 1500 basechar 0
AnchorPoint: "Anchor-9" 250 -150 basechar 0
AnchorPoint: "Anchor-8" 140 1385 basechar 0
AnchorPoint: "Anchor-7" 180 1435 basechar 0
AnchorPoint: "Anchor-6" 135 1435 basechar 0
AnchorPoint: "Anchor-5" 165 1550 basechar 0
LayerCount: 2
Fore
SplineSet
212 350 m 0
 101 350 36 419 36 537 c 0
 36 602 46 637 78 707 c 0
 101 757 121 793 138 815 c 0
 165 852 193 871 223 871 c 0
 330 871 458 631 492 513 c 0
 505 468 512 425 512 385 c 0
 512 370 512 359 510 351 c 0
 510 311 495 267 482 232 c 0
 435 90 298 16 122 4 c 0
 90 1 51 0 4 0 c 2
 -22 0 l 1
 -22 183 l 1
 46 183 l 2
 194 183 262 184 348 233 c 0
 402 263 430 296 430 332 c 0
 430 335 429 338 429 341 c 0
 422 381 407 403 385 434 c 1
 332 396 l 1
 297 373 260 350 212 350 c 0
161 546 m 1
 167 524 182 508 211 508 c 0
 236 508 270 531 292 547 c 1
 309 564 l 1
 292 596 256 664 219 664 c 2
 214 664 l 1
 194 657 161 598 161 558 c 2
 161 546 l 1
EndSplineSet
Refer: 271 -1 S 1 0 0 1 -12 1056 0
Validated: 1
Substitution2: "Single Substitution lookup 37 subtable" c.qaf.calt
Substitution2: "Single Substitution lookup 38 subtable" c.qaf.init_calt
Substitution2: "Single Substitution lookup 50 subtable" c.qaf.zz24
EndChar

StartChar: g.qaf.medi
Encoding: 338 65240 348
Width: 762
GlyphClass: 2
Flags: HMW
AnchorPoint: "Anchor-11" 0 0 basechar 0
AnchorPoint: "Anchor-10" 0 1500 basechar 0
AnchorPoint: "Anchor-9" 350 -225 basechar 0
AnchorPoint: "Anchor-8" 375 1315 basechar 0
AnchorPoint: "Anchor-7" 405 1310 basechar 0
AnchorPoint: "Anchor-6" 360 1295 basechar 0
AnchorPoint: "Anchor-5" 400 1450 basechar 0
LayerCount: 2
Fore
SplineSet
240 244 m 1
 209 269 200 299 200 346 c 0
 200 424 229 501 255 553 c 0
 293 622 355 697 426 724 c 0
 445 732 464 736 481 736 c 2
 485 736 l 2
 514 736 539 725 561 703 c 0
 599 668 637 570 642 468 c 0
 642 428 633 392 616 360 c 0
 599 323 565 279 513 228 c 1
 516 223 544 214 598 201 c 0
 665 189 722 183 769 183 c 2
 791 183 l 1
 791 0 l 1
 767 0 l 2
 625 0 536 17 430 66 c 1
 358 105 l 1
 241 40 140 0 -15 0 c 1
 -15 183 l 1
 71 183 178 210 240 244 c 1
522 407 m 0
 527 416 529 428 528 441 c 0
 528 471 510 504 474 539 c 0
 465 548 454 553 441 553 c 0
 424 553 403 543 378 523 c 0
 328 477 302 439 302 409 c 0
 302 406 303 404 303 401 c 0
 315 363 341 334 382 313 c 1
 393 314 416 325 453 346 c 0
 490 367 513 388 522 407 c 0
EndSplineSet
Refer: 271 -1 S 1 0 0 1 204 940 0
Validated: 1
Substitution2: "Single Substitution lookup 37 subtable" c.qaf.zz03_calt
Substitution2: "Single Substitution lookup 38 subtable" c.qaf.zz09
EndChar

StartChar: g.kaf.fina.ar
Encoding: 339 65242 349
Width: 1730
GlyphClass: 2
Flags: HMW
AnchorPoint: "Anchor-11" 450 1150 basechar 0
AnchorPoint: "Anchor-10" 200 1500 basechar 0
AnchorPoint: "Anchor-9" 800 -225 basechar 0
AnchorPoint: "Anchor-8" 700 1050 basechar 0
AnchorPoint: "Anchor-7" 720 1170 basechar 0
AnchorPoint: "Anchor-6" 630 1170 basechar 0
AnchorPoint: "Anchor-5" 700 1150 basechar 0
LayerCount: 2
Fore
SplineSet
1750 0 m 5
 1721 0 l 6
 1609 0 1568 14 1514 77 c 4
 1482 116 1461 182 1451 276 c 5
 1429 254 1359 198 1334 177 c 4
 1214 84 1033 -4 862 -48 c 4
 809 -61 715 -78 635 -78 c 4
 482 -78 338 -46 234 18 c 5
 148 77 78 152 78 279 c 6
 78 285 l 5
 80 336 95 386 122 433 c 4
 150 480 191 534 245 594 c 4
 272 627 291 643 302 643 c 4
 310 642 313 638 313 633 c 4
 313 625 307 614 304 608 c 6
 278 565 l 5
 244 511 214 447 214 374 c 5
 223 282 286 213 402 167 c 4
 493 131 583 120 715 120 c 4
 891 120 1029 169 1152 226 c 4
 1193 245 1233 268 1273 295 c 4
 1307 317 1359 354 1429 407 c 5
 1319 1241 l 6
 1317 1256 1316 1270 1316 1283 c 4
 1316 1341 1330 1366 1359 1413 c 4
 1391 1472 1412 1502 1422 1502 c 4
 1423 1502 1424 1502 1425 1501 c 6
 1446 1383 l 5
 1493 914 1521 642 1530 564 c 4
 1546 432 1549 390 1575 292 c 4
 1598 219 1628 183 1706 183 c 6
 1750 183 l 5
 1750 0 l 5
884 771 m 4
 865 771 852 760 852 745 c 4
 852 735 868 724 900 711 c 4
 959 687 1037 669 1037 588 c 4
 1035 543 1012 500 967 461 c 4
 930 433 891 420 851 420 c 4
 755 420 677 501 635 567 c 4
 624 585 618 598 618 604 c 4
 618 607 619 609 622 609 c 4
 623 609 624 610 625 610 c 4
 629 610 635 607 642 601 c 4
 680 571 749 522 806 508 c 4
 817 505 830 504 841 504 c 4
 863 504 880 509 880 523 c 4
 880 526 879 530 877 534 c 5
 786 576 l 5
 758 591 734 614 734 657 c 4
 734 707 745 730 766 770 c 4
 802 835 851 902 928 926 c 4
 939 929 951 931 962 931 c 4
 999 931 1029 912 1029 881 c 4
 1029 832 994 786 971 767 c 4
 968 764 962 763 952 763 c 4
 941 763 908 771 884 771 c 4
EndSplineSet
Validated: 1
EndChar

StartChar: g.lam.fina
Encoding: 342 65246 352
Width: 1178
GlyphClass: 2
Flags: HMW
AnchorPoint: "Anchor-11" 250 1280 basechar 0
AnchorPoint: "Anchor-10" 0 1500 basechar 0
AnchorPoint: "Anchor-9" 600 -700 basechar 0
AnchorPoint: "Anchor-8" 675 1430 basechar 0
AnchorPoint: "Anchor-7" 555 1365 basechar 0
AnchorPoint: "Anchor-6" 495 1215 basechar 0
AnchorPoint: "Anchor-5" 725 1550 basechar 0
LayerCount: 2
Fore
SplineSet
1176 0 m 2
 1053 0 1004 42 954 117 c 1
 957 85 l 1
 957 -7 l 2
 957 -132 881 -235 804 -298 c 0
 726 -357 619 -407 490 -407 c 0
 380 -407 294 -377 233 -325 c 1
 184 -276 142 -211 139 -120 c 1
 139 -106 l 2
 139 -82 141 -57 146 -30 c 0
 151 2 167 50 194 113 c 0
 237 203 263 247 275 247 c 2
 276 247 l 1
 281 246 284 243 286 238 c 0
 286 232 283 220 276 203 c 0
 252 143 224 74 216 5 c 1
 216 -9 l 2
 216 -97 264 -148 322 -187 c 0
 364 -215 416 -229 478 -229 c 2
 487 -229 l 2
 625 -229 730 -181 804 -117 c 0
 858 -72 885 -38 885 -14 c 0
 844 380 785 757 736 1143 c 0
 734 1154 733 1166 733 1177 c 0
 733 1216 745 1256 769 1297 c 0
 801 1356 823 1385 836 1385 c 0
 838 1385 840 1384 842 1382 c 1
 847 1368 l 1
 862 1231 892 964 937 568 c 0
 954 429 972 340 990 302 c 0
 1016 243 1084 183 1169 183 c 2
 1188 183 l 1
 1188 0 l 1
 1176 0 l 2
EndSplineSet
Validated: 1
EndChar

StartChar: g.lam.init
Encoding: 343 65247 353
Width: 518
GlyphClass: 2
Flags: HMW
AnchorPoint: "Anchor-11" 61 1802 basechar 0
AnchorPoint: "Anchor-10" 0 1650 basechar 0
AnchorPoint: "Anchor-9" 275 -150 basechar 0
AnchorPoint: "Anchor-8" 200 1584 basechar 0
AnchorPoint: "Anchor-7" 135 1555 basechar 0
AnchorPoint: "Anchor-6" 150 1645 basechar 0
AnchorPoint: "Anchor-5" 225 1700 basechar 0
LayerCount: 2
Fore
SplineSet
284 283 m 6
 182 1121 l 5
 173 1174 157 1232 135 1297 c 4
 134 1300 134 1303 134 1307 c 4
 134 1337 154 1387 194 1455 c 4
 228 1516 251 1546 263 1546 c 4
 274 1546 277 1506 286 1442 c 4
 292 1382 309 1339 343 1303 c 4
 352 1296 355 1288 351 1281 c 4
 323 1224 308 1181 308 1156 c 4
 308 1127 311 1080 318 1005 c 4
 318 988 320 960 325 920 c 4
 343 784 378 502 399 345 c 5
 399 268 389 225 362 168 c 4
 337 114 319 83 282 52 c 5
 238 21 171 0 97 0 c 6
 -22 0 l 5
 -22 183 l 5
 104 183 l 6
 189 183 285 186 285 267 c 4
 285 272 285 278 284 283 c 6
EndSplineSet
Validated: 1
Substitution2: "Single Substitution lookup 37 subtable" c.lam.calt
Substitution2: "Single Substitution lookup 38 subtable" c.lam.init_calt
Substitution2: "Single Substitution lookup 51 subtable" c.lam.zz25
EndChar

StartChar: g.lam.medi
Encoding: 344 65248 354
Width: 606
GlyphClass: 2
Flags: HMW
AnchorPoint: "Anchor-11" 0 0 basechar 0
AnchorPoint: "Anchor-10" 0 1650 basechar 0
AnchorPoint: "Anchor-9" 275 -200 basechar 0
AnchorPoint: "Anchor-8" 225 1611 basechar 0
AnchorPoint: "Anchor-7" 180 1589 basechar 0
AnchorPoint: "Anchor-6" 105 1619 basechar 0
AnchorPoint: "Anchor-5" 200 1700 basechar 0
LayerCount: 2
Fore
SplineSet
616 0 m 5
 531 0 476 2 451 7 c 4
 381 19 325 65 284 146 c 5
 227 53 151 3 3 0 c 5
 -19 0 l 5
 -19 183 l 5
 17 183 l 6
 105 183 237 197 255 259 c 5
 127 1292 l 6
 125 1305 125 1317 125 1329 c 4
 125 1378 138 1422 164 1460 c 4
 196 1510 215 1535 223 1535 c 6
 224 1535 l 5
 225 1536 227 1536 228 1536 c 4
 239 1536 245 1506 250 1444 c 4
 255 1375 273 1169 304 826 c 4
 335 483 361 298 382 273 c 5
 416 213 494 183 616 183 c 5
 616 0 l 5
EndSplineSet
Validated: 1
Substitution2: "Single Substitution lookup 37 subtable" c.lam.zz03_calt
Substitution2: "Single Substitution lookup 38 subtable" c.lam.zz09
EndChar

StartChar: g.mim.fina
Encoding: 345 65250 355
Width: 906
GlyphClass: 2
Flags: HMW
AnchorPoint: "Anchor-11" 300 1100 basechar 0
AnchorPoint: "Anchor-10" 300 1550 basechar 0
AnchorPoint: "Anchor-9" 819 -737 basechar 0
AnchorPoint: "Anchor-8" 400 825 basechar 0
AnchorPoint: "Anchor-7" 451 737 basechar 0
AnchorPoint: "Anchor-6" 360 840 basechar 0
AnchorPoint: "Anchor-5" 450 750 basechar 0
LayerCount: 2
Fore
SplineSet
450 90 m 6
 330 90 201 37 176 -22 c 5
 176 -28 l 6
 176 -50 182 -132 195 -275 c 4
 210 -438 234 -688 269 -1024 c 4
 269 -1028 270 -1031 270 -1035 c 4
 270 -1074 230 -1141 212 -1154 c 4
 206 -1159 201 -1155 198 -1143 c 4
 179 -1035 154 -854 124 -601 c 4
 94 -348 79 -197 78 -150 c 5
 78 -127 l 6
 78 -92 80 -67 83 -52 c 4
 94 -1 120 53 161 111 c 4
 215 186 297 241 410 264 c 4
 446 272 492 280 548 288 c 5
 570 340 587 366 600 366 c 6
 602 366 l 5
 606 365 617 352 635 329 c 4
 699 254 762 183 898 183 c 6
 916 183 l 5
 916 0 l 5
 817 0 l 5
 817 -100 799 -146 737 -218 c 4
 718 -241 700 -252 685 -253 c 4
 680 -253 676 -251 671 -248 c 4
 604 -210 516 -107 516 15 c 6
 516 85 l 5
 515 88 498 90 465 90 c 6
 450 90 l 6
EndSplineSet
Validated: 1
Substitution2: "Single Substitution lookup 53 subtable" c.mim.zz04_calt
EndChar

StartChar: g.mim.init
Encoding: 346 65251 356
Width: 850
GlyphClass: 2
Flags: HMW
AnchorPoint: "Cursive-84" 700 0 entry 0
AnchorPoint: "Cursive-83" 750 0 entry 0
AnchorPoint: "Anchor-11" 0 0 basechar 0
AnchorPoint: "Anchor-10" 0 1650 basechar 0
AnchorPoint: "Anchor-9" 375 -125 basechar 0
AnchorPoint: "Anchor-8" 325 950 basechar 0
AnchorPoint: "Anchor-7" 300 900 basechar 0
AnchorPoint: "Anchor-6" 300 945 basechar 0
AnchorPoint: "Anchor-5" 400 850 basechar 0
LayerCount: 2
Fore
SplineSet
776 232 m 4
 776 169 704 73 654 57 c 4
 647 55 641 54 636 55 c 4
 596 55 505 102 469 123 c 4
 442 138 409 158 370 183 c 5
 313 108 263 58 219 33 c 4
 170 2 122 0 50 0 c 6
 -13 0 l 5
 -13 183 l 5
 -2 183 l 5
 111 186 l 5
 173 186 222 199 258 225 c 4
 289 247 330 304 383 396 c 4
 422 461 455 508 481 538 c 4
 515 578 547 598 577 598 c 4
 606 598 635 578 662 539 c 4
 695 496 776 326 776 232 c 4
614 273 m 5
 611 326 595 372 566 411 c 4
 555 424 545 431 536 431 c 4
 531 431 526 428 521 423 c 4
 496 388 483 367 483 359 c 4
 483 358 482 357 482 356 c 4
 482 324 614 273 614 273 c 5
EndSplineSet
Validated: 1
Substitution2: "Single Substitution lookup 37 subtable" c.mim.calt
Substitution2: "Single Substitution lookup 38 subtable" c.mim.init_calt
Substitution2: "Single Substitution lookup 51 subtable" c.mim.zz25
EndChar

StartChar: g.mim.medi
Encoding: 347 65252 357
Width: 954
GlyphClass: 2
Flags: HMW
AnchorPoint: "Anchor-11" 0 0 basechar 0
AnchorPoint: "Anchor-10" 205 1650 basechar 0
AnchorPoint: "Anchor-9" 400 -250 basechar 0
AnchorPoint: "Anchor-8" 375 900 basechar 0
AnchorPoint: "Anchor-7" 375 800 basechar 0
AnchorPoint: "Anchor-6" 300 795 basechar 0
AnchorPoint: "Anchor-5" 400 850 basechar 0
LayerCount: 2
Fore
SplineSet
920 0 m 6
 829 0 775 24 717 59 c 5
 699 18 682 -9 666 -22 c 4
 656 -32 638 -37 612 -37 c 4
 567 -37 501 -20 415 15 c 4
 353 40 301 74 259 117 c 5
 219 64 152 14 68 3 c 5
 4 0 l 5
 -19 0 l 5
 -19 183 l 5
 3 183 l 6
 100 183 142 203 205 255 c 5
 360 415 l 5
 409 464 447 489 476 489 c 6
 481 489 l 6
 498 489 513 478 527 456 c 6
 575 386 l 5
 658 280 757 204 915 186 c 5
 964 183 l 5
 964 0 l 5
 920 0 l 6
564 190 m 5
 519 248 474 306 452 347 c 4
 449 355 444 357 437 354 c 4
 430 347 409 322 373 279 c 5
 418 238 491 196 564 190 c 5
EndSplineSet
Validated: 1
Substitution2: "Single Substitution lookup 37 subtable" c.mim.zz03_calt
Substitution2: "Single Substitution lookup 38 subtable" c.mim.zz09
EndChar

StartChar: g.nun.fina
Encoding: 348 65254 358
Width: 1135
GlyphClass: 2
Flags: HMW
AnchorPoint: "Anchor-11" 400 1100 basechar 0
AnchorPoint: "Anchor-10" 266 1679 basechar 0
AnchorPoint: "Anchor-9" 650 -750 basechar 0
AnchorPoint: "Anchor-8" 525 850 basechar 0
AnchorPoint: "Anchor-7" 615 795 basechar 0
AnchorPoint: "Anchor-6" 525 855 basechar 0
AnchorPoint: "Anchor-5" 450 850 basechar 0
LayerCount: 2
Fore
SplineSet
724 310 m 1
 728 359 783 479 799 479 c 2
 800 479 l 1
 808 481 821 468 838 441 c 2
 940 273 l 1
 977 202 1028 183 1133 183 c 2
 1157 183 l 1
 1157 0 l 1
 1116 0 l 2
 1040 0 1010 4 967 29 c 1
 966 -45 l 1
 958 -192 910 -283 823 -360 c 1
 758 -409 684 -442 602 -459 c 0
 555 -471 510 -477 466 -477 c 0
 328 -477 230 -446 170 -386 c 0
 110 -327 70 -257 70 -157 c 0
 70 -67 96 1 132 74 c 0
 174 156 203 197 220 197 c 2
 222 197 l 1
 229 196 231 192 231 186 c 0
 231 174 220 154 212 139 c 0
 192 99 176 54 163 4 c 0
 158 -18 155 -39 155 -59 c 0
 160 -215 272 -286 423 -295 c 1
 577 -295 712 -257 801 -187 c 0
 852 -150 880 -110 886 -68 c 1
 886 0 872 32 845 87 c 1
 768 209 l 1
 739 250 724 282 724 304 c 2
 724 310 l 1
EndSplineSet
Refer: 270 -1 N 1 0 0 1 348 388 0
Validated: 1
EndChar

StartChar: g.he8.fina
Encoding: 351 65258 361
Width: 905
GlyphClass: 2
Flags: HMW
AnchorPoint: "Anchor-11" 432 1240 basechar 0
AnchorPoint: "Anchor-10" 432 1650 basechar 0
AnchorPoint: "Anchor-9" 457 -150 basechar 0
AnchorPoint: "Anchor-8" 457 990 basechar 0
AnchorPoint: "Anchor-7" 567 1095 basechar 0
AnchorPoint: "Anchor-6" 432 1110 basechar 0
AnchorPoint: "Anchor-5" 482 1150 basechar 0
LayerCount: 2
Fore
SplineSet
522 777 m 0
 522 857 550 937 576 937 c 0
 585 937 594 916 601 875 c 2
 646 616 l 1
 676 461 694 314 788 229 c 0
 816 202 858 186 913 183 c 1
 913 0 l 1
 889 0 l 1
 848 4 l 1
 678 31 633 149 583 317 c 1
 509 243 452 196 411 177 c 0
 380 163 341 156 294 156 c 2
 285 156 l 2
 241 156 194 161 144 172 c 0
 94 182 69 204 69 238 c 0
 69 251 74 269 83 292 c 0
 104 344 149 404 220 472 c 0
 315 561 406 628 525 696 c 1
 523 726 522 754 522 777 c 0
557 422 m 1
 536 572 l 1
 469 551 400 505 338 460 c 0
 281 416 252 384 252 365 c 1
 257 348 277 340 312 340 c 2
 322 340 l 2
 397 340 447 359 506 386 c 0
 540 402 557 414 557 422 c 1
EndSplineSet
Validated: 1
EndChar

StartChar: g.he8.init
Encoding: 352 65259 362
Width: 926
GlyphClass: 2
Flags: HMW
AnchorPoint: "Cursive-84" 750 0 entry 0
AnchorPoint: "Cursive-83" 800 0 entry 0
AnchorPoint: "Anchor-11" 0 0 basechar 0
AnchorPoint: "Anchor-10" 0 0 basechar 0
AnchorPoint: "Anchor-9" 325 -175 basechar 0
AnchorPoint: "Anchor-8" 375 1025 basechar 0
AnchorPoint: "Anchor-7" 300 1050 basechar 0
AnchorPoint: "Anchor-6" 255 1035 basechar 0
AnchorPoint: "Anchor-5" 350 1150 basechar 0
LayerCount: 2
Fore
SplineSet
203 214 m 5
 185 240 167 268 167 307 c 6
 167 314 l 6
 167 345 174 383 188 429 c 4
 203 475 230 532 270 601 c 5
 255 628 247 655 247 680 c 4
 247 695 253 714 266 739 c 4
 279 764 295 790 315 818 c 4
 323 830 331 834 339 832 c 4
 347 828 373 810 416 776 c 4
 459 741 550 671 688 565 c 4
 765 507 814 457 833 414 c 4
 852 372 863 327 864 279 c 5
 864 270 l 6
 864 163 821 69 762 22 c 4
 749 14 735 10 720 10 c 4
 710 10 699 11 688 14 c 4
 658 19 571 42 426 83 c 5
 297 39 195 14 120 8 c 4
 78 3 33 0 -15 0 c 6
 -35 0 l 5
 -35 183 l 5
 64 183 135 191 203 214 c 5
583 369 m 4
 583 316 572 286 549 247 c 5
 576 240 637 226 732 205 c 4
 738 204 743 203 748 203 c 4
 765 203 771 211 771 223 c 4
 771 232 768 243 762 254 c 4
 728 319 650 383 579 426 c 5
 582 405 583 386 583 369 c 4
397 284 m 5
 439 286 483 310 483 356 c 4
 480 393 411 506 380 513 c 4
 365 513 339 488 302 437 c 4
 285 412 272 392 266 376 c 4
 258 359 256 348 258 341 c 5
 286 317 346 284 393 284 c 6
 397 284 l 5
EndSplineSet
Validated: 1
Substitution2: "Single Substitution lookup 37 subtable" c.he8.calt
Substitution2: "Single Substitution lookup 38 subtable" c.he8.init_calt
EndChar

StartChar: g.he8.medi
Encoding: 353 65260 363
Width: 908
GlyphClass: 2
Flags: HMW
AnchorPoint: "Anchor-11" 0 0 basechar 0
AnchorPoint: "Anchor-10" 0 0 basechar 0
AnchorPoint: "Anchor-9" 503 -597 basechar 0
AnchorPoint: "Anchor-8" 375 950 basechar 0
AnchorPoint: "Anchor-7" 405 870 basechar 0
AnchorPoint: "Anchor-6" 390 840 basechar 0
AnchorPoint: "Anchor-5" 350 1000 basechar 0
LayerCount: 2
Fore
SplineSet
573 -229 m 4
 618 -229 673 -199 673 -166 c 4
 673 -137 587 -90 546 -70 c 5
 510 -46 397 -19 352 -19 c 5
 363 -48 384 -83 415 -123 c 4
 450 -168 487 -200 524 -218 c 4
 541 -225 558 -229 573 -229 c 4
605 455 m 4
 605 487 566 586 523 586 c 4
 474 586 384 335 350 254 c 5
 415 284 541 373 576 407 c 4
 593 424 603 440 605 455 c 4
609 754 m 4
 675 754 716 590 718 500 c 5
 718 486 l 6
 718 400 682 356 630 298 c 4
 604 269 566 226 516 171 c 5
 524 171 558 173 618 176 c 4
 677 180 757 182 856 183 c 5
 918 183 l 5
 918 0 l 5
 871 0 l 5
 765 -5 l 5
 713 -11 l 5
 745 -52 778 -100 778 -168 c 4
 778 -219 759 -283 743 -318 c 4
 718 -376 663 -444 587 -444 c 4
 552 -444 514 -428 472 -398 c 4
 429 -366 389 -321 350 -262 c 4
 323 -217 285 -142 236 -35 c 5
 160 -57 l 5
 197 30 l 5
 139 15 l 5
 103 9 47 0 4 0 c 6
 -18 0 l 5
 -18 183 l 5
 4 183 l 5
 111 186 194 197 251 218 c 5
 316 383 424 750 609 754 c 4
EndSplineSet
Validated: 1
Substitution2: "Single Substitution lookup 37 subtable" c.he8.zz03_calt
Substitution2: "Single Substitution lookup 38 subtable" c.he8.zz09
EndChar

StartChar: g.vav.fina
Encoding: 354 65262 364
Width: 753
GlyphClass: 2
Flags: HMW
AnchorPoint: "Cursive-83" -150 0 exit 0
AnchorPoint: "Anchor-11" 250 1100 basechar 0
AnchorPoint: "Anchor-10" 200 1450 basechar 0
AnchorPoint: "Anchor-9" 325 -650 basechar 0
AnchorPoint: "Anchor-8" 350 850 basechar 0
AnchorPoint: "Anchor-7" 450 650 basechar 0
AnchorPoint: "Anchor-6" 375 650 basechar 0
AnchorPoint: "Anchor-5" 400 800 basechar 0
LayerCount: 2
Fore
SplineSet
792 0 m 5
 672 0 l 5
 630 -240 512 -440 334 -543 c 4
 285 -572 227 -589 143 -589 c 4
 31 -589 -175 -551 -257 -523 c 4
 -282 -514 -293 -507 -293 -502 c 4
 -293 -494 -265 -489 -218 -489 c 4
 -190 -489 -156 -489 -117 -490 c 4
 -78 -490 -27 -487 34 -480 c 4
 95 -473 153 -455 208 -426 c 4
 288 -386 402 -292 465 -206 c 4
 483 -181 503 -150 525 -113 c 4
 552 -60 566 -23 568 0 c 5
 443 8 l 5
 334 16 269 33 238 106 c 4
 233 123 230 141 230 160 c 4
 230 188 237 216 245 240 c 4
 272 319 333 411 400 454 c 4
 420 468 439 475 457 475 c 4
 498 475 548 421 574 378 c 4
 606 326 634 261 657 183 c 5
 792 183 l 5
 792 0 l 5
365 227 m 4
 365 185 414 188 455 184 c 4
 477 184 493 183 504 183 c 5
 469 250 l 5
 452 279 434 294 416 295 c 4
 390 295 365 257 365 227 c 4
EndSplineSet
Validated: 1
Substitution2: "Single Substitution lookup 37 subtable" c.vav.zz04_calt
Substitution2: "Single Substitution lookup 38 subtable" c.vav.zz04_zz09
EndChar

StartChar: glyph379
Encoding: 380 -1 365
Width: 1258
GlyphClass: 2
Flags: HMW
LayerCount: 2
Fore
SplineSet
272 151 m 4
 281 151 286 141 285 134 c 4
 285 124 278 109 264 89 c 4
 225 29 172 -46 169 -134 c 4
 169 -297 299 -368 430 -407 c 4
 469 -417 514 -422 564 -422 c 6
 608 -422 l 5
 618 -420 625 -419 629 -419 c 4
 777 -407 992 -328 1077 -251 c 5
 946 -222 874 -206 778 -182 c 4
 733 -171 711 -151 711 -120 c 4
 711 -117 712 -110 714 -101 c 4
 729 -56 762 -10 815 37 c 4
 877 94 968 138 1088 167 c 4
 1126 177 1177 183 1223 183 c 6
 1282 183 l 5
 1282 0 l 5
 1234 0 l 6
 1149 0 909 -6 909 -35 c 4
 909 -41 920 -43 926 -45 c 4
 1115 -87 1212 -114 1217 -127 c 5
 1224 -134 1227 -147 1226 -164 c 5
 1226 -177 l 5
 1224 -184 1223 -190 1223 -194 c 4
 1200 -338 1111 -396 1002 -464 c 4
 892 -528 747 -577 572 -593 c 5
 391 -593 260 -548 168 -461 c 4
 111 -404 76 -329 76 -225 c 4
 76 -187 82 -148 94 -109 c 4
 106 -64 131 -15 168 40 c 4
 220 114 255 151 272 151 c 4
EndSplineSet
Validated: 1
EndChar

StartChar: la001
Encoding: 387 -1 375
Width: 1389
GlyphClass: 3
Flags: HMW
AnchorPoint: "Cursive-84" 0 0 exit 0
AnchorPoint: "Anchor-57" 0 0 baselig 0
AnchorPoint: "Anchor-56" 0 0 baselig 0
AnchorPoint: "Anchor-55" 875 -175 baselig 0
AnchorPoint: "Anchor-54" 1098 1674 baselig 0
AnchorPoint: "Anchor-53" 1128 1764 baselig 0
AnchorPoint: "Anchor-52" 1083 1719 baselig 0
AnchorPoint: "Anchor-51" 1148 1699 baselig 0
AnchorPoint: "Anchor-57" 150 1450 baselig 1
AnchorPoint: "Anchor-56" 150 1600 baselig 1
AnchorPoint: "Anchor-55" 325 -225 baselig 1
AnchorPoint: "Anchor-54" 0 0 baselig 1
AnchorPoint: "Anchor-53" 165 1515 baselig 1
AnchorPoint: "Anchor-52" 210 1500 baselig 1
AnchorPoint: "Anchor-51" 260 1450 baselig 1
LayerCount: 2
Fore
SplineSet
587 -1 m 0
 475 -1 464 41 464 147 c 0
 464 181 472 212 491 212 c 0
 498 212 506 208 516 198 c 0
 535 182 547 175 578 175 c 0
 591 175 606 178 624 183 c 0
 717 210 852 354 909 445 c 1
 859 522 l 1
 761 654 678 756 609 827 c 0
 534 910 472 961 425 980 c 0
 401 993 378 999 344 999 c 0
 311 999 295 989 264 989 c 0
 230 989 197 1005 165 1038 c 0
 122 1090 107 1179 105 1277 c 0
 106 1323 106 1355 127 1355 c 0
 129 1355 130 1354 132 1354 c 0
 145 1354 163 1350 187 1341 c 0
 272 1311 374 1244 493 1140 c 0
 651 1003 804 816 933 621 c 0
 946 602 958 583 971 564 c 1
 998 628 1021 699 1040 776 c 0
 1073 932 1083 1001 1083 1128 c 0
 1083 1210 1046 1233 1039 1307 c 0
 1039 1344 1093 1438 1117 1479 c 0
 1124 1490 1141 1515 1166 1555 c 0
 1173 1566 1179 1571 1182 1571 c 0
 1189 1570 1192 1565 1192 1555 c 2
 1192 1476 l 1
 1195 1398 1210 1364 1255 1328 c 1
 1309 1292 l 2
 1320 1285 1317 1272 1301 1252 c 0
 1260 1197 1224 1146 1192 1099 c 1
 1192 963 1150 751 1110 640 c 0
 1069 530 1066 525 1039 466 c 1
 1076 385 1100 324 1110 284 c 0
 1121 243 1127 206 1128 172 c 0
 1128 70 1113 43 1036 29 c 0
 913 1 775 0 610 0 c 0
 602 0 594 -1 587 -1 c 0
881 184 m 0
 916 189 1000 186 1013 214 c 0
 1016 222 1013 239 1004 265 c 0
 994 291 981 319 964 350 c 1
 923 286 874 230 816 183 c 1
 844 183 866 184 881 184 c 0
EndSplineSet
Validated: 1
LCarets2: 1 0
Ligature2: "'liga' Standard Ligatures in Arabic lookup 30 subtable" g.lam.init c.alef.zz13
Ligature2: "'liga' Standard Ligatures in Arabic lookup 30 subtable" g.lam.init g.alef.fina
EndChar

StartChar: la002
Encoding: 388 -1 376
Width: 1387
GlyphClass: 3
Flags: HMW
AnchorPoint: "Cursive-84" 0 0 exit 0
AnchorPoint: "Anchor-57" 0 0 baselig 0
AnchorPoint: "Anchor-56" 0 0 baselig 0
AnchorPoint: "Anchor-55" 975 -175 baselig 0
AnchorPoint: "Anchor-54" 1000 1500 baselig 0
AnchorPoint: "Anchor-53" 960 1515 baselig 0
AnchorPoint: "Anchor-52" 945 1515 baselig 0
AnchorPoint: "Anchor-51" 1000 1450 baselig 0
AnchorPoint: "Anchor-57" 150 1400 baselig 1
AnchorPoint: "Anchor-56" 150 1600 baselig 1
AnchorPoint: "Anchor-55" 375 -225 baselig 1
AnchorPoint: "Anchor-54" 0 0 baselig 1
AnchorPoint: "Anchor-53" 210 1485 baselig 1
AnchorPoint: "Anchor-52" 255 1410 baselig 1
AnchorPoint: "Anchor-51" 260 1450 baselig 1
LayerCount: 2
Fore
SplineSet
1408 0 m 1
 1386 0 l 2
 1292 0 1199 24 1153 70 c 0
 1096 129 1080 196 1058 289 c 1
 1035 440 l 1
 1019 583 l 1
 994 409 948 212 849 101 c 0
 779 21 699 -31 594 -54 c 0
 556 -62 475 -67 350 -68 c 1
 259 -66 l 2
 229 -66 227 -35 253 -26 c 0
 428 16 533 61 667 156 c 0
 841 274 912 448 956 692 c 0
 986 840 1002 1058 1002 1230 c 0
 1002 1278 1014 1304 1038 1309 c 1
 1059 1307 1076 1238 1090 1103 c 1
 1117 673 l 1
 1134 479 1160 351 1193 288 c 0
 1231 216 1288 183 1386 183 c 2
 1408 183 l 1
 1408 0 l 1
111 1176 m 0
 111 1215 112 1237 138 1237 c 0
 153 1237 174 1231 204 1220 c 0
 308 1180 403 1107 486 1029 c 0
 627 891 767 686 827 452 c 0
 830 437 832 424 833 412 c 0
 833 381 808 391 795 411 c 0
 780 445 734 523 658 644 c 0
 583 765 507 841 431 872 c 0
 402 882 374 887 347 887 c 0
 316 887 293 878 265 878 c 2
 256 878 l 2
 133 878 111 1037 111 1176 c 0
EndSplineSet
Validated: 1
LCarets2: 1 0
Ligature2: "'liga' Standard Ligatures in Arabic lookup 30 subtable" g.lam.medi c.alef.zz13
Ligature2: "'liga' Standard Ligatures in Arabic lookup 30 subtable" g.lam.medi g.alef.fina
EndChar

StartChar: bsf
Encoding: 390 -1 378
Width: 2008
GlyphClass: 2
Flags: HMW
LayerCount: 2
Fore
SplineSet
1818 423 m 0
 1832 423 1840 410 1840 387 c 0
 1840 366 1828 328 1804 273 c 1
 1813 194 1918 183 2018 183 c 1
 2018 0 l 1
 1852 0 1768 56 1736 157 c 1
 1582 63 1428 7 1252 -34 c 0
 1128 -62 920 -85 766 -85 c 2
 744 -85 l 2
 670 -85 583 -76 485 -59 c 0
 394 -41 315 -11 250 30 c 0
 134 106 76 202 76 318 c 0
 76 415 106 508 170 601 c 0
 187 625 208 653 224 653 c 0
 230 653 238 648 238 639 c 0
 238 636 237 632 235 627 c 2
 215 580 l 2
 194 530 184 483 183 438 c 0
 183 419 185 398 190 375 c 0
 235 178 557 120 824 120 c 0
 1099 120 1342 154 1525 214 c 0
 1651 252 1691 270 1775 380 c 0
 1793 408 1808 423 1818 423 c 0
EndSplineSet
Validated: 1
EndChar

StartChar: uniFBE8
Encoding: 391 64488 379
Width: 485
GlyphClass: 2
Flags: HMW
AnchorPoint: "Anchor-11" 0 0 basechar 0
AnchorPoint: "Anchor-10" 0 0 basechar 0
AnchorPoint: "Anchor-9" 200 -150 basechar 0
AnchorPoint: "Anchor-8" 0 0 basechar 0
AnchorPoint: "Anchor-7" 100 730 basechar 0
AnchorPoint: "Anchor-6" 90 860 basechar 0
AnchorPoint: "Anchor-5" 150 930 basechar 0
LayerCount: 2
Fore
SplineSet
408 341 m 4
 408 254 375 149 330 98 c 4
 278 33 170 0 39 0 c 6
 -35 0 l 5
 -35 183 l 5
 128 183 l 5
 217 188 261 194 296 238 c 4
 309 254 315 268 315 280 c 4
 305 315 259 380 177 474 c 4
 164 487 160 500 163 513 c 4
 178 565 198 619 216 655 c 4
 229 677 240 677 258 659 c 4
 331 593 408 482 408 341 c 4
EndSplineSet
Validated: 1
Substitution2: "Single Substitution lookup 50 subtable" uni066E.init_calt
EndChar

StartChar: uniFBE9
Encoding: 392 64489 380
Width: 583
GlyphClass: 2
Flags: HMW
AnchorPoint: "Anchor-11" 0 0 basechar 0
AnchorPoint: "Anchor-10" 0 0 basechar 0
AnchorPoint: "Anchor-9" 225 -175 basechar 0
AnchorPoint: "Anchor-8" 246 635 basechar 0
AnchorPoint: "Anchor-7" 125 550 basechar 0
AnchorPoint: "Anchor-6" 225 600 basechar 0
AnchorPoint: "Anchor-5" 200 850 basechar 0
LayerCount: 2
Fore
SplineSet
339 259 m 5
 387 211 490 183 587 183 c 5
 587 0 l 5
 460 0 345 60 270 124 c 5
 201 57 153 29 62 9 c 4
 35 3 8 0 -19 0 c 5
 -19 183 l 5
 22 183 l 6
 165 183 266 268 318 358 c 4
 325 372 330 380 333 384 c 4
 351 399 353 359 353 340 c 4
 353 316 348 289 339 259 c 5
EndSplineSet
Validated: 1
Substitution2: "Single Substitution lookup 47 subtable" uni066E.zz03_calt
Substitution2: "Single Substitution lookup 48 subtable" uni066E.zz03_calt
EndChar

StartChar: c.kaf.ar.zz15
Encoding: 394 -1 382
Width: 851
GlyphClass: 2
Flags: HMW
AnchorPoint: "Anchor-11" 170 0 basechar 0
AnchorPoint: "Anchor-10" 170 0 basechar 0
AnchorPoint: "Anchor-9" 420 -150 basechar 0
AnchorPoint: "Anchor-8" 464 1489 basechar 0
AnchorPoint: "Anchor-7" 364 1499 basechar 0
AnchorPoint: "Anchor-6" 102 1393 basechar 0
AnchorPoint: "Anchor-5" 457 1679 basechar 0
LayerCount: 2
Fore
SplineSet
197 0 m 6
 -12 0 l 5
 -12 182 l 5
 285 182 l 5
 379 183 453 188 507 199 c 4
 592 216 637 239 640 269 c 4
 640 296 633 328 618 364 c 4
 603 401 579 445 545 498 c 4
 481 601 384 707 255 816 c 4
 228 841 199 859 166 870 c 4
 117 886 91 926 89 989 c 4
 89 1071 128 1164 163 1223 c 4
 196 1278 272 1335 393 1395 c 4
 425 1412 496 1444 606 1491 c 4
 1013 1665 1070 1692 1088 1692 c 6
 1089 1692 l 5
 1093 1691 1094 1688 1094 1682 c 4
 1094 1649 1036 1548 1036 1548 c 5
 1023 1527 1006 1512 986 1502 c 6
 600 1330 l 5
 391 1243 278 1195 261 1185 c 4
 247 1177 206 1155 206 1133 c 4
 206 1121 224 1102 260 1066 c 4
 358 968 447 869 526 769 c 4
 609 664 664 570 692 487 c 4
 708 442 716 395 716 348 c 6
 716 340 l 6
 716 211 670 112 593 59 c 4
 507 5 351 0 197 0 c 6
EndSplineSet
Validated: 1
EndChar

StartChar: uni066E.init_calt
Encoding: 395 -1 383
Width: 610
GlyphClass: 2
Flags: HMW
AnchorPoint: "Anchor-16" 300 -175 basechar 0
AnchorPoint: "Anchor-15" 0 0 basechar 0
AnchorPoint: "Anchor-14" 225 900 basechar 0
AnchorPoint: "Anchor-13" 225 900 basechar 0
AnchorPoint: "Anchor-12" 275 925 basechar 0
LayerCount: 2
Fore
SplineSet
548 341 m 4
 548 254 515 149 470 98 c 4
 418 33 310 0 179 0 c 6
 -25 0 l 5
 -25 183 l 5
 268 183 l 5
 357 188 401 194 436 238 c 4
 449 254 455 268 455 280 c 4
 445 315 399 380 317 474 c 4
 304 487 300 500 303 513 c 4
 318 565 338 619 356 655 c 4
 369 677 380 677 398 659 c 4
 471 593 548 482 548 341 c 4
EndSplineSet
Validated: 1
EndChar

StartChar: c.ein.zz24
Encoding: 402 -1 390
Width: 1166
GlyphClass: 2
Flags: HMW
AnchorPoint: "Cursive-84" 950 0 entry 0
AnchorPoint: "Cursive-83" 1000 0 entry 0
AnchorPoint: "Anchor-16" 425 -200 basechar 0
AnchorPoint: "Anchor-15" 400 1100 basechar 0
AnchorPoint: "Anchor-14" 465 1110 basechar 0
AnchorPoint: "Anchor-13" 435 1050 basechar 0
AnchorPoint: "Anchor-12" 425 1075 basechar 0
LayerCount: 2
Fore
SplineSet
1076 374 m 4
 1037 252 994 215 868 158 c 5
 763 106 656 73 550 44 c 4
 490 29 310 0 234 0 c 6
 -32 0 l 5
 -32 183 l 5
 227 183 l 5
 294 185 333 189 346 195 c 5
 305 259 l 5
 292 287 286 318 286 352 c 4
 286 390 296 428 316 467 c 4
 349 538 385 595 425 638 c 4
 467 686 515 720 570 740 c 4
 595 749 619 754 643 754 c 4
 708 754 759 727 802 699 c 4
 832 677 861 650 889 618 c 4
 914 591 926 572 927 561 c 4
 927 549 922 543 912 542 c 4
 901 542 882 551 854 568 c 4
 812 594 763 616 702 616 c 4
 668 616 633 607 598 590 c 4
 555 571 512 541 468 502 c 4
 432 468 413 442 413 424 c 4
 413 411 452 340 489 303 c 4
 510 280 523 255 561 255 c 4
 605 255 655 268 696 278 c 4
 784 307 843 330 948 374 c 6
 1047 415 l 6
 1056 419 1064 421 1069 421 c 4
 1078 421 1082 415 1082 405 c 4
 1082 397 1080 387 1076 374 c 4
EndSplineSet
Validated: 1
EndChar

StartChar: c.feh.zz24
Encoding: 404 -1 392
Width: 728
GlyphClass: 2
Flags: HMW
AnchorPoint: "Cursive-83" 650 0 entry 0
AnchorPoint: "Anchor-16" 325 -160 basechar 0
AnchorPoint: "Anchor-15" 250 1410 basechar 0
AnchorPoint: "Anchor-14" 315 1405 basechar 0
AnchorPoint: "Anchor-13" 300 1435 basechar 0
AnchorPoint: "Anchor-12" 325 1410 basechar 0
LayerCount: 2
Fore
SplineSet
322 350 m 4
 211 350 146 419 146 537 c 4
 146 602 156 637 188 707 c 4
 211 757 231 793 248 815 c 4
 275 852 303 871 333 871 c 4
 440 871 568 631 602 513 c 4
 615 468 622 425 622 385 c 4
 622 142 462 20 232 4 c 4
 200 1 161 0 114 0 c 6
 -32 0 l 5
 -32 183 l 5
 156 183 l 6
 304 183 372 184 458 233 c 4
 514 264 537 298 537 334 c 4
 537 365 521 398 495 434 c 5
 442 396 l 5
 407 373 370 350 322 350 c 4
321 508 m 4
 346 508 380 531 402 547 c 5
 419 564 l 5
 402 596 366 664 329 664 c 6
 324 664 l 5
 304 657 271 598 271 558 c 4
 271 527 289 508 321 508 c 4
EndSplineSet
Refer: 270 -1 S 1 0 0 1 187 1111 0
Validated: 1
EndChar

StartChar: c.qaf.zz24
Encoding: 405 -1 393
Width: 724
GlyphClass: 2
Flags: HMW
AnchorPoint: "Cursive-83" 650 0 entry 0
AnchorPoint: "Anchor-16" 325 -160 basechar 0
AnchorPoint: "Anchor-15" 240 1380 basechar 0
AnchorPoint: "Anchor-14" 290 1405 basechar 0
AnchorPoint: "Anchor-13" 260 1375 basechar 0
AnchorPoint: "Anchor-12" 315 1380 basechar 0
LayerCount: 2
Fore
SplineSet
322 350 m 0
 211 350 146 419 146 537 c 0
 146 602 156 637 188 707 c 0
 211 757 231 793 248 815 c 0
 275 852 303 871 333 871 c 0
 440 871 568 631 602 513 c 0
 615 468 622 425 622 385 c 0
 622 142 462 20 232 4 c 0
 200 1 161 0 114 0 c 2
 -32 0 l 1
 -32 183 l 1
 156 183 l 2
 304 183 372 184 458 233 c 0
 514 264 537 298 537 334 c 0
 537 365 521 398 495 434 c 1
 442 396 l 1
 407 373 370 350 322 350 c 0
321 508 m 0
 346 508 380 531 402 547 c 1
 419 564 l 1
 402 596 366 664 329 664 c 2
 324 664 l 1
 304 657 271 598 271 558 c 0
 271 527 289 508 321 508 c 0
EndSplineSet
Refer: 271 -1 S 1 0 0 1 77 1063 0
Validated: 1
EndChar

StartChar: uni066E.zz03_calt
Encoding: 406 -1 394
Width: 605
GlyphClass: 2
Flags: HMW
AnchorPoint: "Anchor-81" 250 -200 basechar 0
AnchorPoint: "Anchor-80" 0 730 basechar 0
AnchorPoint: "Anchor-79" 200 1030 basechar 0
LayerCount: 2
Fore
SplineSet
-77 88 m 132
 -77 128 -56 182 -16 182 c 6
 0 182 l 6
 111 182 220 197 280 250 c 5
 258 305 232 372 217 432 c 4
 215 436 215 441 215 446 c 4
 215 484 256 533 272 559 c 132
 274 561 275 562 277 562 c 4
 285 562 293 530 296 523 c 4
 326 435 355 353 397 287 c 4
 444 215 490 182 606 182 c 6
 625 182 l 6
 666 182 687 128 687 88 c 132
 687 47 664 0 623 0 c 6
 605 0 l 6
 462 0 363 70 308 165 c 5
 267 49 155 0 -1 0 c 6
 -17 0 l 6
 -57 0 -77 48 -77 88 c 132
EndSplineSet
Validated: 1
EndChar

StartChar: c.alef_hamzeUp.zz04_calt
Encoding: 414 -1 402
Width: 611
GlyphClass: 2
Flags: HMW
AnchorPoint: "Anchor-11" 0 0 basechar 0
AnchorPoint: "Anchor-10" 0 0 basechar 0
AnchorPoint: "Anchor-9" 451 -205 basechar 0
AnchorPoint: "Anchor-8" 272 1962 basechar 0
AnchorPoint: "Anchor-7" 205 2212 basechar 0
AnchorPoint: "Anchor-6" 0 0 basechar 0
AnchorPoint: "Anchor-5" 205 2130 basechar 0
LayerCount: 2
Fore
SplineSet
178 1348 m 0
 179 1350 238 1511 250 1511 c 0
 263 1511 277 1493 293 1456 c 0
 309 1419 319 1377 323 1328 c 0
 326 1279 332 1190 340 1059 c 0
 358 770 375 569 391 456 c 0
 407 344 423 275 440 250 c 0
 465 205 505 182 560 182 c 2
 662 182 l 1
 662 0 l 1
 560 0 l 2
 397 0 340 103 319 252 c 0
 274 558 258 968 198 1255 c 1
 179 1328 l 1
 176 1335 176 1342 178 1348 c 0
EndSplineSet
Refer: 85 1620 N 0.95282 0 0 0.91272 -72 1240 0
EndChar

StartChar: c.beh.zz23
Encoding: 416 -1 404
Width: 626
GlyphClass: 2
Flags: HMW
AnchorPoint: "Anchor-11" 0 0 basechar 0
AnchorPoint: "Anchor-10" 0 0 basechar 0
AnchorPoint: "Anchor-9" 200 -650 basechar 0
AnchorPoint: "Anchor-8" 200 925 basechar 0
AnchorPoint: "Anchor-7" 200 800 basechar 0
AnchorPoint: "Anchor-6" 150 705 basechar 0
AnchorPoint: "Anchor-5" 240 925 basechar 0
LayerCount: 2
Fore
SplineSet
548 341 m 4
 548 254 515 149 470 98 c 4
 418 33 310 0 179 0 c 6
 -25 0 l 5
 -25 183 l 5
 268 183 l 5
 357 188 401 194 436 238 c 4
 449 254 455 268 455 280 c 4
 445 315 399 380 317 474 c 4
 304 487 300 500 303 513 c 4
 318 565 338 619 356 655 c 4
 369 677 380 677 398 659 c 4
 471 593 548 482 548 341 c 4
EndSplineSet
Refer: 270 -1 N 1 0 0 1 32 -434 0
Validated: 1
EndChar

